<svg width="56" height="56" viewBox="0 0 56 56" version="1.1" xmlns="http://www.w3.org/2000/svg" xmlns:xlink="http://www.w3.org/1999/xlink">
<title>chat</title>
<desc>Created using Figma</desc>
<g id="Canvas" transform="translate(128 -1243)">
<g id="icon/chat">
<g id="Page 1">
<g id="Group 3">
<mask id="mask0_outline" mask-type="alpha">
<g id="Clip 2">
<use xlink:href="#path0_fill" transform="translate(-123.333 1250.11)" fill="#FFFFFF"/>
</g>
</mask>
<g id="Fill 1" mask="url(#mask0_outline)">
<use xlink:href="#path1_fill" transform="translate(-123.333 1250.11)" fill="#53467B"/>
</g>
</g>
<g id="Fill 4">
<use xlink:href="#path2_fill" transform="translate(-101.522 1269.2)" fill="#53467B"/>
</g>
<g id="Fill 6">
<use xlink:href="#path3_fill" transform="translate(-107.958 1269.2)" fill="#53467B"/>
</g>
<g id="Fill 8">
<use xlink:href="#path4_fill" transform="translate(-95.0866 1269.2)" fill="#53467B"/>
</g>
</g>
</g>
</g>
<defs>
<path id="path0_fill" fill-rule="evenodd" d="M 7.89699e-16 41.1757L 7.89699e-16 0L 46.6213 0L 46.6213 41.1757L 7.89699e-16 41.1757Z"/>
<path id="path1_fill" fill-rule="evenodd" d="M 23.3156 38.8335C 19.2309 38.8335 15.2707 37.8056 11.8623 35.863C 11.6813 35.7585 11.4817 35.7109 11.2816 35.7109C 11.0722 35.7109 10.8629 35.7678 10.6819 35.8728C 8.89182 36.9484 6.74037 37.4627 4.39862 37.3769C 5.62663 36.2725 6.5594 34.8728 7.18803 33.1877C 7.34009 32.7788 7.24494 32.3119 6.9498 31.9882C 3.92239 28.7229 2.33242 24.7814 2.33242 20.5829C 2.33242 10.52 11.748 2.33252 23.3156 2.33252C 34.8826 2.33252 44.2983 10.52 44.2983 20.5829C 44.2983 30.6459 34.8826 38.8335 23.3156 38.8335L 23.3156 38.8335ZM 23.3156 0C 10.4533 0 0 9.23465 0 20.583C 0 25.0669 1.67579 29.4561 4.73154 33.0167C 4.09358 34.4255 3.16081 35.5394 1.94202 36.3298C 1.31384 36.739 1.00925 37.4814 1.17111 38.2146C 1.33296 38.9383 1.91356 39.4715 2.65613 39.576C 3.38925 39.6809 4.14115 39.7285 4.87428 39.7285C 7.23561 39.7285 9.38717 39.2239 11.2816 38.2243C 14.9087 40.1567 19.0504 41.1757 23.3058 41.1757C 36.168 41.1757 46.6214 31.9406 46.6214 20.5923C 46.6214 9.24455 36.1774 0 23.3156 0L 23.3156 0Z"/>
<path id="path2_fill" fill-rule="evenodd" d="M 2.98963 1.49481C 2.98963 2.32047 2.32047 2.98962 1.49481 2.98962C 0.669154 2.98962 0 2.32047 0 1.49481C 0 0.669154 0.669154 0 1.49481 0C 2.32047 0 2.98963 0.669154 2.98963 1.49481"/>
<path id="path3_fill" fill-rule="evenodd" d="M 2.98963 1.49481C 2.98963 2.32047 2.32047 2.98962 1.49481 2.98962C 0.66961 2.98962 0 2.32047 0 1.49481C 0 0.669154 0.66961 0 1.49481 0C 2.32047 0 2.98963 0.669154 2.98963 1.49481"/>
<path id="path4_fill" fill-rule="evenodd" d="M 2.98962 1.49481C 2.98962 2.32047 2.32047 2.98962 1.49481 2.98962C 0.669154 2.98962 0 2.32047 0 1.49481C 0 0.669154 0.669154 0 1.49481 0C 2.32047 0 2.98962 0.669154 2.98962 1.49481"/>
</defs>
</svg>
