<svg width="56" height="56" viewBox="0 0 56 56" version="1.1" xmlns="http://www.w3.org/2000/svg" xmlns:xlink="http://www.w3.org/1999/xlink">
<title>cloud</title>
<desc>Created using Figma</desc>
<g id="Canvas" transform="translate(-172 -1243)">
<rect x="172" y="1243" width="56" height="56" fill="#FFFFFF"/>
<clipPath id="clip-0" clip-rule="evenodd">
<path d="M -263 -143L 1177 -143L 1177 2809L -263 2809L -263 -143Z" fill="#FFFFFF"/>
</clipPath>
<g id="landing page" clip-path="url(#clip-0)">
<g id="section how it work">
<g id="background section 2">
<use xlink:href="#path0_fill" transform="translate(-263 1011)" fill="#F5F5F5"/>
</g>
<g id="icon how it work">
<g id="cloud">
<g id="icon/cloud">
<g id="cloud">
<g id="Group 3">
<mask id="mask0_outline" mask-type="alpha">
<g id="Clip 2">
<use xlink:href="#path1_fill" transform="translate(176.667 1250.11)" fill="#FFFFFF"/>
</g>
</mask>
<g id="Fill 1" mask="url(#mask0_outline)">
<use xlink:href="#path2_fill" transform="translate(176.667 1250.11)" fill="#53467B"/>
</g>
</g>
<g id="Group 6">
<mask id="mask1_outline" mask-type="alpha">
<g id="Clip 5">
<use xlink:href="#path3_fill" transform="translate(191.835 1266.12)" fill="#FFFFFF"/>
</g>
</mask>
<g id="Fill 4" mask="url(#mask1_outline)">
<use xlink:href="#path4_fill" transform="translate(191.835 1266.12)" fill="#53467B"/>
</g>
</g>
</g>
</g>
</g>
</g>
</g>
</g>
</g>
<defs>
<path id="path0_fill" fill-rule="evenodd" d="M 0 0L 1440 0L 1440 775.637L 0 775.637L 0 0Z"/>
<path id="path1_fill" fill-rule="evenodd" d="M 3.08513e-21 0L 46.6213 0L 46.6213 34.5989L 0 34.5989L 3.08513e-21 0Z"/>
<path id="path2_fill" fill-rule="evenodd" d="M 37.9162 11.255C 37.4178 8.29244 35.951 5.58919 33.7074 3.53733C 31.215 1.25602 27.9746 0 24.6 0C 21.9924 0 19.4518 0.747805 17.2754 2.15725C 15.4636 3.32654 13.9587 4.90854 12.8942 6.76837C 12.434 6.6821 11.9547 6.63406 11.4754 6.63406C 7.40099 6.63406 4.08424 9.95138 4.08424 14.0257C 4.08424 14.5531 4.14161 15.0608 4.23756 15.5597C 1.60101 17.4769 0 20.5638 0 23.8521C 0 26.5078 0.987512 29.0867 2.78998 31.1287C 4.64003 33.2184 7.08491 34.4554 9.69255 34.5989L 18.014 34.5989C 18.7329 34.5989 19.3083 34.0241 19.3083 33.3052C 19.3083 32.5857 18.7329 32.0108 18.014 32.0108L 9.80728 32.0108C 5.88626 31.7712 2.58852 28.0418 2.58852 23.8428C 2.58852 21.1294 4.04554 18.5986 6.39447 17.2279C 6.94081 16.9113 7.17119 16.2497 6.95994 15.6553C 6.76837 15.1378 6.67231 14.5913 6.67231 14.0066C 6.67231 11.3603 8.82956 9.20346 11.4754 9.20346C 12.041 9.20346 12.5973 9.29907 13.1148 9.4912C 13.7474 9.72101 14.4473 9.43338 14.7349 8.82956C 16.5276 5.02372 20.4011 2.5694 24.6094 2.5694C 30.2657 2.5694 34.9347 6.80662 35.4717 12.4247C 35.529 13.0094 35.9701 13.4794 36.5455 13.5749C 40.8115 14.3037 44.0327 18.2438 44.0327 22.7402C 44.0327 27.5048 40.2843 31.6463 35.6633 32.0012L 28.5976 32.0012C 27.8786 32.0012 27.3038 32.5764 27.3038 33.2954C 27.3038 34.0143 27.8786 34.5896 28.5976 34.5896L 35.807 34.5896C 38.7312 34.3789 41.4633 33.0366 43.4957 30.7931C 45.5187 28.5691 46.6213 25.7121 46.6213 22.7402C 46.6116 17.3617 42.9399 12.5781 37.9162 11.255"/>
<path id="path3_fill" fill-rule="evenodd" d="M 16.2932 27.0832L 3.23499e-15 27.0832L 0 0L 16.2932 0L 16.2932 27.0832Z"/>
<path id="path4_fill" fill-rule="evenodd" d="M 15.912 9.06927C 16.4202 8.56106 16.4202 7.7461 15.912 7.23834L 9.05737 0.383691C 8.81767 0.144098 8.48212 0 8.1468 0C 7.81126 0 7.47537 0.134309 7.23578 0.383691L 0.381244 7.23834C -0.127081 7.7461 -0.127081 8.56106 0.381244 9.06927C 0.63074 9.31865 0.965943 9.45296 1.29227 9.45296C 1.61802 9.45296 1.95346 9.32798 2.20284 9.06927L 6.85266 4.41945L 6.85266 25.789C 6.85266 26.5079 7.42745 27.0833 8.1468 27.0833C 8.86581 27.0833 9.44072 26.5079 9.44072 25.789L 9.44072 4.41945L 14.0904 9.06927C 14.5889 9.57748 15.4038 9.57748 15.912 9.06927"/>
</defs>
</svg>
