<svg width="56" height="56" viewBox="0 0 56 56" version="1.1" xmlns="http://www.w3.org/2000/svg" xmlns:xlink="http://www.w3.org/1999/xlink">
<title>friend</title>
<desc>Created using Figma</desc>
<g id="Canvas" transform="translate(128 -1415)">
<g id="friend">
<g id="Page 1">
<g id="Group 3">
<mask id="mask0_outline" mask-type="alpha">
<g id="Clip 2">
<use xlink:href="#path0_fill" transform="translate(-123.333 1419.78)" fill="#FFFFFF"/>
</g>
</mask>
<g id="Fill 1" mask="url(#mask0_outline)">
<use xlink:href="#path1_fill" transform="translate(-123.333 1419.78)" fill="#53467B"/>
</g>
</g>
<g id="Fill 4">
<use xlink:href="#path2_fill" transform="translate(-112.827 1435.14)" fill="#231F20"/>
</g>
<g id="Fill 6">
<use xlink:href="#path3_fill" transform="translate(-114.444 1431.09)" fill="#231F20"/>
</g>
<g id="Fill 8">
<use xlink:href="#path4_fill" transform="translate(-107.979 1431.09)" fill="#231F20"/>
</g>
<g id="Fill 10">
<use xlink:href="#path5_fill" transform="translate(-91.008 1439.18)" fill="#231F20"/>
</g>
<g id="Fill 12">
<use xlink:href="#path6_fill" transform="translate(-92.6243 1435.13)" fill="#231F20"/>
</g>
<g id="Fill 14">
<use xlink:href="#path7_fill" transform="translate(-86.1592 1435.13)" fill="#231F20"/>
</g>
<g id="Fill 16">
<use xlink:href="#path8_fill" transform="translate(-103.938 1423.01)" fill="#53467B"/>
</g>
</g>
</g>
</g>
<defs>
<path id="path0_fill" fill-rule="evenodd" d="M 0 22.0984L 0 0L 22.9173 0L 22.9173 44.1968L 0 44.1968L 0 22.0984Z"/>
<path id="path1_fill" fill-rule="evenodd" d="M 17.1016 27.4994C 15.9083 28.5268 14.3819 29.0929 12.8049 29.0929C 9.70905 29.0929 7.03153 26.9085 6.3717 23.9331L 8.16712 23.3947C 8.58553 25.5743 10.5053 27.226 12.8049 27.226C 15.1044 27.226 17.0242 25.5743 17.4426 23.3947L 19.238 23.9331C 18.9316 25.3128 18.1838 26.5683 17.1016 27.4994L 17.1016 27.4994ZM 16.1626 20.8241L 16.1626 22.5025C 16.1626 24.3538 14.6563 25.8602 12.8049 25.8602C 10.9562 25.8602 9.45205 24.3587 9.44716 22.5115L 9.44716 22.5017L 9.44716 20.8241C 10.468 21.3016 11.6058 21.5692 12.8049 21.5692C 14.004 21.5692 15.1417 21.3016 16.1626 20.8241L 16.1626 20.8241ZM 6.21486 13.6132C 6.21486 13.2358 5.90891 12.9303 5.53193 12.9303C 5.01701 12.9303 4.59814 12.5114 4.59814 11.9966C 4.59814 11.6653 4.77343 11.3657 5.06732 11.195C 5.08234 11.1861 5.09577 11.1759 5.11034 11.1661C 5.24021 11.0998 5.38431 11.0634 5.53193 11.0634L 6.56566 11.0634C 7.20852 11.0634 7.77671 10.6539 7.97988 10.0439L 8.45031 8.63264C 10.0559 8.59713 15.116 8.37267 17.9588 6.95071C 18.2963 6.78214 18.4332 6.37181 18.2643 6.03445C 18.0957 5.69742 17.6859 5.56038 17.3484 5.72884C 14.2988 7.25393 8.01904 7.27305 7.95587 7.27305C 7.66198 7.2735 7.40099 7.46165 7.30811 7.74028L 6.68437 9.61219C 6.66696 9.66329 6.61938 9.69755 6.56566 9.69755L 5.53193 9.69755C 5.49005 9.69755 5.44827 9.69926 5.4065 9.70154L 5.4065 6.33983C 5.4065 3.59742 7.63797 1.36584 10.3804 1.36584L 16.8455 1.36584C 17.7023 1.36584 18.4222 1.98344 18.5568 2.83402C 18.5897 3.03947 18.7147 3.21908 18.8961 3.32186C 19.7022 3.77612 20.2032 4.62318 20.2032 5.53193L 20.2032 10.6045C 20.2032 10.8478 20.3327 11.0727 20.5424 11.195C 20.836 11.3657 21.0112 11.6653 21.0112 11.9966C 21.0112 12.5114 20.5927 12.9303 20.0778 12.9303C 19.7008 12.9303 19.3949 13.2358 19.3949 13.6132C 19.3949 17.2471 16.4387 20.2032 12.8049 20.2032C 9.17102 20.2032 6.21486 17.2471 6.21486 13.6132L 6.21486 13.6132ZM 22.4303 23.465L 17.5285 21.9942L 17.5285 20.009C 19.3403 18.6676 20.5657 16.5775 20.7399 14.1988C 21.686 13.9143 22.3775 13.0348 22.3775 11.9966C 22.3775 11.3249 22.0755 10.6881 21.5691 10.2555L 21.5691 5.53193C 21.5691 4.23688 20.9133 3.02525 19.8382 2.29964C 19.479 0.949268 18.2678 0 16.8455 0L 10.3804 0C 6.88481 0 4.04065 2.84416 4.04065 6.33984L 4.04065 10.2555C 3.53472 10.6881 3.23229 11.3249 3.23229 11.9966C 3.23229 13.0348 3.92376 13.9143 4.87029 14.1988C 5.0441 16.5775 6.2695 18.6676 8.0813 20.009L 8.0813 21.9942L 2.21462 23.7545C 0.890081 24.152 0 25.348 0 26.7307L 0 34.6244C 0 35.0014 0.305951 35.3073 0.682927 35.3073L 0.808358 35.3073L 0.808358 43.5139C 0.808358 43.891 1.11374 44.1969 1.49128 44.1969C 1.86826 44.1969 2.17421 43.891 2.17421 43.5139L 2.17421 35.3073L 4.84901 35.3073L 4.84901 43.5139C 4.84901 43.891 5.15439 44.1969 5.53194 44.1969C 5.90891 44.1969 6.21486 43.891 6.21486 43.5139L 6.21486 30.5837C 6.21486 30.4779 6.18994 30.3729 6.14236 30.2782L 4.52621 27.0459C 4.35764 26.7086 3.94732 26.572 3.61029 26.7405C 3.27281 26.909 3.13589 27.3193 3.3048 27.6569L 4.84901 30.7451L 4.84901 33.9415L 1.36585 33.9415L 1.36585 26.7307C 1.36585 25.9557 1.86473 25.2854 2.60673 25.0626L 5.05924 24.3272C 5.89286 27.8693 9.10171 30.4583 12.8049 30.4583C 14.7091 30.4583 16.5516 29.7754 17.9926 28.5346C 19.2731 27.4327 20.1659 25.9545 20.5487 24.3262L 22.0377 24.7732C 22.1035 24.7931 22.1693 24.8021 22.2343 24.8021C 22.5282 24.8021 22.7994 24.6112 22.8883 24.315C 22.9968 23.9541 22.7918 23.5736 22.4303 23.465L 22.4303 23.465Z"/>
<path id="path2_fill" fill-rule="evenodd" d="M 4.34548 0.152704C 4.05251 -0.0850688 3.6226 -0.0402232 3.38472 0.252752C 3.09436 0.611175 2.70896 0.808086 2.29898 0.808086C 1.88945 0.808086 1.5036 0.611175 1.21324 0.252752C 0.975807 -0.0402232 0.545449 -0.0847273 0.252815 0.152704C -0.0401606 0.390135 -0.0850062 0.820151 0.152425 1.11313C 0.699221 1.78718 1.48174 2.17394 2.29898 2.17394C 3.11621 2.17394 3.89873 1.78718 4.44553 1.11313C 4.68296 0.820151 4.63857 0.390135 4.34548 0.152704"/>
<path id="path3_fill" fill-rule="evenodd" d="M 0.682927 0C 0.305382 0 0 0.305837 0 0.682927L 0 1.49117C 0 1.86826 0.305382 2.1741 0.682927 2.1741C 1.0599 2.1741 1.36585 1.86826 1.36585 1.49117L 1.36585 0.682927C 1.36585 0.305837 1.0599 0 0.682927 0"/>
<path id="path4_fill" fill-rule="evenodd" d="M 0.682927 0C 0.305951 0 0 0.305837 0 0.682927L 0 1.49117C 0 1.86826 0.305951 2.1741 0.682927 2.1741C 1.06047 2.1741 1.36585 1.86826 1.36585 1.49117L 1.36585 0.682927C 1.36585 0.305837 1.06047 0 0.682927 0"/>
<path id="path5_fill" fill-rule="evenodd" d="M 4.34555 0.152332C 4.05257 -0.0849853 3.62256 -0.0401397 3.38513 0.252836C 3.09443 0.610803 2.70892 0.808169 2.29905 0.808169C 1.88952 0.808169 1.50355 0.610803 1.21319 0.252836C 0.975875 -0.0401397 0.545859 -0.0849853 0.252883 0.152332C -0.0400921 0.390218 -0.0850515 0.820234 0.152379 1.11321C 0.69929 1.78726 1.48181 2.17402 2.29939 2.17402C 3.11662 2.17402 3.89869 1.78726 4.4456 1.11321C 4.68348 0.820234 4.63853 0.390218 4.34555 0.152332"/>
<path id="path6_fill" fill-rule="evenodd" d="M 0.682926 0C 0.305837 0 0 0.305837 0 0.682927L 0 1.49117C 0 1.86826 0.305837 2.1741 0.682926 2.1741C 1.06002 2.1741 1.36585 1.86826 1.36585 1.49117L 1.36585 0.682927C 1.36585 0.305837 1.06002 0 0.682926 0"/>
<path id="path7_fill" fill-rule="evenodd" d="M 0.682926 0C 0.305496 0 0 0.305837 0 0.682927L 0 1.49117C 0 1.86826 0.305496 2.1741 0.682926 2.1741C 1.06002 2.1741 1.36585 1.86826 1.36585 1.49117L 1.36585 0.682927C 1.36585 0.305837 1.06002 0 0.682926 0"/>
<path id="path8_fill" fill-rule="evenodd" d="M 15.2294 29.9012C 12.6635 29.9012 10.4164 28.2165 9.68902 25.7778L 11.2345 25.1595C 12.1126 24.8083 12.68 23.9705 12.68 23.0249L 12.68 21.9554C 13.4967 22.2316 14.3584 22.3774 15.2294 22.3774C 16.1008 22.3774 16.9625 22.2316 17.7792 21.9554L 17.7792 23.0249C 17.7792 23.9705 18.3466 24.8083 19.2243 25.1595L 20.7697 25.7778C 20.0428 28.2161 17.7957 29.9012 15.2294 29.9012L 15.2294 29.9012ZM 6.27348 21.2365C 6.39448 20.1769 6.66036 17.6845 6.84043 14.8131C 6.98361 14.8928 7.13522 14.959 7.2948 15.0071C 7.32371 15.4058 7.38278 15.8015 7.47043 16.1888C 7.86345 17.9192 8.84379 19.49 10.2315 20.6118C 10.5721 20.8875 10.9349 21.132 11.3142 21.3464L 11.3142 22.5219C 8.68558 22.0005 7.02982 21.4936 6.27348 21.2365L 6.27348 21.2365ZM 15.2294 21.0115C 13.7048 21.0115 12.2731 20.506 11.0901 19.5497C 9.93978 18.6199 9.12755 17.3192 8.80248 15.8866C 8.694 15.409 8.63937 14.9159 8.63937 14.4215C 8.63937 14.0441 8.33342 13.7386 7.95644 13.7386C 7.44152 13.7386 7.02311 13.3197 7.02311 12.8049C 7.02311 12.2904 7.44152 11.8717 7.95644 11.8717C 10.0274 11.8717 11.5293 9.9967 12.2078 8.94739C 13.8004 9.9728 15.622 10.3346 17.252 10.6583C 20.2536 11.2541 21.8199 11.6921 21.8199 14.4215C 21.8199 14.9159 21.7648 15.409 21.6563 15.8866C 21.3312 17.3195 20.519 18.6199 19.3692 19.5497C 18.1857 20.506 16.7544 21.0115 15.2294 21.0115L 15.2294 21.0115ZM 7.02265 9.57246C 7.02311 5.04728 10.7045 1.36584 15.2294 1.36584C 19.7547 1.36584 23.4361 5.04728 23.4361 9.57246C 23.4361 14.261 23.9936 19.5546 24.1857 21.2365C 23.4289 21.494 21.7732 22.0005 19.1451 22.5219L 19.1451 21.3465C 19.5239 21.132 19.8867 20.8875 20.2277 20.6119C 21.6153 19.49 22.5958 17.9192 22.9883 16.1888C 23.119 15.6122 23.1857 15.0177 23.1857 14.4215C 23.1857 10.4435 20.3042 9.87124 17.5178 9.3183C 15.7358 8.96477 13.8933 8.59884 12.4235 7.42284C 12.263 7.29433 12.0522 7.2455 11.8512 7.28944C 11.6503 7.33349 11.4791 7.46597 11.3866 7.65002C 11.3826 7.65754 11.0002 8.41069 10.3528 9.14438C 9.80467 9.7655 8.94384 10.5058 7.95644 10.5058C 7.61987 10.5058 7.3006 10.5791 7.01252 10.7094C 7.01912 10.328 7.02265 9.94819 7.02265 9.57246L 7.02265 9.57246ZM 25.2727 26.1078L 19.7316 23.8913C 19.6845 23.8722 19.6395 23.8501 19.5973 23.8241C 23.3503 23.0688 25.1083 22.3582 25.1861 22.3262C 25.471 22.2095 25.6431 21.916 25.6049 21.6095C 25.5964 21.5457 24.802 15.1227 24.802 9.57247C 24.802 4.29402 20.5078 0 15.2294 0C 9.95138 0 5.65725 4.29447 5.65725 9.57247C 5.65725 15.1199 4.86233 21.5457 4.85436 21.61C 4.81611 21.916 4.98776 22.2099 5.27311 22.3267C 5.35096 22.3582 7.10847 23.0688 10.8615 23.8246C 10.8193 23.8501 10.7743 23.8726 10.7272 23.8913L 5.18603 26.1078C 3.99933 26.5827 3.23286 27.715 3.23286 28.9929L 3.23286 30.7091L 1.36585 30.7091L 1.36585 27.5127L 2.91007 24.4245C 3.07898 24.0869 2.94205 23.6765 2.60457 23.508C 2.26754 23.3396 1.85722 23.4762 1.68865 23.8135L 0.0725041 27.0463C 0.0249268 27.141 0 27.2455 0 27.3513L 0 40.2815C 0 40.6586 0.305951 40.9645 0.682927 40.9645C 1.06047 40.9645 1.36585 40.6586 1.36585 40.2815L 1.36585 32.0749L 3.23286 32.0749L 3.23286 33.0087C 3.23286 33.19 3.30491 33.3639 3.43296 33.492C 3.56101 33.62 3.73436 33.6916 3.91579 33.6916L 4.04065 33.6916L 4.04065 40.2815C 4.04065 40.6586 4.3466 40.9645 4.72358 40.9645C 5.10112 40.9645 5.4065 40.6586 5.4065 40.2815L 5.4065 33.6916L 7.27351 33.6916L 7.27351 40.2815C 7.27351 40.6586 7.57935 40.9645 7.95644 40.9645C 8.33341 40.9645 8.63937 40.6586 8.63937 40.2815L 8.63937 31.392C 8.63937 31.0149 8.33341 30.7091 7.95644 30.7091C 7.57935 30.7091 7.27351 31.0149 7.27351 31.392L 7.27351 32.3258L 4.59872 32.3258L 4.59872 28.9929C 4.59872 28.2766 5.02816 27.642 5.69333 27.3758L 8.41741 26.286C 9.35337 29.2379 12.0993 31.267 15.2294 31.267C 18.3599 31.267 21.1054 29.2379 22.0414 26.286L 24.7654 27.3758C 25.4306 27.642 25.8605 28.2766 25.8605 28.9929L 25.8605 32.3258L 23.1857 32.3258L 23.1857 31.392C 23.1857 31.0149 22.8799 30.7091 22.5028 30.7091C 22.1254 30.7091 21.8199 31.0149 21.8199 31.392L 21.8199 40.2815C 21.8199 40.6586 22.1254 40.9645 22.5028 40.9645C 22.8799 40.9645 23.1857 40.6586 23.1857 40.2815L 23.1857 33.6916L 25.0523 33.6916L 25.0523 40.2815C 25.0523 40.6586 25.3581 40.9645 25.7352 40.9645C 26.1122 40.9645 26.4181 40.6586 26.4181 40.2815L 26.4181 33.6916L 26.5434 33.6916C 26.9205 33.6916 27.2264 33.3856 27.2264 33.0087L 27.2264 28.9929C 27.2264 27.715 26.4594 26.5827 25.2727 26.1078L 25.2727 26.1078Z"/>
</defs>
</svg>
