<svg width="56" height="56" viewBox="0 0 56 56" version="1.1" xmlns="http://www.w3.org/2000/svg" xmlns:xlink="http://www.w3.org/1999/xlink">
<title>privacy</title>
<desc>Created using Figma</desc>
<g id="Canvas" transform="translate(-172 -1415)">
<g id="icon/privacy">
<g id="Page 1">
<g id="Fill 1">
<use xlink:href="#path0_fill" transform="translate(186 1422)" fill="#53467B"/>
</g>
<g id="Fill 3">
<use xlink:href="#path1_fill" transform="translate(196.619 1447.71)" fill="#53467B"/>
</g>
</g>
</g>
</g>
<defs>
<path id="path0_fill" fill-rule="evenodd" d="M 3.35335 39.1234L 24.592 39.1234L 24.592 22.3562L 3.35335 22.3562L 3.35335 39.1234ZM 25.1509 19.0029L 6.70673 19.0029L 6.70673 10.6191C 6.70673 6.61277 9.96644 3.35336 13.9728 3.35336C 17.9792 3.35336 21.2386 6.61277 21.2386 10.6191L 21.2386 13.9728C 21.2386 14.8989 21.9892 15.6495 22.9153 15.6495C 23.8413 15.6495 24.592 14.8989 24.592 13.9728L 24.592 10.6191C 24.592 4.76384 19.828 0 13.9728 0C 8.1172 0 3.35336 4.76384 3.35336 10.6191L 3.35336 19.0029L 2.79471 19.0029C 1.25129 19.0029 0 20.2543 0 21.7976L 0 39.6824C 0 41.2259 1.25129 42.4772 2.79471 42.4772L 25.1509 42.4772C 26.6944 42.4772 27.9453 41.2259 27.9453 39.6824L 27.9453 21.7976C 27.9453 20.2543 26.6944 19.0029 25.1509 19.0029L 25.1509 19.0029Z"/>
<path id="path1_fill" fill-rule="evenodd" d="M 1.6771 6.25748L 1.6771 10.0605L 5.03046 10.0605L 5.03046 6.25748C 6.03265 5.67736 6.70714 4.59459 6.70714 3.35378C 6.70714 1.50173 5.20551 0 3.35378 0C 1.50173 0 0 1.50173 0 3.35378C 0 4.59459 0.674904 5.67736 1.6771 6.25748"/>
</defs>
</svg>
