<svg width="12" height="12" viewBox="0 0 12 12" fill="none" xmlns="http://www.w3.org/2000/svg">
  <path d="M1.22691 3.96971C1.36756 3.82911 1.55829 3.75012 1.75716 3.75012C1.95604 3.75012 2.14677 3.82911 2.28741 3.96971L5.99991 7.68221L9.71241 3.96971C9.85387 3.83309 10.0433 3.7575 10.24 3.75921C10.4366 3.76091 10.6247 3.83979 10.7638 3.97885C10.9028 4.1179 10.9817 4.30601 10.9834 4.50266C10.9851 4.69931 10.9095 4.88876 10.7729 5.03021L6.53016 9.27296C6.38952 9.41357 6.19879 9.49255 5.99991 9.49255C5.80104 9.49255 5.61031 9.41357 5.46966 9.27296L1.22691 5.03021C1.08631 4.88957 1.00732 4.69883 1.00732 4.49996C1.00732 4.30109 1.08631 4.11036 1.22691 3.96971Z" fill="currentColor"/>
</svg>
