<svg width="24" height="24" viewBox="0 0 24 24" fill="none" xmlns="http://www.w3.org/2000/svg">
  <rect width="24" height="24" fill="#FAFAFA"/>
  <path d="M16.4407 7.55939H19.9099V16.4406H16.4407V7.55939ZM4.09033 7.55939H7.55954V16.4406H4.09033V7.55939Z" fill="#212326"/>
  <g clip-path="url(#clip0_59_1239)">
    <path d="M-1.00061 7.83838L5.80787 8.07614L5.69565 11.2897C7.77213 10.6721 10.251 10.4136 13.1323 10.5142C16.0925 10.6176 18.6055 11.0783 20.6714 11.8966C22.7767 12.7162 23.8112 13.6476 23.7747 14.6908L23.642 18.4911L16.8335 18.2534C16.8384 18.1137 16.8472 17.8622 16.8599 17.4989C16.9124 17.1277 16.9422 16.8396 16.9493 16.6347C16.9565 16.4298 16.9457 16.173 16.917 15.8642C16.8886 15.5461 16.8 15.2539 16.6512 14.9876C16.5024 14.7213 16.3137 14.4676 16.085 14.2264C15.3239 13.3885 14.1238 12.6751 12.4846 12.0863C10.8458 11.4882 8.49451 11.3443 7.3473 11.3789C6.35796 11.4189 6.63934 11.4252 6.27501 11.6736C5.911 11.9127 5.70081 12.2737 5.64442 12.7567L5.46634 17.8564L-1.34215 17.6187L-1.00061 7.83838Z" fill="#212326"/>
  </g>
  <defs>
    <clipPath id="clip0_59_1239">
      <rect width="11.2749" height="6.07111" fill="white" transform="translate(6.58813 10.0707)"/>
    </clipPath>
  </defs>
</svg>
