<svg width="24" height="24" viewBox="0 0 24 24" fill="none" xmlns="http://www.w3.org/2000/svg">
  <g clip-path="url(#clip0_72_1789)">
    <path d="M17.813 22.502C17.724 22.549 17.729 22.568 17.818 22.523C17.8441 22.5118 17.8678 22.4959 17.888 22.476C17.888 22.46 17.886 22.462 17.813 22.502ZM17.991 22.408C17.949 22.441 17.949 22.443 18 22.417C18.028 22.403 18.052 22.387 18.052 22.382C18.052 22.363 18.04 22.368 17.991 22.408ZM18.108 22.337C18.066 22.37 18.066 22.372 18.117 22.346C18.145 22.332 18.169 22.316 18.169 22.311C18.169 22.292 18.157 22.297 18.108 22.337ZM18.225 22.267C18.183 22.3 18.183 22.302 18.234 22.276C18.262 22.262 18.286 22.246 18.286 22.241C18.286 22.222 18.274 22.227 18.225 22.267ZM18.387 22.162C18.305 22.214 18.279 22.249 18.352 22.209C18.404 22.179 18.488 22.115 18.474 22.113C18.4434 22.1262 18.4142 22.1426 18.387 22.162ZM11.214 0.00600957C11.162 0.0110096 10.998 0.0270096 10.85 0.0390096C7.44203 0.34601 4.24903 2.18501 2.22703 5.01201C1.10919 6.56366 0.382594 8.3623 0.109027 10.255C0.0130271 10.914 0.00102711 11.109 0.00102711 12.003C0.00102711 12.897 0.0130271 13.091 0.109027 13.751C0.761027 18.257 3.96803 22.043 8.31703 23.446C9.09603 23.697 9.91703 23.868 10.85 23.971C11.214 24.011 12.785 24.011 13.149 23.971C14.76 23.793 16.126 23.394 17.472 22.707C17.678 22.601 17.718 22.573 17.69 22.55C17.0325 21.6813 16.3812 20.8079 15.736 19.93L13.817 17.338L11.413 13.78C10.6137 12.5895 9.8067 11.4041 8.99203 10.224C8.98303 10.222 8.97303 11.803 8.96903 13.733C8.96203 17.113 8.96003 17.249 8.91703 17.329C8.87621 17.4225 8.80308 17.4981 8.71103 17.542C8.63603 17.58 8.57003 17.587 8.21603 17.587H7.81003L7.70203 17.519C7.63539 17.477 7.58119 17.418 7.54503 17.348L7.49603 17.242L7.50103 12.539L7.50803 7.83401L7.58103 7.74301C7.63007 7.68539 7.68899 7.63696 7.75503 7.60001C7.85103 7.55301 7.88903 7.54801 8.29503 7.54801C8.77403 7.54801 8.85303 7.56701 8.97803 7.70301C9.95117 9.15125 10.9162 10.6049 11.873 12.064C13.431 14.426 15.56 17.651 16.607 19.235L18.507 22.113L18.603 22.05C19.5173 21.4419 20.3463 20.7145 21.068 19.887C22.58 18.1567 23.5605 16.0268 23.892 13.753C23.988 13.094 24 12.899 24 12.005C24 11.111 23.988 10.917 23.892 10.257C23.24 5.75101 20.033 1.96501 15.684 0.56201C14.8713 0.303257 14.0343 0.128018 13.186 0.0390096C12.961 0.0160096 11.41 -0.00999043 11.216 0.00900957L11.214 0.00600957ZM16.126 7.26401C16.182 7.29212 16.2317 7.33109 16.2724 7.37865C16.3131 7.42621 16.3439 7.48141 16.363 7.54101C16.382 7.60201 16.386 8.90601 16.382 11.845L16.375 16.063L15.631 14.923L14.885 13.783V10.717C14.885 8.73501 14.894 7.62101 14.908 7.56701C14.925 7.50469 14.9543 7.44639 14.9941 7.39555C15.0339 7.34472 15.0836 7.30237 15.14 7.27101C15.236 7.22201 15.271 7.21701 15.64 7.21701C15.987 7.21701 16.048 7.22201 16.126 7.26401Z" fill="currentColor"/>
  </g>
  <defs>
    <clipPath id="clip0_72_1789">
      <rect width="24" height="24" fill="white"/>
    </clipPath>
  </defs>
</svg>
