<svg width="32" height="32" viewBox="0 0 32 32" fill="currentColor" xmlns="http://www.w3.org/2000/svg">
  <g clip-path="url(#clip0_142_353)">
    <path fill-rule="evenodd" clip-rule="evenodd" d="M32.0133 16.0067C32.0133 24.8469 24.8469 32.0133 16.0067 32.0133C7.16643 32.0133 0 24.8469 0 16.0067C0 7.16643 7.16643 0 16.0067 0C24.8469 0 32.0133 7.16643 32.0133 16.0067ZM16.7278 11.3657C15.0307 12.0764 11.6512 13.5413 6.57466 15.746C5.76241 16.0796 5.32728 16.3987 5.28377 16.7178C5.21953 17.2574 5.8949 17.4669 6.80596 17.7497C6.92352 17.7862 7.04501 17.8239 7.16934 17.8637C8.06862 18.1537 9.25798 18.4873 9.88167 18.5019C10.4473 18.5164 11.071 18.2843 11.7673 17.8056C16.5102 14.6002 18.9469 12.9757 19.1065 12.9466C19.2225 12.9176 19.3676 12.8886 19.4691 12.9757C19.5706 13.0627 19.5706 13.2367 19.5561 13.2803C19.4869 13.5686 16.6574 16.1954 15.3698 17.3908C15.038 17.6988 14.8086 17.9117 14.7552 17.9652C14.6191 18.1052 14.4806 18.2378 14.3474 18.3653C13.5149 19.1622 12.8901 19.7602 14.378 20.7355C15.0545 21.1821 15.6001 21.5544 16.1374 21.9209C16.7867 22.3639 17.4239 22.7987 18.2652 23.3463C18.4634 23.4765 18.6532 23.6115 18.8383 23.7432C19.5609 24.2572 20.2129 24.721 21.0211 24.6517C21.4852 24.6082 21.9639 24.1731 22.2104 22.8677C22.7906 19.7927 23.922 13.1062 24.183 10.3504C24.2121 10.1183 24.183 9.81369 24.154 9.66865C24.125 9.5236 24.0815 9.33504 23.9075 9.19C23.6899 9.01595 23.3708 8.98694 23.2258 8.98694C22.5731 9.00144 21.5577 9.34955 16.7278 11.3657Z"/>
  </g>
  <defs>
    <clipPath id="clip0_142_353">
      <rect width="32" height="32" fill="white"/>
    </clipPath>
  </defs>
</svg>
