<svg id="logo" width="83" height="59" viewBox="0 0 83 59" fill="none" xmlns="http://www.w3.org/2000/svg">
  <path fill-rule="evenodd" clip-rule="evenodd" d="M75.1964 29.5C75.1964 41.9264 65.1228 52 52.6964 52C45.7945 52 39.6184 48.8924 35.4911 44H27C32.0642 52.9553 41.6744 59 52.6964 59C68.9888 59 82.1964 45.7924 82.1964 29.5C82.1964 13.2076 68.9888 0 52.6964 0C41.6744 0 32.0642 6.04475 27 15H35.4911C39.6184 10.1076 45.7945 7 52.6964 7C65.1228 7 75.1964 17.0736 75.1964 29.5Z"></path>
  <path fill-rule="evenodd" clip-rule="evenodd" d="M68.6013 19C70.038 21.718 70.9343 24.7656 71.1472 28H9L0 19H68.6013ZM71.1472 31C70.9343 34.2344 70.038 37.282 68.6013 40H21L12 31H71.1472Z"></path>
</svg>
