<svg width="24" height="24" viewBox="0 0 24 24" fill="none" xmlns="http://www.w3.org/2000/svg">
  <rect width="24" height="24" fill="white"/>
  <path fill-rule="evenodd" clip-rule="evenodd" d="M20.3746 12.1224C20.3746 15.1656 17.9076 17.6326 14.8644 17.6326C13.1741 17.6326 11.6616 16.8716 10.6509 15.6735H8.57141C9.81162 17.8666 12.1651 19.3469 14.8644 19.3469C18.8544 19.3469 22.0889 16.1124 22.0889 12.1224C22.0889 8.13246 18.8544 4.89795 14.8644 4.89795C12.1651 4.89795 9.81162 6.3783 8.57141 8.57142H10.6509C11.6616 7.37328 13.1741 6.61224 14.8644 6.61224C17.9076 6.61224 20.3746 9.07924 20.3746 12.1224Z" fill="#FC4600"/>
  <path fill-rule="evenodd" clip-rule="evenodd" d="M18.7595 9.55103C19.1113 10.2167 19.3308 10.963 19.383 11.7551H4.16325L1.95917 9.55103H18.7595ZM19.383 12.4898C19.3308 13.2819 19.1113 14.0282 18.7595 14.6939H7.10203L4.89794 12.4898H19.383Z" fill="#FC4600"/>
</svg>
