<svg width="211" height="213" viewBox="0 0 211 213" version="1.1" xmlns="http://www.w3.org/2000/svg" xmlns:xlink="http://www.w3.org/1999/xlink">
<title>laptop</title>
<desc>Created using Figma</desc>
<g id="Canvas" transform="translate(87 -576)">
<g id="laptop">
<g id="laptop">
<g id="Fill 1">
<use xlink:href="#path0_fill" transform="translate(-69.563 728.888)" fill="#D5D4D5"/>
</g>
<g id="Group 5">
<mask id="mask0_outline" mask-type="alpha">
<g id="Clip 4">
<use xlink:href="#path1_fill" transform="translate(-69.5628 590.122)" fill="#FFFFFF"/>
</g>
</mask>
<g id="Fill 3" mask="url(#mask0_outline)">
<use xlink:href="#path2_fill" transform="translate(-69.5628 590.122)" fill="#5C5C71"/>
</g>
</g>
<mask id="mask1_outline" mask-type="alpha">
<g id="Clip 7">
<use xlink:href="#path3_fill" transform="translate(-97 567.755)" fill="#FFFFFF"/>
</g>
</mask>
<g id="Fill 6" mask="url(#mask1_outline)">
<use xlink:href="#path4_fill" transform="translate(-59.734 600.002)" fill="#56BEEA"/>
</g>
<g id="Fill 8" mask="url(#mask1_outline)">
<use xlink:href="#path5_fill" transform="translate(-69.563 725.009)" fill="#E7E2E3"/>
</g>
<g id="Fill 9" mask="url(#mask1_outline)">
<use xlink:href="#path6_fill" transform="translate(-59.4073 737.829)" fill="#D5D4D5"/>
</g>
<g id="Fill 10" mask="url(#mask1_outline)">
<use xlink:href="#path7_fill" transform="translate(-44.0518 725.009)" fill="#5C5C71"/>
</g>
<g id="Fill 11" mask="url(#mask1_outline)">
<use xlink:href="#path8_fill" transform="translate(-53.8912 742.474)" fill="#5C5C71"/>
</g>
<g id="Fill 12" mask="url(#mask1_outline)">
<use xlink:href="#path9_fill" transform="translate(-40.1397 742.474)" fill="#5C5C71"/>
</g>
<g id="Fill 13" mask="url(#mask1_outline)">
<use xlink:href="#path10_fill" transform="translate(-26.3867 742.474)" fill="#5C5C71"/>
</g>
<g id="Fill 14" mask="url(#mask1_outline)">
<use xlink:href="#path11_fill" transform="translate(-12.6348 742.474)" fill="#5C5C71"/>
</g>
<g id="Fill 15" mask="url(#mask1_outline)">
<use xlink:href="#path10_fill" transform="translate(1.1181 742.474)" fill="#5C5C71"/>
</g>
<g id="Fill 16" mask="url(#mask1_outline)">
<use xlink:href="#path12_fill" transform="translate(14.8711 742.474)" fill="#5C5C71"/>
</g>
<g id="Fill 17" mask="url(#mask1_outline)">
<use xlink:href="#path9_fill" transform="translate(28.623 742.474)" fill="#5C5C71"/>
</g>
<g id="Fill 18" mask="url(#mask1_outline)">
<use xlink:href="#path10_fill" transform="translate(42.376 742.474)" fill="#5C5C71"/>
</g>
<g id="Fill 19" mask="url(#mask1_outline)">
<use xlink:href="#path9_fill" transform="translate(56.1279 742.474)" fill="#5C5C71"/>
</g>
<g id="Fill 20" mask="url(#mask1_outline)">
<use xlink:href="#path10_fill" transform="translate(69.8808 742.474)" fill="#5C5C71"/>
</g>
<g id="Fill 21" mask="url(#mask1_outline)">
<use xlink:href="#path12_fill" transform="translate(83.6338 742.474)" fill="#5C5C71"/>
</g>
<g id="Fill 22" mask="url(#mask1_outline)">
<use xlink:href="#path13_fill" transform="translate(97.3862 742.474)" fill="#5C5C71"/>
</g>
<g id="Fill 23" mask="url(#mask1_outline)">
<use xlink:href="#path14_fill" transform="translate(-53.8912 752.458)" fill="#5C5C71"/>
</g>
<g id="Fill 24" mask="url(#mask1_outline)">
<use xlink:href="#path15_fill" transform="translate(-40.1397 752.458)" fill="#5C5C71"/>
</g>
<g id="Fill 25" mask="url(#mask1_outline)">
<use xlink:href="#path16_fill" transform="translate(-26.3867 752.458)" fill="#5C5C71"/>
</g>
<g id="Fill 26" mask="url(#mask1_outline)">
<use xlink:href="#path17_fill" transform="translate(-12.6348 752.458)" fill="#5C5C71"/>
</g>
<g id="Fill 27" mask="url(#mask1_outline)">
<use xlink:href="#path16_fill" transform="translate(1.1181 752.458)" fill="#5C5C71"/>
</g>
<g id="Fill 28" mask="url(#mask1_outline)">
<use xlink:href="#path18_fill" transform="translate(14.8711 752.458)" fill="#5C5C71"/>
</g>
<g id="Fill 29" mask="url(#mask1_outline)">
<use xlink:href="#path15_fill" transform="translate(28.623 752.458)" fill="#5C5C71"/>
</g>
<g id="Fill 30" mask="url(#mask1_outline)">
<use xlink:href="#path16_fill" transform="translate(42.376 752.458)" fill="#5C5C71"/>
</g>
<g id="Fill 31" mask="url(#mask1_outline)">
<use xlink:href="#path15_fill" transform="translate(56.1279 752.458)" fill="#5C5C71"/>
</g>
<g id="Fill 32" mask="url(#mask1_outline)">
<use xlink:href="#path16_fill" transform="translate(69.8808 752.458)" fill="#5C5C71"/>
</g>
<g id="Fill 33" mask="url(#mask1_outline)">
<use xlink:href="#path18_fill" transform="translate(83.6338 752.458)" fill="#5C5C71"/>
</g>
<g id="Fill 34" mask="url(#mask1_outline)">
<use xlink:href="#path19_fill" transform="translate(97.3862 752.458)" fill="#5C5C71"/>
</g>
<g id="Fill 35" mask="url(#mask1_outline)">
<use xlink:href="#path20_fill" transform="translate(-53.8917 765.513)" fill="#5C5C71"/>
</g>
<g id="Fill 36" mask="url(#mask1_outline)">
<use xlink:href="#path21_fill" transform="translate(-26.3867 765.513)" fill="#5C5C71"/>
</g>
<g id="Fill 37" mask="url(#mask1_outline)">
<use xlink:href="#path22_fill" transform="translate(-12.6348 765.513)" fill="#5C5C71"/>
</g>
<g id="Fill 38" mask="url(#mask1_outline)">
<use xlink:href="#path21_fill" transform="translate(1.1181 765.513)" fill="#5C5C71"/>
</g>
<g id="Fill 39" mask="url(#mask1_outline)">
<use xlink:href="#path23_fill" transform="translate(14.8711 765.513)" fill="#5C5C71"/>
</g>
<g id="Fill 40" mask="url(#mask1_outline)">
<use xlink:href="#path24_fill" transform="translate(28.623 765.513)" fill="#5C5C71"/>
</g>
<g id="Fill 41" mask="url(#mask1_outline)">
<use xlink:href="#path21_fill" transform="translate(42.376 765.513)" fill="#5C5C71"/>
</g>
<g id="Fill 42" mask="url(#mask1_outline)">
<use xlink:href="#path24_fill" transform="translate(56.1279 765.513)" fill="#5C5C71"/>
</g>
<g id="Fill 43" mask="url(#mask1_outline)">
<use xlink:href="#path21_fill" transform="translate(69.8808 765.513)" fill="#5C5C71"/>
</g>
<g id="Fill 44" mask="url(#mask1_outline)">
<use xlink:href="#path25_fill" transform="translate(83.6337 765.513)" fill="#5C5C71"/>
</g>
<g id="Fill 45" mask="url(#mask1_outline)">
<use xlink:href="#path21_fill" transform="translate(-19.5957 778.451)" fill="#5C5C71"/>
</g>
<g id="Fill 46" mask="url(#mask1_outline)">
<use xlink:href="#path24_fill" transform="translate(-5.8438 778.451)" fill="#5C5C71"/>
</g>
<g id="Fill 47" mask="url(#mask1_outline)">
<use xlink:href="#path26_fill" transform="translate(7.9092 778.451)" fill="#5C5C71"/>
</g>
<g id="Fill 48" mask="url(#mask1_outline)">
<use xlink:href="#path27_fill" transform="translate(21.6621 778.451)" fill="#5C5C71"/>
</g>
<g id="Fill 49" mask="url(#mask1_outline)">
<use xlink:href="#path24_fill" transform="translate(35.414 778.451)" fill="#5C5C71"/>
</g>
<g id="Fill 50" mask="url(#mask1_outline)">
<use xlink:href="#path21_fill" transform="translate(49.167 778.451)" fill="#5C5C71"/>
</g>
<g id="Fill 51" mask="url(#mask1_outline)">
<use xlink:href="#path24_fill" transform="translate(62.9531 778.451)" fill="#5C5C71"/>
</g>
<g id="Fill 52" mask="url(#mask1_outline)">
<use xlink:href="#path28_fill" transform="translate(77.4377 778.451)" fill="#5C5C71"/>
</g>
<g id="Fill 53" mask="url(#mask1_outline)">
<use xlink:href="#path29_fill" transform="translate(-53.8914 778.451)" fill="#5C5C71"/>
</g>
<g id="Fill 63" mask="url(#mask1_outline)">
<use xlink:href="#path30_fill" transform="translate(20.3235 633.738)" fill="#FFFFFF"/>
</g>
<g id="Fill 64" mask="url(#mask1_outline)">
<use xlink:href="#path31_fill" transform="translate(17.6646 642.398)" fill="#FFFFFF"/>
</g>
<g id="Fill 65" mask="url(#mask1_outline)">
<use xlink:href="#path32_fill" transform="translate(-9.8857 665.197)" fill="#44AAD4"/>
</g>
<g id="Fill 66" mask="url(#mask1_outline)">
<use xlink:href="#path33_fill" transform="translate(-5.4095 670.489)" fill="#8AD6F7"/>
</g>
<g id="Fill 67" mask="url(#mask1_outline)">
<use xlink:href="#path33_fill" transform="translate(0.954697 670.489)" fill="#8AD6F7"/>
</g>
<g id="Fill 68" mask="url(#mask1_outline)">
<use xlink:href="#path33_fill" transform="translate(7.319 670.489)" fill="#8AD6F7"/>
</g>
<g id="Fill 69" mask="url(#mask1_outline)">
<use xlink:href="#path33_fill" transform="translate(13.6833 670.489)" fill="#8AD6F7"/>
</g>
<g id="Fill 70" mask="url(#mask1_outline)">
<use xlink:href="#path34_fill" transform="translate(20.0485 670.489)" fill="#8AD6F7"/>
</g>
<g id="Fill 71" mask="url(#mask1_outline)">
<use xlink:href="#path34_fill" transform="translate(26.4128 670.489)" fill="#8AD6F7"/>
</g>
<g id="Fill 72" mask="url(#mask1_outline)">
<use xlink:href="#path34_fill" transform="translate(32.777 670.489)" fill="#8AD6F7"/>
</g>
<g id="Fill 73" mask="url(#mask1_outline)">
<use xlink:href="#path35_fill" transform="translate(39.1413 670.489)" fill="#8AD6F7"/>
</g>
<g id="Fill 74" mask="url(#mask1_outline)">
<use xlink:href="#path35_fill" transform="translate(45.5055 670.489)" fill="#8AD6F7"/>
</g>
</g>
<g id="shield">
<g id="Group 3">
<mask id="mask2_outline" mask-type="alpha">
<g id="Clip 2">
<use xlink:href="#path36_fill" transform="translate(-87 576.463)" fill="#FFFFFF"/>
</g>
</mask>
<g id="Fill 1" mask="url(#mask2_outline)">
<use xlink:href="#path37_fill" transform="translate(-87.0001 576.463)" fill="#FFCF5D"/>
</g>
</g>
<g id="Group 6">
<mask id="mask3_outline" mask-type="alpha">
<g id="Clip 5">
<use xlink:href="#path38_fill" transform="translate(-64.8135 576.463)" fill="#FFFFFF"/>
</g>
</mask>
<g id="Fill 4" mask="url(#mask3_outline)">
<use xlink:href="#path39_fill" transform="translate(-64.8135 576.463)" fill="#E9B134"/>
</g>
</g>
<g id="Fill 7">
<use xlink:href="#path40_fill" transform="translate(-78.4004 594.975)" fill="#DB9812"/>
</g>
<g id="Fill 9">
<use xlink:href="#path41_fill" transform="translate(-78.4035 590.553)" fill="#FFFFFF"/>
</g>
</g>
</g>
</g>
<defs>
<path id="path0_fill" fill-rule="evenodd" d="M 193.062 9.24082C 193.062 4.13685 188.83 0 183.609 0L 9.453 0C 4.232 0 0 4.13685 0 9.24082L 0 127.818C 0 132.921 4.232 137.059 9.453 137.059L 183.609 137.059C 188.83 137.059 193.062 132.921 193.062 127.818L 193.062 9.24082Z"/>
<path id="path1_fill" fill-rule="evenodd" d="M 193.062 0L 193.062 134.946L 0 134.946L 0 5.71453e-14L 193.062 5.71453e-14L 193.062 0Z"/>
<path id="path2_fill" fill-rule="evenodd" d="M 185.888 134.946L 7.173 134.946C 3.211 134.946 0 131.717 0 127.735L 0 7.2111C 0 3.22906 3.211 0 7.173 0L 185.888 0C 189.85 0 193.062 3.22906 193.062 7.2111L 193.062 127.735C 193.062 131.717 189.85 134.946 185.888 134.946Z"/>
<path id="path3_fill" fill-rule="evenodd" d="M 0 298.192L 220.499 298.192L 220.499 0L 0 0L 0 298.192Z"/>
<path id="path4_fill" fill-rule="evenodd" d="M 0 115.187L 173.405 115.187L 173.405 0L 0 0L 0 115.187Z"/>
<path id="path5_fill" fill-rule="evenodd" d="M 193.062 9.24082C 193.062 4.13685 188.83 0 183.609 0L 9.453 0C 4.232 0 0 4.13685 0 9.24082L 0 127.818C 0 132.922 4.232 137.059 9.453 137.059L 183.609 137.059C 188.83 137.059 193.062 132.922 193.062 127.818L 193.062 9.24082Z"/>
<path id="path6_fill" fill-rule="evenodd" d="M 0 64.2082L 0 5.27587C 0 2.36148 2.35 0 5.248 0L 167.503 0C 170.401 0 172.751 2.36148 172.751 5.27587L 172.751 64.2082C 172.751 67.1216 170.401 69.4851 167.503 69.4851L 5.248 69.4851C 2.35 69.4851 0 67.1216 0 64.2082Z"/>
<path id="path7_fill" fill-rule="evenodd" d="M 0 0L 0 5.60461C 0 6.815 0.977 7.79719 2.182 7.79719L 139.858 7.79719C 141.062 7.79719 142.04 6.815 142.04 5.60461L 142.04 0L 0 0Z"/>
<path id="path8_fill" fill-rule="evenodd" d="M 9.563 0L 0.877 0C 0.392 0 0 0.395087 0 0.882663L 0 5.56942C 0 6.05599 0.392 6.45108 0.877 6.45108L 9.563 6.45108C 10.048 6.45108 10.441 6.05599 10.441 5.56942L 10.441 0.882663C 10.441 0.395087 10.048 0 9.563 0Z"/>
<path id="path9_fill" fill-rule="evenodd" d="M 9.584 0L 0.859 0C 0.385 0 0 0.404135 0 0.901764L 0 5.54932C 0 6.04795 0.385 6.45108 0.859 6.45108L 9.584 6.45108C 10.058 6.45108 10.442 6.04795 10.442 5.54932L 10.442 0.901764C 10.442 0.404135 10.058 0 9.584 0Z"/>
<path id="path10_fill" fill-rule="evenodd" d="M 9.583 0L 0.858 0C 0.385 0 0 0.404135 0 0.901764L 0 5.54932C 0 6.04795 0.385 6.45108 0.858 6.45108L 9.583 6.45108C 10.058 6.45108 10.442 6.04795 10.442 5.54932L 10.442 0.901764C 10.442 0.404135 10.058 0 9.583 0Z"/>
<path id="path11_fill" fill-rule="evenodd" d="M 9.584 0L 0.859 0C 0.385 0 0 0.404135 0 0.901764L 0 5.54932C 0 6.04795 0.385 6.45108 0.859 6.45108L 9.584 6.45108C 10.059 6.45108 10.442 6.04795 10.442 5.54932L 10.442 0.901764C 10.442 0.404135 10.059 0 9.584 0Z"/>
<path id="path12_fill" fill-rule="evenodd" d="M 9.583 0L 0.858 0C 0.384 0 0 0.404135 0 0.901764L 0 5.54932C 0 6.04795 0.384 6.45108 0.858 6.45108L 9.583 6.45108C 10.058 6.45108 10.441 6.04795 10.441 5.54932L 10.441 0.901764C 10.441 0.404135 10.058 0 9.583 0Z"/>
<path id="path13_fill" fill-rule="evenodd" d="M 9.564 0L 0.877 0C 0.393 0 0 0.395087 0 0.882663L 0 5.56942C 0 6.05599 0.393 6.45108 0.877 6.45108L 9.564 6.45108C 10.049 6.45108 10.442 6.05599 10.442 5.56942L 10.442 0.882663C 10.442 0.395087 10.049 0 9.564 0Z"/>
<path id="path14_fill" fill-rule="evenodd" d="M 9.563 0L 0.877 0C 0.392 0 0 0.395087 0 0.882663L 0 8.54917C 0 9.03775 0.392 9.43183 0.877 9.43183L 9.563 9.43183C 10.048 9.43183 10.441 9.03775 10.441 8.54917L 10.441 0.882663C 10.441 0.395087 10.048 0 9.563 0Z"/>
<path id="path15_fill" fill-rule="evenodd" d="M 9.584 0L 0.859 0C 0.385 0 0 0.404135 0 0.901764L 0 8.53006C 0 9.0287 0.385 9.43183 0.859 9.43183L 9.584 9.43183C 10.058 9.43183 10.442 9.0287 10.442 8.53006L 10.442 0.901764C 10.442 0.404135 10.058 0 9.584 0Z"/>
<path id="path16_fill" fill-rule="evenodd" d="M 9.583 0L 0.858 0C 0.385 0 0 0.404135 0 0.901764L 0 8.53006C 0 9.0287 0.385 9.43183 0.858 9.43183L 9.583 9.43183C 10.058 9.43183 10.442 9.0287 10.442 8.53006L 10.442 0.901764C 10.442 0.404135 10.058 0 9.583 0Z"/>
<path id="path17_fill" fill-rule="evenodd" d="M 9.584 0L 0.859 0C 0.385 0 0 0.404135 0 0.901764L 0 8.53006C 0 9.0287 0.385 9.43183 0.859 9.43183L 9.584 9.43183C 10.059 9.43183 10.442 9.0287 10.442 8.53006L 10.442 0.901764C 10.442 0.404135 10.059 0 9.584 0Z"/>
<path id="path18_fill" fill-rule="evenodd" d="M 9.583 0L 0.858 0C 0.384 0 0 0.404135 0 0.901764L 0 8.53006C 0 9.0287 0.384 9.43183 0.858 9.43183L 9.583 9.43183C 10.058 9.43183 10.441 9.0287 10.441 8.53006L 10.441 0.901764C 10.441 0.404135 10.058 0 9.583 0Z"/>
<path id="path19_fill" fill-rule="evenodd" d="M 9.564 0L 0.877 0C 0.393 0 0 0.395087 0 0.882663L 0 8.54917C 0 9.03775 0.393 9.43183 0.877 9.43183L 9.564 9.43183C 10.049 9.43183 10.442 9.03775 10.442 8.54917L 10.442 0.882663C 10.442 0.395087 10.049 0 9.564 0Z"/>
<path id="path20_fill" fill-rule="evenodd" d="M 23.336 0L 9.583 0L 8.383 0L 0.858 0C 0.384 0 0 0.404135 0 0.901764L 0 8.53006C 0 9.0287 0.384 9.43283 0.858 9.43283L 8.383 9.43283L 9.583 9.43283L 23.336 9.43283C 23.81 9.43283 24.194 9.0287 24.194 8.53006L 24.194 0.901764C 24.194 0.404135 23.81 0 23.336 0Z"/>
<path id="path21_fill" fill-rule="evenodd" d="M 9.583 0L 0.858 0C 0.385 0 0 0.404135 0 0.901764L 0 8.53006C 0 9.0287 0.385 9.43283 0.858 9.43283L 9.583 9.43283C 10.058 9.43283 10.442 9.0287 10.442 8.53006L 10.442 0.901764C 10.442 0.404135 10.058 0 9.583 0Z"/>
<path id="path22_fill" fill-rule="evenodd" d="M 9.584 0L 0.859 0C 0.385 0 0 0.404135 0 0.901764L 0 8.53006C 0 9.0287 0.385 9.43283 0.859 9.43283L 9.584 9.43283C 10.059 9.43283 10.442 9.0287 10.442 8.53006L 10.442 0.901764C 10.442 0.404135 10.059 0 9.584 0Z"/>
<path id="path23_fill" fill-rule="evenodd" d="M 9.583 0L 0.858 0C 0.384 0 0 0.404135 0 0.901764L 0 8.53006C 0 9.0287 0.384 9.43283 0.858 9.43283L 9.583 9.43283C 10.058 9.43283 10.441 9.0287 10.441 8.53006L 10.441 0.901764C 10.441 0.404135 10.058 0 9.583 0Z"/>
<path id="path24_fill" fill-rule="evenodd" d="M 9.584 0L 0.859 0C 0.385 0 0 0.404135 0 0.901764L 0 8.53006C 0 9.0287 0.385 9.43283 0.859 9.43283L 9.584 9.43283C 10.058 9.43283 10.442 9.0287 10.442 8.53006L 10.442 0.901764C 10.442 0.404135 10.058 0 9.584 0Z"/>
<path id="path25_fill" fill-rule="evenodd" d="M 23.336 0L 9.583 0L 7.181 0L 0.858 0C 0.384 0 0 0.404135 0 0.901764L 0 8.53006C 0 9.0287 0.384 9.43283 0.858 9.43283L 7.181 9.43283L 9.583 9.43283L 23.336 9.43283C 23.81 9.43283 24.194 9.0287 24.194 8.53006L 24.194 0.901764C 24.194 0.404135 23.81 0 23.336 0Z"/>
<path id="path26_fill" fill-rule="evenodd" d="M 9.583 0L 0.859 0C 0.385 0 0 0.404135 0 0.901764L 0 8.53006C 0 9.0287 0.385 9.43283 0.859 9.43283L 9.583 9.43283C 10.058 9.43283 10.442 9.0287 10.442 8.53006L 10.442 0.901764C 10.442 0.404135 10.058 0 9.583 0Z"/>
<path id="path27_fill" fill-rule="evenodd" d="M 9.583 0L 0.858 0C 0.384 0 0 0.404135 0 0.901764L 0 8.53006C 0 9.0287 0.384 9.43283 0.858 9.43283L 9.583 9.43283C 10.058 9.43283 10.442 9.0287 10.442 8.53006L 10.442 0.901764C 10.442 0.404135 10.058 0 9.583 0Z"/>
<path id="path28_fill" fill-rule="evenodd" d="M 29.532 0L 0.714 0C 0.319 0 0 0.335774 0 0.748957L 0 8.68388C 0 9.09706 0.319 9.43283 0.714 9.43283L 29.532 9.43283C 30.006 9.43283 30.39 9.0287 30.39 8.53006L 30.39 0.901764C 30.39 0.404135 30.006 0 29.532 0Z"/>
<path id="path29_fill" fill-rule="evenodd" d="M 29.531 0L 0.713 0C 0.319 0 0 0.335774 0 0.748957L 0 8.68388C 0 9.09706 0.319 9.43283 0.713 9.43283L 29.531 9.43283C 30.006 9.43283 30.389 9.0287 30.389 8.53006L 30.389 0.901764C 30.389 0.404135 30.006 0 29.531 0Z"/>
<path id="path30_fill" fill-rule="evenodd" d="M 2.362 7.47147L 2.362 3.68447C 2.362 2.96265 2.947 2.37454 3.665 2.37454L 9.624 2.37454C 10.342 2.37454 10.926 2.96265 10.926 3.68447L 10.926 7.47147L 13.29 7.47147L 13.29 3.68447C 13.29 1.64972 11.648 0 9.624 0L 3.665 0C 1.64 0 0 1.64972 0 3.68447L 0 7.47147L 2.362 7.47147Z"/>
<path id="path31_fill" fill-rule="evenodd" d="M 10.934 11.5782L 7.673 11.5782L 8.164 7.04823C 7.575 6.66922 7.18 6.00773 7.18 5.25174C 7.18 4.07251 8.131 3.11646 9.303 3.11646C 10.476 3.11646 11.426 4.07251 11.426 5.25174C 11.426 6.00773 11.033 6.66922 10.442 7.04823L 10.934 11.5782ZM 0 0L 0 12.4689C 0 14.2513 1.438 15.6959 3.21 15.6959L 15.397 15.6959C 17.169 15.6959 18.606 14.2513 18.606 12.4689L 18.606 0L 0 0Z"/>
<path id="path32_fill" fill-rule="evenodd" d="M 73.288 0L 0.419 0C 0.187 0 0 0.188998 0 0.421225L 0 13.3938C 0 13.627 0.187 13.815 0.419 13.815L 73.288 13.815C 73.519 13.815 73.708 13.627 73.708 13.3938L 73.708 0.421225C 73.708 0.188998 73.519 0 73.288 0Z"/>
<path id="path33_fill" fill-rule="evenodd" d="M 3.805 1.9121C 3.805 2.96768 2.953 3.8242 1.903 3.8242C 0.852 3.8242 0 2.96768 0 1.9121C 0 0.85552 0.852 0 1.903 0C 2.953 0 3.805 0.85552 3.805 1.9121Z"/>
<path id="path34_fill" fill-rule="evenodd" d="M 3.804 1.9121C 3.804 2.96768 2.952 3.8242 1.902 3.8242C 0.852 3.8242 0 2.96768 0 1.9121C 0 0.85552 0.852 0 1.902 0C 2.952 0 3.804 0.85552 3.804 1.9121Z"/>
<path id="path35_fill" fill-rule="evenodd" d="M 3.804 1.9121C 3.804 2.96768 2.952 3.8242 1.903 3.8242C 0.852 3.8242 0 2.96768 0 1.9121C 0 0.85552 0.852 0 1.903 0C 2.952 0 3.804 0.85552 3.804 1.9121Z"/>
<path id="path36_fill" fill-rule="evenodd" d="M 8.96858e-21 0L 8.96858e-21 54.2416L 44.3679 54.2416L 44.3679 0L 8.96858e-21 0Z"/>
<path id="path37_fill" fill-rule="evenodd" d="M 44.368 7.13911L 44.368 31.501C 44.368 38.4645 37.5558 44.6981 31.4755 48.8721C 26.6923 52.1612 22.3657 54.167 22.1903 54.2416L 22.1843 54.2416C 22.1843 54.2416 0 43.955 0 31.501L 0 7.13911L 22.1903 0L 44.368 7.13911Z"/>
<path id="path38_fill" fill-rule="evenodd" d="M 22.1835 54.2436L 22.1835 0L 0 9.45419e-15L 0 54.2436L 22.1835 54.2436Z"/>
<path id="path39_fill" fill-rule="evenodd" d="M 0.00330882 0L 0 0.000665279L 0 54.2436L 0.00330882 54.2436C 0.391103 54.0806 22.1843 43.9523 22.1843 31.4996L 22.1843 7.13645L 0.00330882 0Z"/>
<path id="path40_fill" fill-rule="evenodd" d="M 35.7684 6.01146L 35.7684 12.9882C 35.7684 19.9517 28.9562 26.1854 22.8759 30.3594L 0 6.78119L 14.5383 12.0562L 29.7893 0L 35.7684 6.01146Z"/>
<path id="path41_fill" fill-rule="evenodd" d="M 0 11.2053L 11.2963 22.8124L 29.7907 4.42145L 24.9922 0L 11.4962 13.6675L 4.1989 7.23558L 0 11.2053Z"/>
</defs>
</svg>
