<svg width="15" height="15" viewBox="0 0 15 15" version="1.1" xmlns="http://www.w3.org/2000/svg" xmlns:xlink="http://www.w3.org/1999/xlink">
<title>ic_comments</title>
<desc>Created using Figma</desc>
<g id="Canvas" transform="translate(-503 -332)">
<g id="ic_comments">
<g id="Page 1">
<use xlink:href="#path0_stroke" transform="translate(504 332.675)" fill="#657786"/>
</g>
</g>
</g>
<defs>
<path id="path0_stroke" d="M 12.7966 3.00241L 13.2413 2.77379L 13.2413 2.77376L 12.7966 3.00241ZM 0.000849958 5.08588L -0.499073 5.0771L -0.499073 5.07711L 0.000849958 5.08588ZM 5.36492 10.3665L 5.86492 10.3665L 5.86492 9.86652L 5.36492 9.86652L 5.36492 10.3665ZM 5.58045 13.3114L 5.78899 13.7658L 5.78954 13.7655L 5.58045 13.3114ZM 13.2413 2.77376C 12.1843 0.71833 10.0685 -0.5 7.83811 -0.5L 7.83811 0.5C 9.70842 0.5 11.473 1.52167 12.3519 3.23105L 13.2413 2.77376ZM 7.83811 -0.5L 5.14247 -0.5L 5.14247 0.5L 7.83811 0.5L 7.83811 -0.5ZM 5.14247 -0.5C 2.13197 -0.5 -0.444133 1.94858 -0.499073 5.0771L 0.500773 5.09466C 0.546039 2.51702 2.67186 0.5 5.14247 0.5L 5.14247 -0.5ZM -0.499073 5.07711C -0.554602 8.24437 1.8991 10.8665 4.97748 10.8665L 4.97748 9.86652C 2.49613 9.86652 0.454368 7.74149 0.500773 5.09464L -0.499073 5.07711ZM 4.97748 10.8665L 5.36492 10.8665L 5.36492 9.86652L 4.97748 9.86652L 4.97748 10.8665ZM 4.86492 10.3665L 4.86492 13.1643L 5.86492 13.1643L 5.86492 10.3665L 4.86492 10.3665ZM 4.86492 13.1643C 4.86492 13.6084 5.32342 13.9794 5.78899 13.7658L 5.3719 12.8569C 5.63361 12.7368 5.86492 12.9522 5.86492 13.1643L 4.86492 13.1643ZM 5.78954 13.7655C 6.53492 13.4223 9.10335 12.1608 11.1273 10.3009C 12.1371 9.36754 13.0572 8.21718 13.5217 6.97632C 13.9972 5.6864 14.0059 4.261 13.2413 2.77379L 12.3519 3.23103C 12.9803 4.45319 12.9685 5.5859 12.5834 6.63044C 12.1873 7.72404 11.4068 8.68448 10.4493 9.56585C 8.53878 11.3354 6.10618 12.5189 5.37135 12.8572L 5.78954 13.7655Z"/>
</defs>
</svg>
