<svg width="19" height="13" viewBox="0 0 19 13" version="1.1" xmlns="http://www.w3.org/2000/svg" xmlns:xlink="http://www.w3.org/1999/xlink">
<title>ic_find_ppl</title>
<desc>Created using Figma</desc>
<g id="Canvas" transform="translate(-1043 -352)">
<g id="ic_find_ppl">
<g id="Stroke 1">
<use xlink:href="#path0_stroke" transform="translate(1046.52 353.201)" fill="#1B95E0"/>
</g>
<g id="Stroke 3">
<use xlink:href="#path0_stroke" transform="translate(1053.37 353.201)" fill="#1B95E0"/>
</g>
<g id="Stroke 5">
<use xlink:href="#path1_stroke" transform="translate(1044.2 360.383)" fill="#1B95E0"/>
</g>
<g id="Stroke 7">
<use xlink:href="#path2_stroke" transform="translate(1052.48 360.384)" fill="#1B95E0"/>
</g>
</g>
</g>
<defs>
<path id="path0_stroke" d="M 4.55407 3.13153C 4.55407 4.25119 3.64669 5.15857 2.52703 5.15857L 2.52703 6.15857C 4.19898 6.15857 5.55407 4.80348 5.55407 3.13153L 4.55407 3.13153ZM 2.52703 5.15857C 1.40738 5.15857 0.5 4.25119 0.5 3.13153L -0.5 3.13153C -0.5 4.80348 0.85509 6.15857 2.52703 6.15857L 2.52703 5.15857ZM 0.5 3.13153C 0.5 2.55555 0.73896 1.87604 1.13978 1.34275C 1.5438 0.80522 2.04413 0.5 2.52703 0.5L 2.52703 -0.5C 1.61414 -0.5 0.850954 0.0626467 0.3404 0.741931C -0.173344 1.42546 -0.5 2.31172 -0.5 3.13153L 0.5 3.13153ZM 2.52703 0.5C 3.00994 0.5 3.51027 0.80522 3.91429 1.34275C 4.31511 1.87604 4.55407 2.55555 4.55407 3.13153L 5.55407 3.13153C 5.55407 2.31172 5.22741 1.42546 4.71367 0.741931C 4.20311 0.0626467 3.43993 -0.5 2.52703 -0.5L 2.52703 0.5Z"/>
<path id="path1_stroke" d="M 9.6729 3.47106L 10.147 3.31233L 10.147 3.31213L 9.6729 3.47106ZM 0.0225473 3.47106L -0.451549 3.31222L -0.451588 3.31233L 0.0225473 3.47106ZM 9.26963 4.53628C 9.90942 4.53628 10.346 3.90671 10.147 3.31233L 9.19876 3.6298C 9.18497 3.5886 9.2135 3.53628 9.26963 3.53628L 9.26963 4.53628ZM 10.147 3.31213C 9.40454 1.09762 7.3141 -0.5 4.84772 -0.5L 4.84772 0.5C 6.87101 0.5 8.58875 1.81024 9.19883 3.63L 10.147 3.31213ZM 4.84772 -0.5C 2.38141 -0.5 0.290482 1.09757 -0.451549 3.31222L 0.496643 3.62991C 1.10632 1.81029 2.82438 0.5 4.84772 0.5L 4.84772 -0.5ZM -0.451588 3.31233C -0.650577 3.90671 -0.21397 4.53628 0.425815 4.53628L 0.425815 3.53628C 0.481944 3.53628 0.510473 3.5886 0.496682 3.6298L -0.451588 3.31233ZM 0.425815 4.53628L 9.26963 4.53628L 9.26963 3.53628L 0.425815 3.53628L 0.425815 4.53628Z"/>
<path id="path2_stroke" d="M 8.25375 3.47106L 8.72788 3.31233L 8.72785 3.31222L 8.25375 3.47106ZM 0 1.34529L -0.337966 0.976811L -0.73988 1.34544L -0.33782 1.71391L 0 1.34529ZM 1.397 3.47106L 1.87114 3.31233L 1.87102 3.31199L 1.397 3.47106ZM 8.72785 3.31222C 7.98582 1.09757 5.89488 -0.5 3.42857 -0.5L 3.42857 0.5C 5.45192 0.5 7.16998 1.81029 7.77965 3.62991L 8.72785 3.31222ZM 3.42857 -0.5C 2.00294 -0.489738 0.633622 0.0952573 -0.337966 0.976811L 0.337966 1.71378C 1.17667 0.934958 2.2045 0.489738 3.42857 0.5L 3.42857 -0.5ZM -0.33782 1.71391C 0.250267 2.24829 0.671616 2.86653 0.922985 3.63014L 1.87102 3.31199C 1.5676 2.42244 1.00684 1.59438 0.33782 0.976677L -0.33782 1.71391ZM 0.922869 3.6298C 0.908965 3.58826 0.937561 3.53628 0.993737 3.53628L 0.993737 4.53628C 1.63277 4.53628 2.07024 3.90705 1.87114 3.31233L 0.922869 3.6298ZM 0.993737 4.53628L 7.85048 4.53628L 7.85048 3.53628L 0.993737 3.53628L 0.993737 4.53628ZM 7.85048 4.53628C 8.49027 4.53628 8.92687 3.90672 8.72788 3.31233L 7.77961 3.6298C 7.76582 3.5886 7.79435 3.53628 7.85048 3.53628L 7.85048 4.53628Z"/>
</defs>
</svg>
