<svg width="21" height="19" viewBox="0 0 21 19" version="1.1" xmlns="http://www.w3.org/2000/svg" xmlns:xlink="http://www.w3.org/1999/xlink">
<title>ic_home</title>
<desc>Created using Figma</desc>
<g id="Canvas" transform="translate(-144 782)">
<g id="ic_home">
<g id="ic_home">
<g id="Stroke 1">
<use xlink:href="#path0_stroke" transform="translate(145.335 -780.625)" fill="#66757F"/>
</g>
<g id="Stroke 3">
<use xlink:href="#path1_stroke" transform="translate(147.364 -776.64)" fill="#66757F"/>
</g>
<g id="Stroke 5">
<use xlink:href="#path2_stroke" transform="translate(151.702 -774.869)" fill="#66757F"/>
</g>
</g>
</g>
</g>
<defs>
<path id="path0_stroke" d="M 18.2863 5.54058C 18.5281 5.6738 18.8322 5.58572 18.9654 5.34384C 19.0987 5.10196 19.0106 4.79788 18.7687 4.66465L 18.2863 5.54058ZM 9.26341 0L 9.50464 -0.437961L 9.2634 -0.570832L 9.02217 -0.437953L 9.26341 0ZM -0.24124 4.66466C -0.483115 4.7979 -0.571187 5.10198 -0.437953 5.34386C -0.30472 5.58573 -0.000634656 5.6738 0.24124 5.54057L -0.24124 4.66466ZM 18.7687 4.66465L 9.50464 -0.437961L 9.02218 0.437961L 18.2863 5.54058L 18.7687 4.66465ZM 9.02217 -0.437953L -0.24124 4.66466L 0.24124 5.54057L 9.50465 0.437953L 9.02217 -0.437953Z"/>
<path id="path1_stroke" d="M 14.7557 0.06454C 14.7914 -0.209292 14.5983 -0.460173 14.3244 -0.495817C 14.0506 -0.531462 13.7997 -0.338372 13.7641 -0.06454L 14.7557 0.06454ZM 12.8309 10.9781L 13.3267 11.0427L 13.3267 11.0426L 12.8309 10.9781ZM 1.429 10.9781L 0.933188 11.0426L 0.933202 11.0427L 1.429 10.9781ZM 0.495817 -0.06454C 0.460173 -0.338372 0.209292 -0.531462 -0.06454 -0.495817C -0.338372 -0.460173 -0.531462 -0.209292 -0.495817 0.06454L 0.495817 -0.06454ZM 13.7641 -0.06454L 12.3351 10.9135L 13.3267 11.0426L 14.7557 0.06454L 13.7641 -0.06454ZM 12.3351 10.9134C 12.2508 11.5595 11.6833 12.0597 10.9912 12.0597L 10.9912 13.0597C 12.167 13.0597 13.1751 12.2052 13.3267 11.0427L 12.3351 10.9134ZM 10.9912 12.0597L 3.26936 12.0597L 3.26936 13.0597L 10.9912 13.0597L 10.9912 12.0597ZM 3.26936 12.0597C 2.57706 12.0597 2.00903 11.5593 1.92481 10.9134L 0.933202 11.0427C 1.08481 12.2054 2.09384 13.0597 3.26936 13.0597L 3.26936 12.0597ZM 1.92482 10.9135L 0.495817 -0.06454L -0.495817 0.06454L 0.933188 11.0426L 1.92482 10.9135Z"/>
<path id="path2_stroke" d="M 5.0827 2.72458C 5.0827 3.94161 4.06856 4.94915 2.79101 4.94915L 2.79101 5.94915C 4.59792 5.94915 6.0827 4.51654 6.0827 2.72458L 5.0827 2.72458ZM 2.79101 4.94915C 1.51422 4.94915 0.5 3.94169 0.5 2.72458L -0.5 2.72458C -0.5 4.51646 0.984696 5.94915 2.79101 5.94915L 2.79101 4.94915ZM 0.5 2.72458C 0.5 1.50746 1.51422 0.5 2.79101 0.5L 2.79101 -0.5C 0.984696 -0.5 -0.5 0.93269 -0.5 2.72458L 0.5 2.72458ZM 2.79101 0.5C 4.06856 0.5 5.0827 1.50754 5.0827 2.72458L 6.0827 2.72458C 6.0827 0.932613 4.59792 -0.5 2.79101 -0.5L 2.79101 0.5Z"/>
</defs>
</svg>
