<svg width="15" height="15" viewBox="0 0 15 15" version="1.1" xmlns="http://www.w3.org/2000/svg" xmlns:xlink="http://www.w3.org/1999/xlink">
<title>ic_images_videos</title>
<desc>Created using Figma</desc>
<g id="Canvas" transform="translate(-146 -32)">
<g id="ic_images_videos">
<g id="ic_images_videos">
<g id="Fill 25">
<use xlink:href="#path0_fill" transform="translate(146.18 32.3793)" fill="#657786"/>
</g>
<g id="Fill 28">
<use xlink:href="#path1_fill" transform="translate(149.685 35.6162)" fill="#657786"/>
</g>
</g>
</g>
</g>
<defs>
<path id="path0_fill" fill-rule="evenodd" d="M 10.335 5.57839L 6.87268 9.17786L 5.32715 7.57125L 0.543757 12.5432C 0.542149 12.5164 0.535721 12.4912 0.535721 12.4645L 0.535721 1.82143C 0.535721 1.11268 1.11269 0.535713 1.82144 0.535713L 12.4645 0.535713C 13.1732 0.535713 13.7502 1.11268 13.7502 1.82143L 13.7502 9.12803L 10.335 5.57839ZM 13.7502 12.4645C 13.7502 13.1732 13.1732 13.7502 12.4645 13.7502L 11.272 13.7502L 7.24446 9.56357L 10.335 6.35089L 13.7502 9.90107L 13.7502 12.4645ZM 1.82143 13.7502C 1.71804 13.7502 1.61786 13.7346 1.51982 13.7105C 1.49196 13.7041 1.46571 13.6939 1.43893 13.6854C 1.36875 13.6634 1.30071 13.6361 1.23589 13.6023C 1.20964 13.5889 1.18339 13.5755 1.15821 13.56C 1.08589 13.5161 1.01732 13.4652 0.954643 13.4073C 0.944464 13.3988 0.933214 13.3913 0.923571 13.3821C 0.852321 13.312 0.790178 13.2327 0.736071 13.1464C 0.731786 13.14 0.729107 13.1336 0.725357 13.1271L 5.32714 8.34375L 9.88982 13.0864L 10.5284 13.7502L 1.82143 13.7502ZM 12.4645 0L 1.82143 0C 0.816964 0 0 0.816964 0 1.82143L 0 12.4645C 0 12.6562 0.0380357 12.8379 0.0932143 13.0114L 0.0803571 13.0248L 0.140893 13.1641C 0.143571 13.17 0.14625 13.1759 0.148393 13.1823L 0.151607 13.1888C 0.192321 13.283 0.242143 13.3709 0.296786 13.455C 0.314464 13.4823 0.334821 13.507 0.354107 13.5332C 0.399107 13.5954 0.447321 13.6543 0.499821 13.71C 0.521786 13.7336 0.54375 13.7566 0.567321 13.7791C 0.632143 13.8407 0.700179 13.8975 0.773036 13.9489C 0.786429 13.9586 0.79875 13.9698 0.812143 13.9789C 0.899464 14.0368 0.991607 14.0861 1.0875 14.1284C 1.11482 14.1407 1.14268 14.1498 1.17054 14.16C 1.245 14.1889 1.32107 14.2125 1.39929 14.2312C 1.43089 14.2387 1.46196 14.2468 1.49411 14.2527C 1.60125 14.2725 1.71 14.2859 1.82143 14.2859L 11.0437 14.2859L 11.7868 14.2859L 12.4645 14.2859C 13.4689 14.2859 14.2859 13.4689 14.2859 12.4645L 14.2859 9.68518L 14.2859 1.82143C 14.2859 0.816964 13.4689 0 12.4645 0Z"/>
<path id="path1_fill" fill-rule="evenodd" d="M 1.27019 2.00464C 0.865185 2.00464 0.535721 1.67518 0.535721 1.27018C 0.535721 0.865178 0.865185 0.535713 1.27019 0.535713C 1.67519 0.535713 2.00465 0.865178 2.00465 1.27018C 2.00465 1.67518 1.67519 2.00464 1.27019 2.00464ZM 1.27018 0C 0.569464 0 0 0.569464 0 1.27018C 0 1.97089 0.569464 2.54036 1.27018 2.54036C 1.97089 2.54036 2.54036 1.97089 2.54036 1.27018C 2.54036 0.569464 1.97089 0 1.27018 0Z"/>
</defs>
</svg>
