<svg width="16" height="15" viewBox="0 0 16 15" version="1.1" xmlns="http://www.w3.org/2000/svg" xmlns:xlink="http://www.w3.org/1999/xlink">
<title>ic_joined</title>
<desc>Created using Figma</desc>
<g id="Canvas" transform="translate(-145 4)">
<g id="ic_joined">
<g id="ic_joined">
<g id="Fill 6">
<use xlink:href="#path0_fill" transform="translate(145.21 -4.00022)" fill="#657786"/>
</g>
<g id="Fill 9">
<use xlink:href="#path1_fill" transform="translate(148.358 -0.1115)" fill="#657786"/>
</g>
<g id="Fill 11">
<use xlink:href="#path1_fill" transform="translate(151.871 -0.1115)" fill="#657786"/>
</g>
<g id="Fill 13">
<use xlink:href="#path1_fill" transform="translate(155.383 -0.1115)" fill="#657786"/>
</g>
<g id="Fill 15">
<use xlink:href="#path1_fill" transform="translate(148.358 3.14022)" fill="#657786"/>
</g>
<g id="Fill 17">
<use xlink:href="#path1_fill" transform="translate(151.871 3.14022)" fill="#657786"/>
</g>
<g id="Fill 19">
<use xlink:href="#path1_fill" transform="translate(155.383 3.14022)" fill="#657786"/>
</g>
<g id="Fill 21">
<use xlink:href="#path1_fill" transform="translate(148.358 6.392)" fill="#657786"/>
</g>
<g id="Fill 23">
<use xlink:href="#path1_fill" transform="translate(151.871 6.392)" fill="#657786"/>
</g>
</g>
</g>
</g>
<defs>
<path id="path0_fill" fill-rule="evenodd" d="M 14.2594 12.9261C 14.2594 13.6611 13.6611 14.2594 12.9261 14.2594L 1.88889 14.2594C 1.15389 14.2594 0.555557 13.6611 0.555557 12.9261L 0.555557 2.70833L 14.2594 2.70833L 14.2594 12.9261ZM 0.555557 1.88889C 0.555557 1.15389 1.15389 0.555556 1.88889 0.555556L 12.9261 0.555556C 13.6611 0.555556 14.2594 1.15389 14.2594 1.88889L 14.2594 2.15278L 0.555557 2.15278L 0.555557 1.88889ZM 12.9261 0L 1.88889 0C 0.847778 0 0 0.847778 0 1.88889L 0 2.70833L 0 12.9261C 0 13.9678 0.847778 14.815 1.88889 14.815L 12.9261 14.815C 13.9678 14.815 14.815 13.9678 14.815 12.9261L 14.815 2.70833L 14.815 1.88889C 14.815 0.847778 13.9678 0 12.9261 0Z"/>
<path id="path1_fill" fill-rule="evenodd" d="M 0.746667 1.49333C 1.15889 1.49333 1.49333 1.15889 1.49333 0.746667C 1.49333 0.334444 1.15889 0 0.746667 0C 0.334444 0 0 0.334444 0 0.746667C 0 1.15889 0.334444 1.49333 0.746667 1.49333Z"/>
</defs>
</svg>
