<svg width="13" height="15" viewBox="0 0 13 15" version="1.1" xmlns="http://www.w3.org/2000/svg" xmlns:xlink="http://www.w3.org/1999/xlink">
<title>ic_location</title>
<desc>Created using Figma</desc>
<g id="Canvas" transform="translate(-146 59)">
<g id="ic_location">
<g id="ic_location">
<g id="Fill 1">
<use xlink:href="#path0_fill" transform="translate(146.457 -59.0001)" fill="#657786"/>
</g>
<g id="Fill 4">
<use xlink:href="#path1_fill" transform="translate(149.81 -55.7361)" fill="#657786"/>
</g>
</g>
</g>
</g>
<defs>
<path id="path0_fill" fill-rule="evenodd" d="M 6.02788 0.555668C 5.95288 0.555668 5.87788 0.556779 5.80288 0.560112C 4.27066 0.620668 2.87733 1.32345 1.87899 2.53956C 0.823437 3.82456 0.367326 5.50567 0.626771 7.15178C 1.22733 10.9657 4.7801 13.4773 5.85455 14.1557C 5.9601 14.2229 6.09122 14.2229 6.19677 14.1557C 7.44344 13.3684 11.5118 10.4551 11.5118 6.04178C 11.5118 4.53511 10.9134 3.13011 9.82677 2.08567C 8.7951 1.09456 7.45344 0.555668 6.02788 0.555668ZM 6.02567 14.7623C 5.864 14.7623 5.70233 14.7168 5.55789 14.6257C 4.43344 13.9151 0.71511 11.2834 0.0778881 7.23789C -0.206001 5.43567 0.293999 3.594 1.44955 2.18678C 2.55011 0.846778 4.08844 0.0717777 5.78122 0.00511108C 7.44178 -0.0621111 9.01622 0.535667 10.2118 1.68567C 11.4084 2.83567 12.0673 4.38289 12.0673 6.04178C 12.0673 10.7396 7.80067 13.7996 6.49344 14.6257C 6.349 14.7168 6.18733 14.7623 6.02567 14.7623Z"/>
<path id="path1_fill" fill-rule="evenodd" d="M 2.67333 0.555557C 1.50555 0.555557 0.554993 1.50556 0.554993 2.67389C 0.554993 3.84167 1.50555 4.79167 2.67333 4.79167C 3.8411 4.79167 4.79166 3.84167 4.79166 2.67389C 4.79166 1.50556 3.8411 0.555557 2.67333 0.555557ZM 2.67333 5.34722C 1.19889 5.34722 0 4.14778 0 2.67389C 0 1.19944 1.19889 0 2.67333 0C 4.14778 0 5.34667 1.19944 5.34667 2.67389C 5.34667 4.14778 4.14778 5.34722 2.67333 5.34722Z"/>
</defs>
</svg>
