<svg width="16" height="15" viewBox="0 0 16 15" version="1.1" xmlns="http://www.w3.org/2000/svg" xmlns:xlink="http://www.w3.org/1999/xlink">
<title>ic_like</title>
<desc>Created using Figma</desc>
<g id="Canvas" transform="translate(-666 -331)">
<g id="ic_like">
<g id="Page 1">
<use xlink:href="#path0_stroke" transform="translate(667 331.732)" fill="#657786"/>
</g>
</g>
</g>
<defs>
<path id="path0_stroke" d="M 7.1367 1.4275L 6.7563 1.752L 7.1367 2.19792L 7.51709 1.752L 7.1367 1.4275ZM 10.2157 -0.5C 8.82913 -0.5 7.59043 0.125187 6.7563 1.103L 7.51709 1.752C 8.17135 0.985038 9.13713 0.5 10.2157 0.5L 10.2157 -0.5ZM 7.51709 1.103C 6.68296 0.125187 5.44426 -0.5 4.05769 -0.5L 4.05769 0.5C 5.13627 0.5 6.10204 0.985038 6.7563 1.752L 7.51709 1.103ZM 4.05769 -0.5C 1.53796 -0.5 -0.5 1.55428 -0.5 4.08171L 0.5 4.08171C 0.5 2.10099 2.0958 0.5 4.05769 0.5L 4.05769 -0.5ZM -0.5 4.08171C -0.5 6.46525 0.53611 8.80399 1.97259 10.5743C 3.39902 12.3322 5.29629 13.6194 7.09612 13.766L 7.17728 12.7693C 5.75711 12.6536 4.08603 11.5918 2.74911 9.94418C 1.42224 8.30898 0.5 6.18586 0.5 4.08171L -0.5 4.08171ZM 7.17728 13.766C 8.9771 13.6194 10.8744 12.3322 12.3008 10.5743C 13.7373 8.80399 14.7734 6.46525 14.7734 4.08171L 13.7734 4.08171C 13.7734 6.18586 12.8512 8.30898 11.5243 9.94418C 10.1874 11.5918 8.51628 12.6536 7.09612 12.7693L 7.17728 13.766ZM 14.7734 4.08171C 14.7734 1.55428 12.7354 -0.5 10.2157 -0.5L 10.2157 0.5C 12.1776 0.5 13.7734 2.10099 13.7734 4.08171L 14.7734 4.08171Z"/>
</defs>
</svg>
