<svg width="13" height="19" viewBox="0 0 13 19" version="1.1" xmlns="http://www.w3.org/2000/svg" xmlns:xlink="http://www.w3.org/1999/xlink">
<title>ic_moments</title>
<desc>Created using Figma</desc>
<g id="Canvas" transform="translate(-240 781)">
<g id="ic_moments">
<g id="ic_moments">
<g id="ic_moments">
<use xlink:href="#path0_stroke" transform="translate(241 -779.681)" fill="#66757F"/>
</g>
</g>
</g>
</g>
<defs>
<path id="path0_stroke" d="M 1.21429 0L 1.21429 -0.5L 0.782267 -0.5L 0.719578 -0.0725538L 1.21429 0ZM 0 8.27961L -0.494708 8.20705L -0.578679 8.77961L 0 8.77961L 0 8.27961ZM 3.13711 8.27961L 3.63387 8.33641L 3.69753 7.77961L 3.13711 7.77961L 3.13711 8.27961ZM 2.32718 15.3631L 1.83042 15.3063L 1.63276 17.035L 2.718 15.675L 2.32718 15.3631ZM 10.3214 5.34468L 10.7123 5.65654L 11.3601 4.84468L 10.3214 4.84468L 10.3214 5.34468ZM 5.56568 5.34468L 5.08016 5.22522L 4.92774 5.84468L 5.56568 5.84468L 5.56568 5.34468ZM 6.88075 0L 7.36627 0.119463L 7.51869 -0.5L 6.88075 -0.5L 6.88075 0ZM 0.719578 -0.0725538L -0.494708 8.20705L 0.494708 8.35216L 1.70899 0.0725538L 0.719578 -0.0725538ZM 0 8.77961L 3.13711 8.77961L 3.13711 7.77961L 0 7.77961L 0 8.77961ZM 2.64034 8.22281L 1.83042 15.3063L 2.82394 15.4199L 3.63387 8.33641L 2.64034 8.22281ZM 2.718 15.675L 10.7123 5.65654L 9.9306 5.03282L 1.93635 15.0513L 2.718 15.675ZM 10.3214 4.84468L 5.56568 4.84468L 5.56568 5.84468L 10.3214 5.84468L 10.3214 4.84468ZM 6.0512 5.46414L 7.36627 0.119463L 6.39523 -0.119463L 5.08016 5.22522L 6.0512 5.46414ZM 6.88075 -0.5L 1.21429 -0.5L 1.21429 0.5L 6.88075 0.5L 6.88075 -0.5Z"/>
</defs>
</svg>
