<svg width="18" height="17" viewBox="0 0 18 17" version="1.1" xmlns="http://www.w3.org/2000/svg" xmlns:xlink="http://www.w3.org/1999/xlink">
<title>messages</title>
<desc>Created using Figma</desc>
<g id="Canvas" transform="translate(-482 781)">
<g id="messages">
<g id="messages">
<g id="Stroke 1">
<use xlink:href="#path0_stroke" transform="translate(483.278 -779.722)" fill="#66757F"/>
</g>
<g id="Stroke 3">
<use xlink:href="#path1_stroke" transform="translate(483.278 -779.722)" fill="#66757F"/>
</g>
</g>
</g>
</g>
<defs>
<path id="path0_stroke" d="M 14.2667 14.1294L 1.56611 14.1294L 1.56611 15.1294L 14.2667 15.1294L 14.2667 14.1294ZM 1.56611 14.1294C 0.977369 14.1294 0.5 13.6523 0.5 13.0628L -0.5 13.0628C -0.5 14.2044 0.424853 15.1294 1.56611 15.1294L 1.56611 14.1294ZM 0.5 13.0628L 0.5 1.56611L -0.5 1.56611L -0.5 13.0628L 0.5 13.0628ZM 0.5 1.56611C 0.5 0.977253 0.977253 0.5 1.56611 0.5L 1.56611 -0.5C 0.424969 -0.5 -0.5 0.424969 -0.5 1.56611L 0.5 1.56611ZM 1.56611 0.5L 14.2667 0.5L 14.2667 -0.5L 1.56611 -0.5L 1.56611 0.5ZM 14.2667 0.5C 14.8558 0.5 15.3333 0.977484 15.3333 1.56611L 16.3333 1.56611C 16.3333 0.424738 15.4076 -0.5 14.2667 -0.5L 14.2667 0.5ZM 15.3333 1.56611L 15.3333 13.0628L 16.3333 13.0628L 16.3333 1.56611L 15.3333 1.56611ZM 15.3333 13.0628C 15.3333 13.6521 14.8556 14.1294 14.2667 14.1294L 14.2667 15.1294C 15.4077 15.1294 16.3333 14.2046 16.3333 13.0628L 15.3333 13.0628Z"/>
<path id="path1_stroke" d="M 0 2.76056L -0.5 2.76056L -0.5 3.01888L -0.289308 3.16836L 0 2.76056ZM 7.31722 7.95167L 7.02791 8.35947L 7.02804 8.35956L 7.31722 7.95167ZM 8.51611 7.95167L 8.80529 8.35956L 8.80542 8.35947L 8.51611 7.95167ZM 15.8333 2.76056L 16.1226 3.16836L 16.3333 3.01888L 16.3333 2.76056L 15.8333 2.76056ZM 16.3333 1.56667C 16.3333 0.42564 15.4085 -0.5 14.2667 -0.5L 14.2667 0.5C 14.856 0.5 15.3333 0.977694 15.3333 1.56667L 16.3333 1.56667ZM 14.2667 -0.5L 1.56667 -0.5L 1.56667 0.5L 14.2667 0.5L 14.2667 -0.5ZM 1.56667 -0.5C 0.424853 -0.5 -0.5 0.42564 -0.5 1.56667L 0.5 1.56667C 0.5 0.977694 0.977369 0.5 1.56667 0.5L 1.56667 -0.5ZM -0.5 1.56667L -0.5 2.76056L 0.5 2.76056L 0.5 1.56667L -0.5 1.56667ZM -0.289308 3.16836L 7.02791 8.35947L 7.60653 7.54387L 0.289308 2.35276L -0.289308 3.16836ZM 7.02804 8.35956C 7.56016 8.73682 8.27318 8.73682 8.80529 8.35956L 8.22693 7.54378C 8.04127 7.67541 7.79207 7.67541 7.60641 7.54378L 7.02804 8.35956ZM 8.80542 8.35947L 16.1226 3.16836L 15.544 2.35276L 8.2268 7.54387L 8.80542 8.35947ZM 16.3333 2.76056L 16.3333 1.56667L 15.3333 1.56667L 15.3333 2.76056L 16.3333 2.76056Z"/>
</defs>
</svg>
