<svg width="18" height="19" viewBox="0 0 18 19" version="1.1" xmlns="http://www.w3.org/2000/svg" xmlns:xlink="http://www.w3.org/1999/xlink">
<title>notifications</title>
<desc>Created using Figma</desc>
<g id="Canvas" transform="translate(-349 782)">
<g id="notifications">
<g id="notifications">
<g id="Stroke 1">
<use xlink:href="#path0_stroke" transform="translate(350.236 -780.764)" fill="#66757F"/>
</g>
<g id="Stroke 3">
<use xlink:href="#path1_stroke" transform="translate(355.1 -767.699)" fill="#66757F"/>
</g>
</g>
</g>
</g>
<defs>
<path id="path0_stroke" d="M 14.5969 11.2531L 15.0225 10.9906L 15.0152 10.9788L 15.0073 10.9675L 14.5969 11.2531ZM 7.81583 0.000972429L 7.80674 0.50089L 7.81583 0.501055L 7.82492 0.50089L 7.81583 0.000972429ZM 1.03425 11.2531L 0.623859 10.9675L 0.615955 10.9788L 0.608691 10.9906L 1.03425 11.2531ZM 0.0156646 12.9044L -0.409893 12.642L -0.410263 12.6426L 0.0156646 12.9044ZM 15.6155 12.9044L 16.0415 12.6426L 16.0411 12.642L 15.6155 12.9044ZM 15.0073 10.9675C 14.4405 10.1631 14.1614 9.27338 14.1671 8.28942L 13.1671 8.28942C 13.1729 9.42479 13.5426 10.6034 14.1866 11.5387L 15.0073 10.9675ZM 14.1671 8.28942L 14.1671 5.74414L 13.1671 5.74414L 13.1671 8.28942L 14.1671 8.28942ZM 14.1671 5.74414C 14.1671 2.25663 11.3084 -0.562592 7.80674 -0.498945L 7.82492 0.50089C 10.7663 0.447426 13.1671 2.81509 13.1671 5.74414L 14.1671 5.74414ZM 7.82492 -0.498945C 4.32335 -0.562591 1.46405 2.25658 1.46405 5.74414L 2.46405 5.74414C 2.46405 2.81514 4.86531 0.447425 7.80674 0.50089L 7.82492 -0.498945ZM 1.46405 5.74414L 1.46405 8.28942L 2.46405 8.28942L 2.46405 5.74414L 1.46405 5.74414ZM 1.46405 8.28942C 1.46982 9.27338 1.19073 10.1631 0.623859 10.9675L 1.44464 11.5387C 2.08855 10.6034 2.45829 9.42479 2.46405 8.28942L 1.46405 8.28942ZM 0.608691 10.9906L -0.409893 12.642L 0.441222 13.1669L 1.45981 11.5156L 0.608691 10.9906ZM -0.410263 12.6426C -0.65765 13.0449 -0.368661 13.565 0.105387 13.565L 0.105387 12.565C 0.415101 12.565 0.603035 12.9038 0.441593 13.1663L -0.410263 12.6426ZM 0.105387 13.565L 7.81583 13.565L 7.81583 12.565L 0.105387 12.565L 0.105387 13.565ZM 7.81583 13.565L 15.5258 13.565L 15.5258 12.565L 7.81583 12.565L 7.81583 13.565ZM 15.5258 13.565C 15.9999 13.565 16.2888 13.0449 16.0415 12.6426L 15.1896 13.1663C 15.0282 12.9038 15.2161 12.565 15.5258 12.565L 15.5258 13.565ZM 16.0411 12.642L 15.0225 10.9906L 14.1714 11.5156L 15.19 13.1669L 16.0411 12.642Z"/>
<path id="path1_stroke" d="M 0.0406111 0L 0.0406111 -0.5L -0.385332 -0.5L -0.453033 -0.0794721L 0.0406111 0ZM 5.86217 0L 6.35581 -0.0794721L 6.28811 -0.5L 5.86217 -0.5L 5.86217 0ZM 2.95139 -0.5L 0.0406111 -0.5L 0.0406111 0.5L 2.95139 0.5L 2.95139 -0.5ZM -0.453033 -0.0794721C -0.479631 0.0869892 -0.499333 0.281606 -0.5 0.466556L 0.5 0.466556C 0.499333 0.333228 0.511742 0.218066 0.534255 0.0794721L -0.453033 -0.0794721ZM -0.5 0.466556C -0.5 2.37281 1.04514 3.91794 2.95139 3.91794L 2.95139 2.91794C 1.59742 2.91794 0.5 1.82052 0.5 0.466556L -0.5 0.466556ZM 2.95139 3.91794C 4.85764 3.91794 6.40278 2.37281 6.40278 0.466556L 5.40278 0.466556C 5.40278 1.82052 4.30536 2.91794 2.95139 2.91794L 2.95139 3.91794ZM 6.40278 0.466556C 6.40211 0.281606 6.38241 0.0869897 6.35581 -0.0794721L 5.36852 0.0794721C 5.39104 0.218066 5.40344 0.333227 5.40278 0.466556L 6.40278 0.466556ZM 5.86217 -0.5L 2.95139 -0.5L 2.95139 0.5L 5.86217 0.5L 5.86217 -0.5Z"/>
</defs>
</svg>
