<svg width="16" height="12" viewBox="0 0 16 12" version="1.1" xmlns="http://www.w3.org/2000/svg" xmlns:xlink="http://www.w3.org/1999/xlink">
<title>ic_retweet-small</title>
<desc>Created using Figma</desc>
<g id="Canvas" transform="translate(-476 -363)">
<g id="ic_retweet-small">
<g id="refresh">
<g id="Stroke 1">
<use xlink:href="#path0_stroke" transform="translate(479.087 364.491)" fill="#657786"/>
</g>
<g id="Stroke 3">
<use xlink:href="#path1_stroke" transform="translate(477 364.207)" fill="#657786"/>
</g>
<g id="Stroke 5">
<use xlink:href="#path2_stroke" transform="translate(482.668 364.207)" fill="#657786"/>
</g>
<g id="Stroke 7">
<use xlink:href="#path3_stroke" transform="translate(486.241 371.465)" fill="#657786"/>
</g>
</g>
</g>
</g>
<defs>
<path id="path0_stroke" d="M 5.66 9.561C 5.93614 9.561 6.16 9.33714 6.16 9.061C 6.16 8.78486 5.93614 8.561 5.66 8.561L 5.66 9.561ZM 0.5 0C 0.5 -0.276142 0.276142 -0.5 0 -0.5C -0.276142 -0.5 -0.5 -0.276142 -0.5 0L 0.5 0ZM 5.66 8.561L 2.5375 8.561L 2.5375 9.561L 5.66 9.561L 5.66 8.561ZM 2.5375 8.561C 1.41214 8.561 0.5 7.64886 0.5 6.5235L -0.5 6.5235C -0.5 8.20114 0.859858 9.561 2.5375 9.561L 2.5375 8.561ZM 0.5 6.5235L 0.5 0L -0.5 0L -0.5 6.5235L 0.5 6.5235Z"/>
<path id="path1_stroke" d="M -0.353553 1.73345C -0.548816 1.92871 -0.548816 2.24529 -0.353553 2.44055C -0.158291 2.63582 0.158291 2.63582 0.353553 2.44055L -0.353553 1.73345ZM 2.087 0L 2.44055 -0.353553L 2.087 -0.707107L 1.73345 -0.353553L 2.087 0ZM 3.82045 2.44055C 4.01571 2.63582 4.33229 2.63582 4.52755 2.44055C 4.72282 2.24529 4.72282 1.92871 4.52755 1.73345L 3.82045 2.44055ZM 0.353553 2.44055L 2.44055 0.353553L 1.73345 -0.353553L -0.353553 1.73345L 0.353553 2.44055ZM 1.73345 0.353553L 3.82045 2.44055L 4.52755 1.73345L 2.44055 -0.353553L 1.73345 0.353553Z"/>
<path id="path2_stroke" d="M 0 -0.5C -0.276142 -0.5 -0.5 -0.276142 -0.5 0C -0.5 0.276142 -0.276142 0.5 0 0.5L 0 -0.5ZM 5.16 9.061C 5.16 9.33714 5.38386 9.561 5.66 9.561C 5.93614 9.561 6.16 9.33714 6.16 9.061L 5.16 9.061ZM 0 0.5L 3.1225 0.5L 3.1225 -0.5L 0 -0.5L 0 0.5ZM 3.1225 0.5C 4.24786 0.5 5.16 1.41214 5.16 2.5375L 6.16 2.5375C 6.16 0.859858 4.80014 -0.5 3.1225 -0.5L 3.1225 0.5ZM 5.16 2.5375L 5.16 9.061L 6.16 9.061L 6.16 2.5375L 5.16 2.5375Z"/>
<path id="path3_stroke" d="M 4.52755 0.353553C 4.72282 0.158291 4.72282 -0.158291 4.52755 -0.353553C 4.33229 -0.548816 4.01571 -0.548816 3.82045 -0.353553L 4.52755 0.353553ZM 2.087 2.087L 1.73345 2.44055L 2.087 2.79411L 2.44055 2.44055L 2.087 2.087ZM 0.353553 -0.353553C 0.158291 -0.548816 -0.158291 -0.548816 -0.353553 -0.353553C -0.548816 -0.158291 -0.548816 0.158291 -0.353553 0.353553L 0.353553 -0.353553ZM 3.82045 -0.353553L 1.73345 1.73345L 2.44055 2.44055L 4.52755 0.353553L 3.82045 -0.353553ZM 2.44055 1.73345L 0.353553 -0.353553L -0.353553 0.353553L 1.73345 2.44055L 2.44055 1.73345Z"/>
</defs>
</svg>
