<svg width="19" height="14" viewBox="0 0 19 14" version="1.1" xmlns="http://www.w3.org/2000/svg" xmlns:xlink="http://www.w3.org/1999/xlink">
<title>ic_retweet</title>
<desc>Created using Figma</desc>
<g id="Canvas" transform="translate(-579 -332)">
<g id="ic_retweet">
<g id="Page 1">
<g id="Stroke 1">
<use xlink:href="#path0_stroke" transform="translate(583.014 333.39)" fill="#657786"/>
</g>
<g id="Stroke 3">
<use xlink:href="#path1_stroke" transform="translate(580.36 333.029)" fill="#657786"/>
</g>
<g id="Stroke 5">
<use xlink:href="#path2_stroke" transform="translate(587.566 333.029)" fill="#657786"/>
</g>
<g id="Stroke 7">
<use xlink:href="#path3_stroke" transform="translate(592.109 342.257)" fill="#657786"/>
</g>
</g>
</g>
</g>
<defs>
<path id="path0_stroke" d="M 7.19616 12.02C 7.4723 12.02 7.69616 11.7961 7.69616 11.52C 7.69616 11.2439 7.4723 11.02 7.19616 11.02L 7.19616 12.02ZM 0.5 0C 0.5 -0.276142 0.276142 -0.5 0 -0.5C -0.276142 -0.5 -0.5 -0.276142 -0.5 0L 0.5 0ZM 7.19616 11.02L 3.22656 11.02L 3.22656 12.02L 7.19616 12.02L 7.19616 11.02ZM 3.22656 11.02C 1.72046 11.02 0.5 9.79954 0.5 8.29344L -0.5 8.29344C -0.5 10.3518 1.16818 12.02 3.22656 12.02L 3.22656 11.02ZM 0.5 8.29344L 0.5 0L -0.5 0L -0.5 8.29344L 0.5 8.29344Z"/>
<path id="path1_stroke" d="M -0.353553 2.29989C -0.548816 2.49515 -0.548816 2.81173 -0.353553 3.00699C -0.158291 3.20226 0.158291 3.20226 0.353553 3.00699L -0.353553 2.29989ZM 2.65344 0L 3.00699 -0.353553L 2.65344 -0.707107L 2.29989 -0.353553L 2.65344 0ZM 4.95333 3.00699C 5.14859 3.20226 5.46517 3.20226 5.66043 3.00699C 5.8557 2.81173 5.8557 2.49515 5.66043 2.29989L 4.95333 3.00699ZM 0.353553 3.00699L 3.00699 0.353553L 2.29989 -0.353553L -0.353553 2.29989L 0.353553 3.00699ZM 2.29989 0.353553L 4.95333 3.00699L 5.66043 2.29989L 3.00699 -0.353553L 2.29989 0.353553Z"/>
<path id="path2_stroke" d="M 0 -0.5C -0.276142 -0.5 -0.5 -0.276142 -0.5 0C -0.5 0.276142 -0.276142 0.5 0 0.5L 0 -0.5ZM 6.69616 11.52C 6.69616 11.7961 6.92002 12.02 7.19616 12.02C 7.4723 12.02 7.69616 11.7961 7.69616 11.52L 6.69616 11.52ZM 0 0.5L 3.9696 0.5L 3.9696 -0.5L 0 -0.5L 0 0.5ZM 3.9696 0.5C 5.4757 0.5 6.69616 1.72046 6.69616 3.22656L 7.69616 3.22656C 7.69616 1.16818 6.02798 -0.5 3.9696 -0.5L 3.9696 0.5ZM 6.69616 3.22656L 6.69616 11.52L 7.69616 11.52L 7.69616 3.22656L 6.69616 3.22656Z"/>
<path id="path3_stroke" d="M 5.66043 0.353553C 5.8557 0.158291 5.8557 -0.158291 5.66043 -0.353553C 5.46517 -0.548816 5.14859 -0.548816 4.95333 -0.353553L 5.66043 0.353553ZM 2.65344 2.65344L 2.29989 3.00699L 2.65344 3.36055L 3.00699 3.00699L 2.65344 2.65344ZM 0.353553 -0.353553C 0.158291 -0.548816 -0.158291 -0.548816 -0.353553 -0.353553C -0.548816 -0.158291 -0.548816 0.158291 -0.353553 0.353553L 0.353553 -0.353553ZM 4.95333 -0.353553L 2.29989 2.29989L 3.00699 3.00699L 5.66043 0.353553L 4.95333 -0.353553ZM 3.00699 2.29989L 0.353553 -0.353553L -0.353553 0.353553L 2.29989 3.00699L 3.00699 2.29989Z"/>
</defs>
</svg>
