<svg width="17" height="18" viewBox="0 0 17 18" version="1.1" xmlns="http://www.w3.org/2000/svg" xmlns:xlink="http://www.w3.org/1999/xlink">
<title>ic_search</title>
<desc>Created using Figma</desc>
<g id="Canvas" transform="translate(-1154 782)">
<g id="ic_search">
<g id="ic_search">
<g id="Stroke 1">
<use xlink:href="#path0_stroke" transform="translate(1155.27 -780.724)" fill="#66757F"/>
</g>
<g id="Stroke 3">
<use xlink:href="#path1_stroke" transform="translate(1166.45 -768.938)" fill="#66757F"/>
</g>
</g>
</g>
</g>
<defs>
<path id="path0_stroke" d="M 12.7589 6.82759C 12.7589 10.3365 10.0012 13.1552 6.62946 13.1552L 6.62946 14.1552C 10.581 14.1552 13.7589 10.8608 13.7589 6.82759L 12.7589 6.82759ZM 6.62946 13.1552C 3.25778 13.1552 0.5 10.3365 0.5 6.82759L -0.5 6.82759C -0.5 10.8608 2.67794 14.1552 6.62946 14.1552L 6.62946 13.1552ZM 0.5 6.82759C 0.5 3.31871 3.25778 0.5 6.62946 0.5L 6.62946 -0.5C 2.67794 -0.5 -0.5 2.79439 -0.5 6.82759L 0.5 6.82759ZM 6.62946 0.5C 10.0012 0.5 12.7589 3.31871 12.7589 6.82759L 13.7589 6.82759C 13.7589 2.79439 10.581 -0.5 6.62946 -0.5L 6.62946 0.5Z"/>
<path id="path1_stroke" d="M 0.35872 -0.34831C 0.166353 -0.546426 -0.150195 -0.551086 -0.34831 -0.35872C -0.546426 -0.166353 -0.551086 0.150195 -0.35872 0.34831L 0.35872 -0.34831ZM 3.14753 3.95934C 3.3399 4.15746 3.65645 4.16212 3.85456 3.96975C 4.05268 3.77739 4.05734 3.46084 3.86497 3.26272L 3.14753 3.95934ZM -0.35872 0.34831L 3.14753 3.95934L 3.86497 3.26272L 0.35872 -0.34831L -0.35872 0.34831Z"/>
</defs>
</svg>
