<svg width="16" height="15" viewBox="0 0 16 15" version="1.1" xmlns="http://www.w3.org/2000/svg" xmlns:xlink="http://www.w3.org/1999/xlink">
<title>ic_site</title>
<desc>Created using Figma</desc>
<g id="Canvas" transform="translate(-145 31)">
<g id="ic_site">
<g id="ic_site">
<g id="Fill 30">
<use xlink:href="#path0_fill" transform="translate(145 -26.3798)" fill="#657786"/>
</g>
<g id="Fill 32">
<use xlink:href="#path1_fill" transform="translate(150.121 -30.6091)" fill="#657786"/>
</g>
</g>
</g>
</g>
<defs>
<path id="path0_fill" fill-rule="evenodd" d="M 8.83038 7.14173L 6.60288 8.97462C 4.88365 10.3898 2.33365 10.1423 0.918453 8.4225C -0.49674 6.70327 -0.248663 4.15327 1.47057 2.73808L 3.69807 0.905192C 4.07191 0.597115 4.48788 0.366923 4.92057 0.220385C 4.84499 0.447115 4.78961 0.679038 4.75038 0.913269C 4.5098 1.02923 4.27845 1.17462 4.06441 1.35058L 1.83749 3.18346C 0.362876 4.39731 0.150568 6.58154 1.36384 8.05615C 2.57768 9.53077 4.76191 9.7425 6.23653 8.52923L 8.46403 6.69635C 8.67749 6.52038 8.86499 6.32135 9.02538 6.10731C 9.13672 5.97058 9.22499 5.82346 9.30922 5.67173C 9.41365 5.48077 9.49845 5.28462 9.55961 5.07692C 9.61095 4.93038 9.64211 4.7775 9.6698 4.62058C 9.83999 3.66577 9.60403 2.63481 8.93711 1.82365C 8.26961 1.01308 7.30326 0.583269 6.33345 0.566538C 6.40211 0.368654 6.49845 0.177115 6.61384 0C 7.66211 0.0934615 8.66768 0.588462 9.38249 1.45731C 10.0973 2.32615 10.3898 3.40788 10.2802 4.45442C 10.26 4.62058 10.2311 4.78558 10.1913 4.94596C 10.1446 5.17096 10.0748 5.38558 9.9848 5.59385C 9.91961 5.75942 9.83422 5.91923 9.7373 6.07385C 9.51057 6.47019 9.2048 6.83365 8.83038 7.14173Z"/>
<path id="path1_fill" fill-rule="evenodd" d="M 8.83197 7.15518L 6.60448 8.98806C 6.23063 9.29614 5.81467 9.52633 5.38255 9.67287C 5.45755 9.44672 5.51294 9.21422 5.55217 8.97998C 5.79274 8.86402 6.02409 8.71864 6.23813 8.54268L 8.46563 6.70979C 9.93967 5.49652 10.152 3.31172 8.93871 1.8371C 7.72544 0.363062 5.54063 0.150754 4.06601 1.36402L 1.83909 3.19691C 1.62505 3.37287 1.43755 3.57191 1.27774 3.78595C 1.16582 3.92268 1.07755 4.06979 0.993321 4.22152C 0.888898 4.41248 0.80409 4.60922 0.742937 4.81633C 0.691591 4.96287 0.660437 5.11575 0.633321 5.27268C 0.462552 6.22748 0.698514 7.25845 1.36544 8.0696C 2.03294 8.88018 2.99928 9.30999 3.96909 9.32672C 3.90044 9.5246 3.80409 9.71614 3.68871 9.89383C 2.64044 9.79979 1.63486 9.30479 0.920052 8.43595C 0.205244 7.56768 -0.0872556 6.48595 0.0223597 5.43883L 0.111206 4.94729C 0.157937 4.72229 0.227744 4.50768 0.317744 4.29941C 0.382937 4.13383 0.468321 3.97402 0.565244 3.81941C 0.791975 3.42306 1.09774 3.0596 1.47217 2.75152L 3.69967 0.918639C 5.4189 -0.496554 7.9689 -0.249054 9.38409 1.47075C 10.7993 3.18998 10.5512 5.73998 8.83197 7.15518Z"/>
</defs>
</svg>
