<svg width="19" height="15" viewBox="0 0 19 15" version="1.1" xmlns="http://www.w3.org/2000/svg" xmlns:xlink="http://www.w3.org/1999/xlink">
<title>ic_twitter</title>
<desc>Created using Figma</desc>
<g id="Canvas" transform="translate(-715 779)">
<g id="ic_twitter">
<g id="ic_twitter">
<use xlink:href="#path0_fill" transform="translate(715 -779)" fill="#1DA1F2"/>
</g>
</g>
</g>
<defs>
<path id="path0_fill" fill-rule="evenodd" d="M 18.4375 1.79688C 17.9687 2.52605 17.3438 3.17708 16.5625 3.75L 16.5625 4.21875C 16.5625 6.95314 15.5794 9.43358 13.6133 11.6602C 11.6471 13.8867 9.03647 15 5.78125 15C 3.69791 15 1.77084 14.4271 0 13.2812C 0.416669 13.3333 0.716145 13.3594 0.898438 13.3594C 2.64324 13.3594 4.20572 12.8125 5.58594 11.7188C 4.77864 11.6927 4.04948 11.4388 3.39844 10.957C 2.74739 10.4753 2.30469 9.85677 2.07031 9.10156C 2.38281 9.15365 2.61719 9.17969 2.77344 9.17969C 3.03386 9.17969 3.37239 9.1276 3.78906 9.02344C 2.92968 8.84114 2.20703 8.40495 1.62109 7.71484C 1.03515 7.02474 0.742188 6.22396 0.742188 5.3125L 0.742188 5.27344C 1.31511 5.58594 1.88802 5.74219 2.46094 5.74219C 1.34114 5.01302 0.78125 3.95834 0.78125 2.57812C 0.78125 1.92708 0.950519 1.30209 1.28906 0.703125C 3.29428 3.1771 5.8854 4.49219 9.0625 4.64844C 9.01042 4.46615 8.98438 4.17969 8.98438 3.78906C 8.98438 2.72135 9.34896 1.82292 10.0781 1.09375C 10.8073 0.36458 11.7057 0 12.7734 0C 13.8412 0 14.7526 0.403642 15.5078 1.21094C 16.2891 1.08073 17.0963 0.768232 17.9297 0.273438C 17.6693 1.1849 17.1094 1.88802 16.25 2.38281C 17.0573 2.30469 17.7865 2.10938 18.4375 1.79688Z"/>
</defs>
</svg>
