<svg width="56" height="56" viewBox="0 0 56 56" version="1.1" xmlns="http://www.w3.org/2000/svg" xmlns:xlink="http://www.w3.org/1999/xlink">
<title>icon play</title>
<desc>Created using Figma</desc>
<g id="Canvas" transform="translate(-823 -1380)">
<g id="icon play">
<g id="Oval">
<use xlink:href="#path0_fill" transform="translate(823 1380)" fill="#FFFFFF"/>
</g>
<g id="Page 1">
<mask id="mask0_outline" mask-type="alpha">
<g id="Clip 2">
<use xlink:href="#path1_fill" transform="translate(842 1398)" fill="#FFFFFF"/>
</g>
</mask>
<g id="Fill 1" mask="url(#mask0_outline)">
<use xlink:href="#path2_fill" transform="translate(842 1398)" fill="#E9B134"/>
</g>
</g>
</g>
</g>
<defs>
<path id="path0_fill" fill-rule="evenodd" d="M 28 56C 43.464 56 56 43.464 56 28C 56 12.536 43.464 0 28 0C 12.536 0 0 12.536 0 28C 0 43.464 12.536 56 28 56Z"/>
<path id="path1_fill" fill-rule="evenodd" d="M 18.5659 6.38784e-15L 0 6.38784e-15L 0 20.9937L 18.5659 20.9937L 18.5659 0L 18.5659 6.38784e-15Z"/>
<path id="path2_fill" fill-rule="evenodd" d="M 17.5379 9.13105L 2.47231 0.345936C 1.10222 -0.455979 -0.0071573 0.184115 3.47729e-05 1.77176L 0.0773495 19.2107C 0.0845416 20.8056 1.2083 21.4529 2.58379 20.6509L 17.5307 12.0187C 18.9062 11.2257 18.9134 9.93296 17.5379 9.13105"/>
</defs>
</svg>
