<svg width="36" height="36" viewBox="0 0 36 36" version="1.1" xmlns="http://www.w3.org/2000/svg" xmlns:xlink="http://www.w3.org/1999/xlink">
<title>icon play demo</title>
<desc>Created using Figma</desc>
<g id="Canvas" transform="translate(-725 -1687)">
<g id="icon play demo">
<g id="Oval">
<use xlink:href="#path0_fill" transform="translate(725 1687)" fill="#53467B"/>
</g>
<g id="Page 1">
<mask id="mask0_outline" mask-type="alpha">
<g id="Clip 2">
<use xlink:href="#path1_fill" transform="translate(737.214 1698.57)" fill="#FFFFFF"/>
</g>
</mask>
<g id="Fill 1" mask="url(#mask0_outline)">
<use xlink:href="#path2_fill" transform="translate(737.214 1698.57)" fill="#FFFFFF"/>
</g>
</g>
</g>
</g>
<defs>
<path id="path0_fill" fill-rule="evenodd" d="M 18 36C 27.9411 36 36 27.9411 36 18C 36 8.05887 27.9411 0 18 0C 8.05887 0 0 8.05887 0 18C 0 27.9411 8.05887 36 18 36Z"/>
<path id="path1_fill" fill-rule="evenodd" d="M 11.9352 4.10647e-15L 0 4.10647e-15L 0 13.4959L 11.9352 13.4959L 11.9352 0L 11.9352 4.10647e-15Z"/>
<path id="path2_fill" fill-rule="evenodd" d="M 11.2744 5.86996L 1.58934 0.222388C 0.70857 -0.29313 -0.00460112 0.118359 2.2354e-05 1.13899L 0.0497247 12.3498C 0.0543482 13.375 0.776766 13.7911 1.66101 13.2756L 11.2697 7.72628C 12.154 7.21655 12.1586 6.38548 11.2744 5.86996"/>
</defs>
</svg>
