<svg width="24" height="24" viewBox="0 0 24 24" fill="none" xmlns="http://www.w3.org/2000/svg">
  <rect width="24" height="24" fill="white"/>
  <g clip-path="url(#clip0_72_1534)">
    <path d="M19.4801 6.26758C19.9212 6.84419 20.2898 7.47594 20.6018 8.1455L12.1023 14.4866L8.53235 12.218V9.50353L12.0834 11.7533L19.4801 6.26758Z" fill="#21A038"/>
    <path d="M4.90718 12.0321C4.90718 11.9014 4.90718 11.7911 4.92608 11.6603L2.77403 11.5485C2.77403 11.6981 2.75513 11.8651 2.75513 12.0132C2.75513 14.6174 3.80437 16.979 5.49639 18.6899L7.02299 17.146C5.71695 15.8447 4.90718 14.0408 4.90718 12.0321Z" fill="url(#paint0_linear_72_1534)"/>
    <path d="M12.0832 4.77883C12.2124 4.77883 12.3227 4.77883 12.4519 4.79774L12.5622 2.62205C12.4141 2.62205 12.2487 2.60315 12.1022 2.60315C9.52631 2.60315 7.18993 3.66342 5.49634 5.37435L7.02294 6.91827C8.31165 5.59806 10.1139 4.77883 12.0832 4.77883Z" fill="url(#paint1_linear_72_1534)"/>
    <path d="M12.0833 19.2853C11.9541 19.2853 11.8438 19.2853 11.7147 19.2664L11.6044 21.4421C11.7525 21.4421 11.9179 21.461 12.0644 21.461C14.6402 21.461 16.9782 20.4007 18.6702 18.6898L17.1436 17.1459C15.8549 18.485 14.0699 19.2853 12.0833 19.2853Z" fill="url(#paint2_linear_72_1534)"/>
    <path d="M16.1307 6.04389L17.9519 4.68586C16.3512 3.38455 14.3095 2.58423 12.0834 2.58423V4.75991C13.5926 4.77881 14.9901 5.24357 16.1307 6.04389Z" fill="url(#paint3_linear_72_1534)"/>
    <path d="M21.4304 12.0321C21.4304 11.4555 21.3753 10.8978 21.2823 10.3401L19.2768 11.8462C19.2768 11.9013 19.2768 11.977 19.2768 12.0321C19.2768 14.1716 18.3567 16.0873 16.9042 17.4075L18.3567 19.0255C20.2347 17.3146 21.4304 14.8033 21.4304 12.0321Z" fill="#21A038"/>
    <path d="M12.0833 19.2854C9.96746 19.2854 8.07221 18.3559 6.76617 16.886L5.16553 18.3559C6.87645 20.2716 9.34201 21.4611 12.0833 21.4611V19.2854Z" fill="url(#paint4_linear_72_1534)"/>
    <path d="M7.28136 6.65667L5.82723 5.0387C3.93198 6.76853 2.75513 9.26087 2.75513 12.0321H4.90718C4.90718 9.91153 5.82723 7.97846 7.28136 6.65667Z" fill="url(#paint5_linear_72_1534)"/>
  </g>
  <defs>
    <linearGradient id="paint0_linear_72_1534" x1="5.2669" y1="18.4254" x2="3.05666" y2="12.0076" gradientUnits="userSpaceOnUse">
      <stop offset="0.1444" stop-color="#F2E913"/>
      <stop offset="0.3037" stop-color="#E7E518"/>
      <stop offset="0.5823" stop-color="#CADB26"/>
      <stop offset="0.891" stop-color="#A3CD39"/>
    </linearGradient>
    <linearGradient id="paint1_linear_72_1534" x1="6.11018" y1="5.12874" x2="11.6947" y2="2.99093" gradientUnits="userSpaceOnUse">
      <stop offset="0.0592" stop-color="#0FA8E0"/>
      <stop offset="0.5385" stop-color="#0099F9"/>
      <stop offset="0.9234" stop-color="#0291EB"/>
    </linearGradient>
    <linearGradient id="paint2_linear_72_1534" x1="11.4786" y1="19.6105" x2="18.1329" y2="18.0998" gradientUnits="userSpaceOnUse">
      <stop offset="0.1226" stop-color="#A3CD39"/>
      <stop offset="0.2846" stop-color="#86C339"/>
      <stop offset="0.8693" stop-color="#21A038"/>
    </linearGradient>
    <linearGradient id="paint3_linear_72_1534" x1="11.6412" y1="3.97052" x2="17.1751" y2="5.68573" gradientUnits="userSpaceOnUse">
      <stop offset="0.0566" stop-color="#0291EB"/>
      <stop offset="0.79" stop-color="#0C8ACB"/>
    </linearGradient>
    <linearGradient id="paint4_linear_72_1534" x1="5.71276" y1="18.7001" x2="11.6581" y2="20.9316" gradientUnits="userSpaceOnUse">
      <stop offset="0.1324" stop-color="#F2E913"/>
      <stop offset="0.2977" stop-color="#EBE716"/>
      <stop offset="0.5306" stop-color="#D9E01F"/>
      <stop offset="0.8023" stop-color="#BBD62D"/>
      <stop offset="0.9829" stop-color="#A3CD39"/>
    </linearGradient>
    <linearGradient id="paint5_linear_72_1534" x1="4.4046" y1="12.295" x2="6.79375" y2="6.05173" gradientUnits="userSpaceOnUse">
      <stop offset="0.0698" stop-color="#A3CD39"/>
      <stop offset="0.2599" stop-color="#81C55F"/>
      <stop offset="0.9216" stop-color="#0FA8E0"/>
    </linearGradient>
    <clipPath id="clip0_72_1534">
      <rect width="20.3" height="20.3" fill="white" transform="translate(2.69995 2.34998)"/>
    </clipPath>
  </defs>
</svg>
