<svg width="32" height="32" viewBox="0 0 32 32" fill="currentColor" xmlns="http://www.w3.org/2000/svg">
  <g clip-path="url(#clip0_150_220)">
    <path fill-rule="evenodd" clip-rule="evenodd" d="M16 32C24.8366 32 32 24.8366 32 16C32 7.16344 24.8366 0 16 0C7.16344 0 0 7.16344 0 16C0 24.8366 7.16344 32 16 32ZM8.53337 9.28003H23.4667C24.288 9.28003 24.96 9.95203 24.96 10.7734V21.2267C24.96 22.048 24.288 22.72 23.4667 22.72H8.53337C7.71204 22.72 7.04004 22.048 7.04004 21.2267V10.7734C7.04004 9.95203 7.71204 9.28003 8.53337 9.28003ZM16.5227 17.0454L22.5707 12.2667C22.7947 12.1174 22.8694 11.744 22.72 11.52C22.5707 11.296 22.1974 11.2214 21.8987 11.3707L16 15.2534L10.176 11.3707C9.87737 11.2214 9.57871 11.296 9.35471 11.52C9.13071 11.8187 9.20537 12.192 9.42937 12.3414L15.4027 17.0454C15.776 17.2694 16.224 17.2694 16.5227 17.0454Z" />
  </g>
  <defs>
    <clipPath id="clip0_150_220">
      <rect width="32" height="32" rx="16" fill="white"/>
    </clipPath>
  </defs>
</svg>
