<svg xmlns="http://www.w3.org/2000/svg" fill-rule="evenodd" clip-rule="evenodd" image-rendering="optimizeQuality" shape-rendering="geometricPrecision" text-rendering="geometricPrecision" viewBox="0 0 1028 1028">
  <path fill="#2d2d2d" d="M430.5 1.5c17.3-.2 34.7 0 52 .5-1.3.7-1.3 1.3 0 2-2 .5-4 .7-6 .5-25.3-1.2-50.3.6-75 5.5A93.6 93.6 0 0 0 345 52.5a55.4 55.4 0 0 0-5.5 13 9.6 9.6 0 0 0-2.5 5 207.8 207.8 0 0 0 8.5 69.5l-.5 1.5c-1-1.4-1.8-2.7-2.5-4a503 503 0 0 0-8.5-30c-.5-3.3-.7-6.7-.5-10-.6-7-1-14-1-21a67.4 67.4 0 0 1 15.5-36 104.7 104.7 0 0 1 82.5-39Z"/>
  <path fill="#d26ac1" d="M476.5 4.5c1 1 2.4 1.3 4 1C524 14.8 567 27 609.5 42c28 13 54.6 28 80 45 38 29.3 74.2 60.8 108.5 94.5 8.6 10.2 17 20.5 25 31 9 14.9 18.6 29.2 29 43 10 16.9 20.1 33.6 30.5 50 8.5 17 16.5 34.4 24 52 .1.7 0 1.4-.5 2l-3-6-29-27a2052.8 2052.8 0 0 0-50.5-57.5 80.8 80.8 0 0 0-29-17.5 657.3 657.3 0 0 1-23-20.5c-2.2-.5-3 .3-2.5 2.5 4.3 3.5 8.5 7.2 12.5 11 .1.7 0 1.4-.5 2a133.4 133.4 0 0 0-32.5-22.5l-10-10a5 5 0 0 0-3-.5c.1 2.3 1 4.3 2.5 6a569.5 569.5 0 0 1 45 67 960.6 960.6 0 0 1 23 54 302.8 302.8 0 0 1 6 138 982.5 982.5 0 0 0-19.5 68c-4.8 7.7-10.2 15-16 22 .3-7.2 1.4-14.6 3.5-22 4.6-41.2 2.9-82.2-5-123-7.6-22.3-18.1-43-31.5-62-1.6-3.6-3-7.2-4-11a254.5 254.5 0 0 0-46.5-93 157.4 157.4 0 0 0-19.5-18c15 25.5 29.1 51.5 42.5 78a448.2 448.2 0 0 1 33 129c1.9-11.4 3-22.7 3.5-34a227.7 227.7 0 0 1-7 119c0-9.1-.1-18.5-.5-28l-14-62c-2.5-8.4-5.1-16.7-8-25a483.5 483.5 0 0 0-92.5-130c-1-.6-2-1-3-1a536.9 536.9 0 0 0-16.5-23c-1.2-1.2-2.3-1.2-3.5 0 14.5 21 28 42.7 40.5 65 2.8 6 5.3 12 7.5 18 .1.7 0 1.4-.5 2-3.6-9.4-7.9-18.4-13-27 8.9 25.8 17.6 51.8 26 78a844 844 0 0 0 14.5 57 92.1 92.1 0 0 1 1.5 20 648.7 648.7 0 0 0-36.5-75 483.4 483.4 0 0 0-62.5-126 848.8 848.8 0 0 1-24-31 318.7 318.7 0 0 0-79.5-60.5l-60-28a169.5 169.5 0 0 1-47.5-39.5 297.5 297.5 0 0 0-29-43 5 5 0 0 1-.5-3c-3.4.7-5.1-.6-5-4 1.3-4.5 3.1-8.9 5.5-13A93.6 93.6 0 0 1 401.5 10c24.7-4.9 49.7-6.7 75-5.5Z"/>
  <path fill="#dc8cce" d="M480.5 5.5a455.8 455.8 0 0 1 235 85.5A539.3 539.3 0 0 1 836 210.5a782.4 782.4 0 0 1 46.5 95 1829.3 1829.3 0 0 1-30.5-50 495.4 495.4 0 0 1-29-43c-8-10.5-16.4-20.8-25-31A1214.8 1214.8 0 0 0 689.5 87c-25.4-17-52-32-80-45C567 27 524 14.8 480.5 5.5Z"/>
  <path fill="#b587ac" d="M611.5 29.5c2.7.2 5 1.2 7 3-2.7-.2-5-1.2-7-3Z"/>
  <path fill="#9a5499" d="M339.5 65.5c-.1 3.4 1.6 4.7 5 4-.1 1 0 2 .5 3a297.5 297.5 0 0 1 29 43c13.4 16 29.2 29.2 47.5 39.5l60 28c29.6 16 56.1 36.1 79.5 60.5a848.8 848.8 0 0 0 24 31c27 38.9 47.8 80.9 62.5 126-22.5-35-49-67-79.5-96a218 218 0 0 0-48.5-63l-1 2.5c.4 2.2 1.4 4 3 5.5l-17-8.5c23 29.3 42.3 61.2 57.5 95.5 2 4.5 3.5 9.2 4.5 14a2287 2287 0 0 0-36.5-50 340.8 340.8 0 0 0-59.5-56.5 707.7 707.7 0 0 0-53-32 177.1 177.1 0 0 1-71.5-81.5c8.5 24.7 22.4 46 41.5 64-.5 0-.9.4-1 1 1 2.6 1.6 5.3 2 8v9a167.7 167.7 0 0 1-28.5-29c-3.4-8.9-7.4-17.6-12-26a96.6 96.6 0 0 1-5.5-20l2.5 4 .5-1.5a207.8 207.8 0 0 1-8.5-69.5c.4-2 1.2-3.7 2.5-5Z"/>
  <path fill="#7c7b7d" d="M332.5 76.5c0 7 .4 14 1 21l-2 1c0-7.4.4-14.8 1-22Z"/>
  <path fill="#d269c1" d="M333.5 97.5c-.2 3.3 0 6.7.5 10 3.1 10 6 20 8.5 30 1.1 6.8 3 13.5 5.5 20 4.6 8.4 8.6 17.1 12 26a167.7 167.7 0 0 0 28.5 29 96 96 0 0 1-2 44c-.3-13.3-2.5-26.3-6.5-39-1.7 18.4-4 36.7-7 55a853 853 0 0 1-21.5 58.5c.8.7 1.5.5 2-.5a322 322 0 0 0 15-17c-7.4 17.7-17 34-29 49 .1-16.8 0-33.8-.5-51-.8-5.3-1.5-10.6-2-16a912.5 912.5 0 0 1-14.5-55l-1-2c-1 1.3-2 1.3-3 0-.7-1.3-1.5-1.3-2.5 0a135.4 135.4 0 0 0 1.5 47c1 7.3-.5 14-4.5 20-4.8 5.9-9.8 11.5-15 17A249.3 249.3 0 0 0 260.5 440c0 35 5.6 69.2 16.5 102.5a767.1 767.1 0 0 0 58 131c1.7 4.6 3 9.2 4 14l5.5 11c0 2-1 3-3 3a586.9 586.9 0 0 1-51.5-77l-52-106c-7-21-12.6-42.3-17-64A1490 1490 0 0 1 205.5 306c0-95 41.7-164.2 125-207.5h1l2-1Z"/>
  <path fill="#dc8cce" d="M781.5 244.5a441.2 441.2 0 0 1 53.5 117 213.2 213.2 0 0 1-11 132 547 547 0 0 1-21.5 39l-10 14a982.5 982.5 0 0 1 19.5-68c8.6-46.5 6.6-92.5-6-138a960.6 960.6 0 0 0-23-54 569.5 569.5 0 0 0-45-67 9.3 9.3 0 0 1-2.5-6c1-.1 2 0 3 .5l10 10c12 5.9 22.8 13.4 32.5 22.5.5-.6.6-1.3.5-2Z"/>
  <path fill="#d169c0" d="M521.5 249.5a168.7 168.7 0 0 1 39 52c.2 2 .7 4 1.5 6 3.5 5.8 6.5 11.8 9 18 .7.8 1.5 1 2.5 1 5 12.4 9.5 25 13.5 38a91.7 91.7 0 0 1 3 26 1422 1422 0 0 1-23.5-40c-1-4.8-2.5-9.5-4.5-14a446.7 446.7 0 0 0-57.5-95.5l17 8.5Z"/>
  <path fill="#dc8cce" d="M739.5 350.5c-1-1.3-2.3-2-4-2l11.5 37c2.3 9 4.1 18 5.5 27-.5 11.3-1.6 22.6-3.5 34a448.2 448.2 0 0 0-33-129 1462.8 1462.8 0 0 0-42.5-78c6.7 5.1 13.2 11.1 19.5 18a254.5 254.5 0 0 1 46.5 93ZM584.5 238.5c30.4 35 52.2 75 65.5 120 1 3.3 1.3 6.6 1 10a216.9 216.9 0 0 0-16-36c-17.1-31.2-34-62.6-50.5-94Z"/>
  <path fill="#9b5499" d="M627.5 285.5c1 0 2 .4 3 1 38 38.2 68.9 81.5 92.5 130 2.9 8.3 5.5 16.6 8 25l14 62c.4 9.5.5 18.9.5 28-5.3 16.9-12 33.2-20 49l-2-35c.8-45.2-6.7-88.9-22.5-131a752 752 0 0 0-47-85 493 493 0 0 0-26.5-44Z"/>
  <path fill="#9b5599" d="M743.5 361.5c13.4 19 23.9 39.7 31.5 62 7.9 40.8 9.6 81.8 5 123-2 7.4-3.3 14.8-3.5 22-7.5 11-15.7 21.7-24.5 32 6-14.6 9.7-30 11-46a393 393 0 0 0-2.5-69.5c3.5-42.5-2.2-83.6-17-123.5Z"/>
  <path fill="#333232" d="M430.5 1.5a395 395 0 0 1 80 2.5 415.8 415.8 0 0 1 101 25.5c2 1.8 4.3 2.8 7 3a507 507 0 0 1 102 56.5c16.2 11.6 31.9 24 47 37 19.2 19.5 38 39.4 56.5 59.5a290.9 290.9 0 0 1 27 42A3945 3945 0 0 1 917.5 370c-1.7 3.9-4.4 4.5-8 2-23.8-20.4-47-41.5-69.5-63.5a2644 2644 0 0 1-45-52c.4 2.3 1.6 4.3 3.5 6l15 30c2.2 6.7 5.2 13 9 19 .3 3.9 1.6 7.2 4 10a228 228 0 0 1 12.5 146c-10.2 31-25 59.3-44.5 85 .2-1.6-.1-3.1-1-4.5 1.6-1 3-2.2 4.5-3.5 1-4.3 2.8-8.1 5.5-11.5-.2-.4-.6-.6-1-.5a547 547 0 0 0 21.5-39 213.2 213.2 0 0 0 11-132 441.2 441.2 0 0 0-53.5-117c-4-3.8-8.2-7.5-12.5-11-.5-2.2.3-3 2.5-2.5 7.5 7 15.2 13.9 23 20.5l16 16c1.1-1 2.1-1 3 0 15.6 21.8 33.3 42 53 60.5 14.2 13.2 28.7 26 43.5 38.5-.5-3.3-1.6-6.3-3.5-9-7.5-17.6-15.5-35-24-52a782.4 782.4 0 0 0-46.5-95c-33.9-46.2-74-86-120.5-119.5a455.8 455.8 0 0 0-235-85.5c-1.6.3-3 0-4-1 2 .2 4 0 6-.5-1.3-.7-1.3-1.3 0-2-17.3-.5-34.7-.7-52-.5Z"/>
  <path fill="#a36d9a" d="M822.5 311.5c1.9 3 3.2 6.4 4 10a16.8 16.8 0 0 1-4-10Z"/>
  <path fill="#bb74af" d="M813.5 292.5a83 83 0 0 1 9 19c-3.8-6-6.8-12.3-9-19Z"/>
  <path fill="#dac4d4" d="M799.5 261.5c-.7 0-1 .3-1 1-1.9-1.7-3-3.7-3.5-6 1.7 1.5 3.2 3.2 4.5 5Z"/>
  <path fill="#9a5499" d="M794.5 251.5c11 3.8 20.6 9.6 29 17.5 17.2 18.9 34 38 50.5 57.5l29 27 3 6c.5-.6.6-1.3.5-2 1.9 2.7 3 5.7 3.5 9a1184.1 1184.1 0 0 1-43.5-38.5 413.3 413.3 0 0 1-53-60.5c-.9-1-1.9-1-3 0l-16-16Z"/>
  <path fill="#775f73" d="M210.5 416.5c.6.1 1.1.4 1.5 1 .5 3.7.7 7.3.5 11a51.8 51.8 0 0 1-2-12Z"/>
  <path fill="#8e8e8c" d="M229.5 510.5c.2 3.3-.5 3.6-2 1 .5-.8 1.1-1.1 2-1Z"/>
  <path fill="#744076" d="M232.5 520.5c0-.7.3-1 1-1 15.4 31.2 30.6 62.5 45.5 94 10.1 18.1 20.6 36 31.5 53.5a2034.8 2034.8 0 0 1-71 59.5h-1c-.1-1-.8-1.8-2-2-3.6.7-7.3 1.2-11 1.5-18.1 3.2-36.1 6.5-54 10 13.5-12.2 26.3-25 38.5-38.5 19.9-21 30.4-45.8 31.5-74.5-2-.7-4-.7-6 0-20 9.2-40.3 17.5-61 25a119.2 119.2 0 0 1-34 4.5c14-15.2 28.2-30.2 42.5-45 22.3-26 38.8-55 49.5-87ZM790.5 563.5c2.3 18.5 7.4 36.2 15.5 53 13.5 28.7 30 55.3 49.5 80a4.7 4.7 0 0 1-5 .5 125 125 0 0 1-33-13l-36-22c-6-.8-8.6 2-8 8l1.5 13.5a305.6 305.6 0 0 0 19.5 46c-.1.6-.5 1-1 1-12.5-8.4-25.1-16.6-38-24.5a51 51 0 0 1-8-9 714 714 0 0 1-31-18c-6.2-2.8-12.5-5.1-19-7-2.4-1.6-5-3.1-7.5-4.5-.7-.7-.7-1.3 0-2a262.8 262.8 0 0 0 68-106c-2 20.5-8.7 39.5-20 57a8.4 8.4 0 0 0-.5 4c1.4.2 2.7 0 4-.5a1013 1013 0 0 0 47.5-59.5l1.5 3Z"/>
  <path fill="#8d5a88" d="M208.5 564.5c-2 4.8-4.6 9.2-8 13 2-4.8 4.6-9.2 8-13Z"/>
  <path fill="#333" d="M232.5 520.5c-10.7 32-27.2 61-49.5 87a2697.5 2697.5 0 0 0-42.5 45c11.4.2 22.8-1.3 34-4.5 20.7-7.5 41-15.8 61-25 2-.7 4-.7 6 0a111.3 111.3 0 0 1-31.5 74.5 524.5 524.5 0 0 1-38.5 38.5c17.9-3.5 35.9-6.8 54-10 3.7-.3 7.4-.8 11-1.5 1.2.2 1.9 1 2 2l-4 3a991 991 0 0 0-58 11.5c-4 .7-8 .7-12 0-2.3-2.5-2-4.8 1-7 19.1-16.1 36.6-34 52.5-53.5 10.7-15.7 17.2-33 19.5-52-18.3 8.3-37 15.8-56 22.5-13 3.6-26.1 6.1-39.5 7.5-5.2.2-7.5-2.2-7-7l44-46c7.4-9.2 14.6-18.6 21.5-28 3.4-3.8 6-8.2 8-13 8.5-14.4 16.5-29 24-44Z"/>
  <path fill="#3a96b0" d="M371.5 681.5c20.2 14.6 41.2 28 63 40v4c.8 15.2-.4 30.2-3.5 45a80.5 80.5 0 0 1-15.5 25c-.6.1-1.1.4-1.5 1-.5 2-.7 4-.5 6l-5-6c20.8 39 42.3 78 64.5 117a903.7 903.7 0 0 1 39 81 4.6 4.6 0 0 0 4.5 2h1a12 12 0 0 0-1 6c1.3.2 2.5-.2 3.5-1a240.4 240.4 0 0 1 37-71l21-38c16.7-26 32.8-52.4 48.5-79v-2c3.2.3 4.3-1 3.5-4a100.6 100.6 0 0 1-26-50c-.3-9.8-.8-19.7-1.5-29.5l1-5.5c10.1-4.6 20.1-9.4 30-14.5a282 282 0 0 1 27-16.5c0 2.8 1.3 4.6 4 5.5 11 5.3 21.6 10.8 32 16.5-1-.1-2 0-3 .5a61.5 61.5 0 0 0-16.5 23.5 210.8 210.8 0 0 1-21 50 901.6 901.6 0 0 0-23 52l-22.5 39c.1.6.5 1 1 1-8 7.1-15.5 14.8-22.5 23-16.4 20.5-33 40.9-50 61-9.3 13.3-15.1 28-17.5 44-.5 6.3-3.9 8.5-10 6.5a37.7 37.7 0 0 1-4-3.5v-3l2.5 3a531 531 0 0 0-29-62 232.7 232.7 0 0 0-34.5-42c.1-.6.4-1.1 1-1.5-6-8.6-12.2-17-18.5-25.5a489.9 489.9 0 0 0-63.5-92.5 324 324 0 0 0-19-15 351.1 351.1 0 0 0-61-26 63 63 0 0 0-14-2.5c3.7-3.7 7.7-7.2 12-10.5a362 362 0 0 0 50-33.5c10 13.5 20 26.8 30.5 40l10.5 10.5c1.6.5 3.3.7 5 .5.2-2 0-4-.5-6-9.5-17.3-18.6-34.6-27.5-52-.2-1.3.2-2.5 1-3.5a679 679 0 0 1 19-7.5Z"/>
  <path fill="#d269c1" d="M726.5 690.5c22 12 42.7 26 62 42-6.8-3.7-13.8-7-21-9.5 8 8.4 16.4 16.4 25 24 16 12.4 32.4 24.4 49 36l10.5 10.5c.3-1.4 0-2.7-1-4-3.4-4.6-6.6-9.2-9.5-14 9.5 8 17.8 17 25 27l-19 2c-7 .2-14 .9-21 2-2.5-.2-4.8.1-7 1a316 316 0 0 0-19 3.5l-69 21c-44.4 17-84 41.3-119 73a499 499 0 0 1-45.5 46.5c-4.7 6.4-9 13-13 20l-21.5 41h-8c0-4.7.3-9.4 1-14 4.2-11.4 9.7-22 16.5-32 21-26.4 43-52.3 65.5-77.5 31.9-30 68.5-52.3 110-67 29.3-9.4 58.5-19 87.5-28.5 2.1-3.6 1.8-7-1-10-7.2-7.9-15-15-23.5-21.5l-81-52.5c8.7-6.8 17.7-13 27-19Z"/>
  <path fill="#45c9e3" d="M696.5 713.5c24.5 15.7 49.2 31.2 74 46.5 10.8 8 21 17 30.5 26.5.7 1.3.7 2.7 0 4-5.9 1.3-11.7 2.8-17.5 4.5a864 864 0 0 1-65 22 331.3 331.3 0 0 0-107 62.5c-.5 0-.9-.4-1-1l22.5-39a901.6 901.6 0 0 1 23-52 210.8 210.8 0 0 0 21-50c3.7-9.1 9.2-17 16.5-23.5 1-.5 2-.6 3-.5Z"/>
  <path fill="#2d2d2d" d="M330.5 98.5c-83.3 43.3-125 112.5-125 207.5A1490 1490 0 0 0 221 454.5c4.4 21.7 10 43 17 64l52 106a586.9 586.9 0 0 0 51.5 77 215.2 215.2 0 0 0 29 37 1751 1751 0 0 0-23.5-44 2461.6 2461.6 0 0 1-69-177c-4.4-24.5-6-49.1-5-74 2.2-20.1 5.2-40.1 9-60 11.3-28.3 24-56 38-83 .4-5.3-.5-10.3-2.5-15a135.4 135.4 0 0 1-1.5-47c1-1.3 1.8-1.3 2.5 0-.2 10.3 0 20.7.5 31a865 865 0 0 1 12 57c.7 12 .7 24 0 36-.4 3.8-1.2 7.4-2.5 11l.5 2c3.7-4.2 7.2-8.5 10.5-13 12-15 21.6-31.3 29-49a203 203 0 0 0 18-57 96 96 0 0 0 2-44v-9c1.1.3 1.8 1.1 2 2.5 1.2 5.3 2.2 10.4 3 15.5-.2 31.5-6.4 61.9-18.5 91-7.6 15.5-16 30.5-25 45a108 108 0 0 0-13.5 17c-3.8 4.3-7.8 8.4-12 12.5a13 13 0 0 1-5 .5 133.7 133.7 0 0 0 3-81c-.3-1.2-.8-1.2-1.5 0-1.3 3-2.4 6-3.5 9a597.5 597.5 0 0 0-32.5 80l-4 20c-1.2 18.7-2.2 37.4-3 56l2 17 7.5-11c6-7.8 12.1-15.5 18.5-23 6-14 14.3-26.3 25-37a936.2 936.2 0 0 1 42-60c21.3-26.2 43.3-51.9 66-77a360 360 0 0 0 14.5-20l4-4-1 4-1 2a719 719 0 0 1-20.5 28 1545.7 1545.7 0 0 0-93 116c-.7.8-.5 1.5.5 2 8.7-5.4 17.7-10.2 27-14.5 32.6-41 65.2-81.8 98-122.5 2.6-4.2 6-7.9 10-11l-8 11a900.6 900.6 0 0 1-65.5 84c-8.6 12.2-17.4 24.2-26.5 36 28.2.2 51 11.5 68.5 34 10.3 15.3 19 31.5 26.5 48.5 0 .8-.4 1.3-1 1.5a4 4 0 0 1-3.5-2c-5.6-10.2-11-20.5-16-31-3-5.4-6.5-10.4-10.5-15-.5 7.8-1.9 15.5-4 23-13.1 35-37.8 47.6-74 37.5-24-10.8-34.6-29.3-31.5-55.5.8-4.3 2.3-8.3 4.5-12l-1-1a25.5 25.5 0 0 0-4.5 4c-9.3 15-19.1 29.8-29.5 44a86.6 86.6 0 0 0-13 18c-2.3 3.4-4.8 6.8-7.5 10 .2 6 1 12 2.5 18 3.4-2.7 6.4-5.7 9-9 8-7.7 15.4-16 22-25l2 2c-2.5 6.2-6 11.9-10.5 17-4.5 4.9-9.4 9.4-14.5 13.5 16.4-.2 32.7-1 49-2.5a58 58 0 0 1-9.5 23 949.5 949.5 0 0 0-16.5 38c-2 3.1-3.9 6.4-5.5 10-1.1 1.2-2.3 1.2-3.5 0a1482 1482 0 0 1 16.5 42c3 4.5 6.1 8.8 9.5 13 .5 1 1.2 1.2 2 .5 3.9-3.7 7.6-7.6 11-11.5a433 433 0 0 0 49.5-51c34.1-32.8 67.6-66.3 100.5-100.5a787.1 787.1 0 0 0 43-38.5 397.5 397.5 0 0 1-50 50.5c-30 32.4-61.2 64-93.5 94.5a339 339 0 0 1-30 32c-5 6.5-10.2 12.8-15.5 19-4.3 2.8-8 6-11.5 10 .4 2.1 1.4 4.1 3 6a133 133 0 0 1 9.5 10l11-12c9.3-8.8 18.4-17.8 27.5-27 54.6-67.3 113.6-131 177-191l.5-1c-9.4 0-18.4 2-27 6a1450 1450 0 0 1-41 11c-2 0-3-1-3-3 17-28.9 35.6-56.5 56-83 3.5-3.4 5.7-7.4 6.5-12-9.2-12.8-18.2-25.8-27-39L500.5 274c-7-6.8-14.2-13-22-18.5-4.4-3.7-9-7-14-10-5-4-10.4-7.9-16-11.5a366.1 366.1 0 0 1-61-39.5c-19.1-18-33-39.3-41.5-64a177.1 177.1 0 0 0 71.5 81.5c18.2 10 35.8 20.6 53 32 22 16.4 41.9 35.2 59.5 56.5a2287 2287 0 0 1 36.5 50 1422 1422 0 0 0 23.5 40c.2-8.8-.8-17.5-3-26-4-13-8.5-25.6-13.5-38-3-9.1-7.4-17.5-13-25a168.7 168.7 0 0 0-39-52 9.2 9.2 0 0 1-3-5.5l1-2.5c20 18 36.2 39 48.5 63 30.5 29 57 61 79.5 96 13.8 24.2 26 49.2 36.5 75 .2-6.7-.3-13.4-1.5-20-3.7-38-12.7-74.7-27-110-2.2-6-4.7-12-7.5-18-12.5-22.3-26-44-40.5-65 1.2-1.2 2.3-1.2 3.5 0a493 493 0 0 1 43 67 752 752 0 0 1 47 85 352.4 352.4 0 0 1 22.5 131c-.2 12.3 0 24.7.5 37 .7-.5 1.2-1.2 1.5-2 8-15.8 14.7-32.1 20-49a227.7 227.7 0 0 0 7-119c-1.4-9-3.2-18-5.5-27l-11.5-37c1.7 0 3 .7 4 2 1 3.8 2.4 7.4 4 11 14.8 39.9 20.5 81 17 123.5a393 393 0 0 1 2.5 69.5c-1.3 16-5 31.4-11 46 8.8-10.3 17-21 24.5-32 5.8-7 11.2-14.3 16-22l10-14c.4 0 .8.1 1 .5a27.6 27.6 0 0 0-5.5 11.5 36 36 0 0 1-4.5 3.5 6.5 6.5 0 0 1 1 4.5 38.7 38.7 0 0 1-4 6.5 6.5 6.5 0 0 1 1 4.5h-1l-1.5-3a1013 1013 0 0 1-47.5 59.5c-1.3.5-2.6.7-4 .5-.2-1.4 0-2.7.5-4 11.3-17.5 18-36.5 20-57a262.8 262.8 0 0 1-68 106c-.7.7-.7 1.3 0 2 2.6 1.4 5 2.9 7.5 4.5 6.5 1.9 12.8 4.2 19 7a714 714 0 0 0 31 18 51 51 0 0 0 8 9c12.9 8 25.5 16.1 38 24.5a7 7 0 0 0 2 2.5c-1.3.4-2 1.3-2 2.5a19 19 0 0 0-5-3c-19.3-16-40-30-62-42a319.2 319.2 0 0 0-39.5-21c-9 7.2-17.8 14.6-26.5 22a282 282 0 0 0-27 16.5c-9.9 5.1-19.9 10-30 14.5l-1 5.5c.7 9.8 1.2 19.7 1.5 29.5 4 19.2 12.6 35.9 26 50 .8 3-.3 4.3-3.5 4a101.2 101.2 0 0 1-26-87 900.9 900.9 0 0 0-50 18.5c-31.7 7-62.4 4-92-9a619.6 619.6 0 0 1-87-52.5c0-1.1.4-2.1 1-3 24.8 15.9 50.1 31 76 45.5 8.8 4.4 17.8 8.2 27 11.5a71.6 71.6 0 0 0 26 5.5c12.4.7 24.7.5 37-.5 8-.8 15.3-3.1 22-7a354.1 354.1 0 0 0 96-46c33-23.8 59.5-53.5 79.5-89a965.6 965.6 0 0 0 24-55c.7-9.7.7-19.3 0-29 0-4.2-.7-8.2-2-12-7.4 32-19 62.4-35 91-1.3 1.3-2.7 1.3-4 0 .6-24 .6-48 0-72a281.1 281.1 0 0 0-8-59 65.2 65.2 0 0 1-19.5 21c-1 4-1.3 8-1 12v3h-3l-2-1c-.2-2.9-1-5.6-2.5-8a59.8 59.8 0 0 0-6.5 4 61 61 0 0 1-69.5-21c-5.9-11.7-10-24-12.5-37a614.7 614.7 0 0 0-22 38c-1.1-1.1-1.3-2.4-.5-4a218.9 218.9 0 0 1 28-49c7.7-9.3 17.2-16 28.5-20 3.8-1 7.5-2.3 11-4a609.3 609.3 0 0 0-66.5-83c5.2 11 9.7 22.3 13.5 34 4.5 14.2 7.5 28.7 9 43.5l-.5 6.5c-3.2 2.8-5.7 2-7.5-2a776.3 776.3 0 0 0-27.5-45c-1-1.3-2-1.3-3 0l-5.5 9a1220 1220 0 0 1-26.5 38 586.5 586.5 0 0 1-24.5 39l1.5 1c20.4-6.2 40.9-11.8 61.5-17 2.2-.2 4 .5 5.5 2 .6 3-.1 5.6-2 8-64 61.6-124 126.6-180 195-8 7.6-15.6 15.6-22.5 24-4 4-7.7 8.3-11 13 5.3 4.1 10.3 8.4 15 13l-4 2c-3-4-6.8-7.4-11-10.5-3.7-3.4-7-7-10-11-2.6-.8-5-.3-7 1.5 4 8 7.5 16.4 10.5 25a4.2 4.2 0 0 0 2.5 3 7.4 7.4 0 0 0-.5 6c.7.8 1.5 1 2.5 1 8.9 17.4 18 34.7 27.5 52 .5 2 .7 4 .5 6a13 13 0 0 1-5-.5L364 739.5a1465.5 1465.5 0 0 1-30.5-40 362 362 0 0 1-50 33.5c-4.3 3.3-8.3 6.8-12 10.5-9.9 8-20.2 15.5-31 22.5a249.4 249.4 0 0 1-36 29c34.5 1.3 67.8 8 100 20 26.3 13.2 52.3 26.8 78 41 22 15.9 43.4 32.7 64 50.5a232.7 232.7 0 0 1 34.5 42 531 531 0 0 1 29 62l-2.5-3a585.6 585.6 0 0 1-25.5-50 264.3 264.3 0 0 0-46.5-55.5 826.8 826.8 0 0 0-53-41 2183.6 2183.6 0 0 0-55-30c-39.8-20.8-82-31-127-31-5.2-2.4-5.2-5.1 0-8a117.4 117.4 0 0 0 28-22c12.7-8.7 25-17.9 37-27.5 13-11.6 27.4-21.4 43-29.5 7.3-6.3 15-12.2 23-17.5l-18-24c-26.6 21.6-52.6 44-78 67a876.2 876.2 0 0 0-24 25.5c-9.3 7-18.1 14.4-26.5 22.5-6.5 6.9-12.7 14-18.5 21.5 43-3.6 84.6 2 125 17 3.8 2.4 7.8 4.4 12 6a191 191 0 0 1 45 19c18.5 13 36.8 26.4 55 40 27 22.4 50.6 47.9 70.5 76.5l24 40c2.4 3.2 4.9 6.2 7.5 9a7 7 0 0 0 2 2.5c-.7.7-1.3.7-2 0-2.8-3.8-6-7.3-9.5-10.5a565.2 565.2 0 0 0-52-74A489.4 489.4 0 0 0 330.5 845c-9.7-3.8-19.4-7.8-29-12a29.7 29.7 0 0 0-13.5-2.5c-39.3 3-77.8 9.6-115.5 20-10.7 2-21.2 4.6-31.5 8-1 .3-1.5 1-1.5 2-3.1-1-6.1-.4-9 1.5a4.2 4.2 0 0 0-.5 4.5 572.9 572.9 0 0 0 59 109 515.4 515.4 0 0 1 42.5 52h-6a394.4 394.4 0 0 0-39.5-49 633.9 633.9 0 0 1-51-91c-2.2-8.4-5-16.4-8.5-24-5 2-9.9 4.3-14.5 7 .8 5.7 2.8 11 6 16 13.5 24 27.1 47.6 41 71 18.8 22.7 36.7 46 53.5 70h-127c3.6-8 7.8-15.6 12.5-23 10-15 19.7-30.4 29-46 5.2-6.5 11-12.3 17.5-17.5-6.1-11-12.6-22-19.5-32.5a291.8 291.8 0 0 1-18.5-38.5 62.3 62.3 0 0 1 23-11.5c2.3-.5 4.3-1.5 6-3 38-11.2 76.7-19.5 116-25 9.9-.4 19.5-1.4 29-3 1.9.1 2.2-.4 1-1.5a272.8 272.8 0 0 0-119-12.5c-1-1-1.7-2.1-2-3.5 1.1-3 2.6-5.9 4.5-8.5l19.5-21.5c6.7-6.3 13.7-12.2 21-17.5 5.3-3.3 9.6-7.6 13-13 4.7-6 9.7-11.7 15-17 2.3-1.7 4.3-3.7 6-6 24.1-19.3 47.8-39.2 71-59.5a1417.9 1417.9 0 0 1-31.5-53.5c-15-31.5-30-62.8-45.5-94l-4-9a516.9 516.9 0 0 1-17-82 61 61 0 0 0-.5-11c-.4-.6-.9-.9-1.5-1-3.7-31-7-62-10-93-2.5-48.4 7-94.4 28.5-138a248.1 248.1 0 0 1 72.5-76.5c8.4-4.8 17.3-8.6 26.5-11.5.9.2 1.7.6 2.5 1Z"/>
  <path fill="#08080a" d="M368.5 675.5c2.1 0 3.5 1 4 3-.6.9-1 1.9-1 3a679 679 0 0 0-19 7.5c-.8 1-1.2 2.2-1 3.5-1 0-1.8-.2-2.5-1-.7-2.1-.5-4.1.5-6a54 54 0 0 1 15-8l4-2Z"/>
  <path fill="#9a5499" d="M265.5 742.5a44 44 0 0 0-30-4c25.4-23 51.4-45.4 78-67l18 24c-8 5.3-15.7 11.2-23 17.5-15.6 8.1-30 18-43 29.5ZM726.5 690.5c-9.3 6-18.3 12.2-27 19-11-5.2-22-10.7-33-16.5-2-.8-4-1.3-6-1.5 8.7-7.4 17.5-14.8 26.5-22a319.2 319.2 0 0 1 39.5 21ZM364.5 677.5a54 54 0 0 0-15 8 4.2 4.2 0 0 1-2.5-3c-3-8.6-6.5-17-10.5-25 2-1.8 4.4-2.3 7-1.5 3 4 6.3 7.6 10 11 4.2 3 8 6.6 11 10.5Z"/>
  <path fill="#b89631" d="M364.5 649.5c9.2 9.3 18.8 18.2 29 26.5 27.2 20 54.6 40 82 59.5-9.2-3.3-18.2-7.1-27-11.5a1434.5 1434.5 0 0 1-76-45.5c-.5-2-1.9-3-4-3-4.7-4.6-9.7-8.9-15-13 3.3-4.7 7-9 11-13Z"/>
  <path fill="#713f73" d="M327.5 635.5c3.3 5 7 9.9 11 14.5-1 2-2.4 2.5-4 1.5l-7-16Z"/>
  <path fill="#3996af" d="M348.5 630.5c1.5 3.7 3.7 7 6.5 10 1.5 2 3.3 3.3 5.5 4l-11 12a133 133 0 0 0-9.5-10 12.8 12.8 0 0 1-3-6c3.4-4 7.2-7.2 11.5-10Z"/>
  <path fill="#881e74" d="M314.5 570.5c8.6 18 17.8 35.6 27.5 53 .7.8 1.5 1 2.5 1-3.4 4-7.1 7.8-11 11.5-.8.7-1.5.5-2-.5-3.4-4.2-6.5-8.5-9.5-13a1482 1482 0 0 0-16.5-42c1.2 1.2 2.4 1.2 3.5 0 1.6-3.6 3.4-6.9 5.5-10Z"/>
  <path fill="#b8942e" d="M295.5 517.5c3.7 11.7 7.6 23.3 11.5 35 1.3 4 3.2 7.7 5.5 11-2.6 5.5-5 11.2-7 17a14 14 0 0 1-3.5-6c-3-9.6-6.1-19.1-9.5-28.5-2-9.7-4.6-19.2-8-28.5h11Z"/>
  <path fill="#fbc82c" d="M312.5 563.5c-2.3-3.3-4.2-7-5.5-11-4-11.7-7.8-23.3-11.5-35 13.6-2 27.3-3.2 41-3.5a677.2 677.2 0 0 0-24 49.5Z"/>
  <path fill="#b6b7bc" d="M685.5 497.5c-1.7.1-3.4.5-5 1-.6-2.3-2-4-4-5 2-1.4 4.2-2.8 6.5-4 1.4 2.4 2.3 5.1 2.5 8Z"/>
  <path fill="#3a95ae" d="M288.5 485.5c.9 6.5 2.2 12.9 4 19a57.5 57.5 0 0 1-9 9c-1.4-6-2.3-12-2.5-18 2.7-3.2 5.2-6.6 7.5-10Z"/>
  <path fill="#b99632" d="M715.5 485.5c2 11.9 3.1 23.9 3.5 36 .6 24 .6 48 0 72 1.3 1.3 2.7 1.3 4 0 16-28.6 27.6-59 35-91 1.3 3.8 2 7.8 2 12 .7 9.7.7 19.3 0 29a965.6 965.6 0 0 1-24 55 275.1 275.1 0 0 1-79.5 89c8.3-11.3 16.1-23 23.5-35a141 141 0 0 0 18-62c2.2-30.7-.3-61-7.5-91-1.3.2-2.3-.1-3-1h3v-3l25-10Z"/>
  <path fill="#553c54" d="m723.5 545.5 2 35c-.3.8-.8 1.5-1.5 2-.5-12.3-.7-24.7-.5-37Z"/>
  <path fill="#815d30" d="m675.5 488.5-5-14c3.1-3.2 6-3.2 8.5 0 1.7 3.5 2.4 7.2 2 11a44.4 44.4 0 0 1-5.5 3Z"/>
  <path fill="#46c8e2" d="M301.5 467.5c3.7 4.7 8 8.7 13 12-6.6 9-14 17.3-22 25-1.8-6.1-3.1-12.5-4-19a86.6 86.6 0 0 1 13-18Z"/>
  <path fill="#b5b6bc" d="m715.5 485.5-25 10c-.3-4 0-8 1-12 8-5.6 14.6-12.6 19.5-21 2 7.6 3.4 15.2 4.5 23Z"/>
  <path fill="#5d5d5d" d="m627.5 455.5 12 11c-.6 1.1-1.5 2.1-2.5 3-4-3-7.6-6.3-11-10a4 4 0 0 1 1.5-4Z"/>
  <path fill="#825d30" d="M695.5 451.5h1c6.4-1 9.3-4.6 8.5-11a7 7 0 0 0-3.5-4v-1a25 25 0 0 1 .5-7 64.6 64.6 0 0 1 7 28 50.9 50.9 0 0 1-18.5 22c-1.5-6-2-12-1.5-18 3.2-2.3 5.3-5.3 6.5-9Z"/>
  <path fill="#f6f6f2" d="M676.5 493.5c2 1 3.4 2.7 4 5-30.5 11-60.2 9.2-89-5.5a57 57 0 0 1-19.5-13.5c-.2-2 0-4 .5-6a614.7 614.7 0 0 1 22-38c2.5 13 6.6 25.3 12.5 37a61 61 0 0 0 69.5 21Z"/>
  <path fill="#9f8362" d="M701.5 436.5a7 7 0 0 1 3.5 4c.8 6.4-2 10-8.5 11 1.9-5 3.6-10 5-15Z"/>
  <path fill="#5f5f5f" d="M701.5 435.5v1c-1.4 5-3.1 10-5 15h-1c-8.3-4.5-9-10-2-16.5 2.7-.6 5.4-.4 8 .5Z"/>
  <path fill="#b4b6bc" d="m471.5 475.5-16 8c-.6-1.1-1.5-2.1-2.5-3a93.1 93.1 0 0 0-14-31c-.4.6-.9.9-1.5 1 2.1-7.5 3.5-15.2 4-23 4 4.6 7.5 9.6 10.5 15 5 10.5 10.4 20.8 16 31a4 4 0 0 0 3.5 2Z"/>
  <path fill="#f6f5f3" d="M437.5 450.5c.6-.1 1.1-.4 1.5-1a93.1 93.1 0 0 1 14 31c1 .9 1.9 1.9 2.5 3-13.3 6.7-27 12.8-41 18.5-20 4-39.6 3-59-3a257 257 0 0 1-39-17.5l-2-2c-5-3.3-9.3-7.3-13-12 10.4-14.2 20.2-29 29.5-44 1.4-1.5 2.9-2.9 4.5-4l1 1a37.4 37.4 0 0 0-4.5 12c-3 26.2 7.4 44.7 31.5 55.5 36.2 10 60.9-2.4 74-37.5Z"/>
  <path fill="#b2b4ba" d="m653.5 442.5-9.5-17a5.8 5.8 0 0 0-5.5-2c1.5-.8 3.2-1.5 5-2a25 25 0 0 1 13 16.5c-.4 2-1.4 3.5-3 4.5Z"/>
  <path fill="#46c8e2" d="M360.5 644.5c-2.2-.7-4-2-5.5-4-2.8-3-5-6.3-6.5-10 5.3-6.2 10.5-12.5 15.5-19a339 339 0 0 0 30-32c32.3-30.6 63.4-62 93.5-94.5a397.5 397.5 0 0 0 50-50.5c.6-.9 1-1.9 1-3 8.6-4 17.6-6 27-6l-.5 1a1991.3 1991.3 0 0 0-177 191c-9 9.2-18.2 18.2-27.5 27Z"/>
  <path fill="#f5f5f2" d="M638.5 423.5c2.2-.3 4 .3 5.5 2l9.5 17c-4.6 4.4-10 5.2-16 2.5-7-7.7-6.6-14.8 1-21.5Z"/>
  <path fill="#f3f3f1" d="M371.5 419.5c8-1.8 13.8.9 17.5 8 2 8-.8 13.5-8.5 16.5-7.2 1.1-12.4-1.7-15.5-8.5-1.4-6.9.8-12.2 6.5-16Z"/>
  <path fill="#ae772a" d="m670.5 474.5 5 14a55.7 55.7 0 0 1-63.5-17c-5.7-9.6-9.7-20-12-31-.7-4-.7-8 0-12 6-6 12.7-11.4 20-16a79.2 79.2 0 0 0 1 43c11.2 20 27.7 26.4 49.5 19Z"/>
  <path fill="#815d30" d="M434.5 441.5c-4-5.8-8-11.4-12.5-17-.7-1.2-1.2-1.2-1.5 0a49 49 0 0 0-8-20.5 92.1 92.1 0 0 1 23.5 16.5c.9 7.1.4 14.1-1.5 21Z"/>
  <path fill="#ae772a" d="M416.5 455.5h1c6.6 1.9 10.6-.6 12-7.5-1-5-4-8-9-8.5v-15c.3-1.2.8-1.2 1.5 0 4.4 5.6 8.6 11.2 12.5 17-3.8 22-16 36.8-37 44.5-12.7 1.5-25 .2-37-4-21.6-12.7-29-31.2-22.5-55.5 1.2-3.7 2.5-7.4 4-11a80 80 0 0 1 15.5-11l1 1c-6 11-9.4 22.9-10 35.5.7 11.6 5 21.6 13 30 19.5 9.9 36.7 6.7 51.5-9.5a32 32 0 0 0 3.5-6Z"/>
  <path fill="#5d5d5d" d="M359.5 457.5c2.4.7 3.9 2.4 4.5 5 2.2 2.5 4.7 4.7 7.5 6.5-.8 1.9-2.1 2.6-4 2a47.4 47.4 0 0 1-9-11.5l1-2Z"/>
  <path fill="#c0975d" d="M420.5 439.5c5 .6 8 3.4 9 8.5-1.4 6.9-5.4 9.4-12 7.5a56.6 56.6 0 0 0 3-16Z"/>
  <path fill="#5d5d5d" d="M420.5 439.5a56.6 56.6 0 0 1-3 16h-1c-6.3-7.4-5-12.7 4-16Z"/>
  <path fill="#b79432" d="m667.5 360.5 2 1c6.8 11 13.2 22.3 19 34l-1 1a52 52 0 0 0-11.5-3 845 845 0 0 1-6.5-24c-.3-3.1-1-6.1-2-9Z"/>
  <path fill="#7e4d70" d="M664.5 357.5c1.2.8 2.2 1.8 3 3 1 2.9 1.7 5.9 2 9l-5-12Z"/>
  <path fill="#b09a85" d="m669.5 361.5-2-1c-.8-1.2-1.8-2.2-3-3-.5-2-.7-4-.5-6 2.1 3.2 4 6.6 5.5 10Z"/>
  <path fill="#ba9632" d="m587.5 395.5-9 12a415 415 0 0 1-16.5-33c-3-5.4-6.5-10.4-10.5-15l5.5-9c1-1.3 2-1.3 3 0a776.3 776.3 0 0 1 27.5 45Z"/>
  <path fill="#fec92c" d="M628.5 400.5a65.7 65.7 0 0 0-28.5 20 218.9 218.9 0 0 0-28 49c-.8 1.6-.6 2.9.5 4-.5 2-.7 4-.5 6a57 57 0 0 0 19.5 13.5 107.7 107.7 0 0 0 89 5.5c1.6-.5 3.3-.9 5-1l2 1c.7.9 1.7 1.2 3 1 7.2 30 9.7 60.3 7.5 91a141 141 0 0 1-18 62c-7.4 12-15.2 23.7-23.5 35a354.1 354.1 0 0 1-96 46c-5.1.6-10.1 1.8-15 3.5-2.7.7-5 1.8-7 3.5-12.3 1-24.6 1.2-37 .5-9.2-.2-17.8-2-26-5.5a6572 6572 0 0 1-82-59.5 364.8 364.8 0 0 1-29-26.5c7-8.4 14.4-16.4 22.5-24 56-68.4 116-133.4 180-195 1.9-2.4 2.6-5 2-8a6.6 6.6 0 0 0-5.5-2c-20.6 5.2-41.1 10.8-61.5 17l-1.5-1a586.5 586.5 0 0 0 24.5-39c9-12.5 18-25.2 26.5-38 4 4.6 7.5 9.6 10.5 15a415 415 0 0 0 16.5 33l9-12c1.8 4 4.3 4.8 7.5 2l.5-6.5a214.8 214.8 0 0 0-9-43.5c.4-1 1-1.2 2-.5 16 16 29.2 33.9 40 53.5Z"/>
  <path fill="#bb9732" d="M581.5 649.5a4 4 0 0 1-2 3.5 212 212 0 0 1-45 25 237 237 0 0 1-50-2 74 74 0 0 1-33.5-19.5 5 5 0 0 1-.5-3 120 120 0 0 0 81 23.5 172 172 0 0 0 46-25.5 7 7 0 0 0 4-2Z"/>
  <path fill="#591007" d="M445.5 647.5c7.1 4 14.1 8.4 21 13 2.3 2.3 5 4.1 8 5.5 13.8 4.6 28 7.5 42.5 8.5 5 0 9.9-.7 14.5-2 3.7-1 7.3-2.2 11-3.5l35-17.5a172 172 0 0 1-46 25.5c-30 2-57-6-81-23.5l-5-6Z"/>
  <path fill="#782b2b" d="M466.5 660.5c15.1 4.5 30.5 8.4 46 11.5 6.3.5 12.7.7 19 .5-4.6 1.3-9.4 2-14.5 2-14.5-1-28.7-3.9-42.5-8.5-3-1.4-5.7-3.2-8-5.5Z"/>
  <path fill="#a03125" d="M584.5 644.5h2c-1.3 2-3 3.7-5 5a7 7 0 0 1-4 2l-35 17.5c-3.7 1.3-7.3 2.4-11 3.5-6.3.2-12.7 0-19-.5-15.5-3.1-30.9-7-46-11.5-6.9-4.6-13.9-9-21-13-1-1-1.3-2.4-1-4 1.3.2 2.3-.1 3-1a711 711 0 0 1 52-4c7.7.3 15.4 1 23 2a159 159 0 0 1 62 4Z"/>
  <path fill="#b66157" d="M515.5 661.5c7.4-.2 14.7.3 22 1.5a26.5 26.5 0 0 1-24 1l-1-1c1.2-.2 2.2-.7 3-1.5Z"/>
  <path fill="#5d100c" d="M572.5 646.5c1.9-.1 2.2.4 1 1.5a106.6 106.6 0 0 1-37.5 9.5c-17.5-.8-35-1.3-52.5-1.5-8-3.8-16.3-6.3-25-7.5 3.3-1.2 6.6-1.3 10-.5 7.6 2 15.2 3.6 23 5l42 1.5c9.8-.4 19.4-1.5 29-3.5 3.6-1.2 6.9-2.7 10-4.5Z"/>
  <path fill="#b66157" d="M538.5 642.5c4.7-.2 9.3 0 14 .5 1.1 2.6.1 3.9-3 4-4 .7-8 .7-12 0-1-1.7-.7-3.2 1-4.5Z"/>
  <path fill="#b66156" d="M501.5 633.5h1a45.5 45.5 0 0 0 33 1.5c3.3-.7 6.7-.7 10 0 8.5 2 17.2 3.4 26 4 4.7 1.2 9 3 13 5.5a159 159 0 0 0-62-4c-7.6-1-15.3-1.7-23-2-14 .6-28 1.6-42 3 10.7-2 21.3-4.4 32-7.5 4-.5 8-.7 12-.5Z"/>
  <path fill="#fad15c" d="M586.5 644.5h-2c-4-2.5-8.3-4.3-13-5.5-8.8-.6-17.5-2-26-4-3.3-.7-6.7-.7-10 0a45.5 45.5 0 0 1-33-1.5c6.4.2 12.7 1 19 2 5.1-.1 10.1-1 15-2.5 16.4-.4 32.4 2 48 7 1.6 1 2.3 2.5 2 4.5Z"/>
  <path fill="#fcd65d" d="M501.5 633.5c-4-.2-8 0-12 .5-10.7 3-21.3 5.6-32 7.5a77 77 0 0 1-10 1c-1.2-1-.9-1.9 1-2.5 10.6-.6 21-2.6 31-6a57 57 0 0 1 22-.5Z"/>
  <path fill="#2c2a2c" d="M551.5 563.5c2.4 8.4-.3 15-8 19.5a46.2 46.2 0 0 1-40 5c-7.8-4-13.8-9.8-18-17.5.9-1 1.9-1.2 3-.5 16.7 19.5 35.7 21.8 57 7 3.8-3.7 5.8-8.2 6-13.5Z"/>
  <path fill="#fdd55d" d="M540.5 558.5c2.8 11.2-1.5 18.2-13 21-1.4-.2-2.8-.7-4-1.5 6.3-6.7 12-13.2 17-19.5Z"/>
  <path fill="#fdd55c" d="M516.5 533.5a31 31 0 0 1 18 7.5c-7.8-1.8-15.8-2.8-24-3 1.9-1.8 3.9-3.3 6-4.5Z"/>
  <path fill="#985497" d="M655.5 345.5c14.3 35.3 23.3 72 27 110a844 844 0 0 1-14.5-57c-8.4-26.2-17.1-52.2-26-78 5.1 8.6 9.4 17.6 13 27 .5-.6.6-1.3.5-2Z"/>
  <path fill="#b99632" d="M628.5 400.5a237.3 237.3 0 0 0-40-53.5c-1-.7-1.6-.5-2 .5-3.8-11.7-8.3-23-13.5-34a609.3 609.3 0 0 1 66.5 83c-3.5 1.7-7.2 3-11 4Z"/>
  <path fill="#b28e26" d="M322.5 306.5c7.4 27.2 6.4 54.2-3 81 1.7.2 3.4 0 5-.5 4.2-4 8.2-8.2 12-12.5.1 1 0 2-.5 3a419.4 419.4 0 0 1-16.5 18c-1.6 1.2-3.3 1.2-5 0-.2-15.7-.5-31.3-1-47-7.1 13.9-14 27.9-20.5 42-3.6 14-5.6 28.4-6 43-.8 14.8-.7 29.5.5 44l-7.5 11-2-17c.8-18.6 1.8-37.3 3-56l4-20c9-27.5 19.8-54.2 32.5-80a20 20 0 0 0 5-9Z"/>
  <path fill="#965394" d="M560.5 301.5c5.6 7.5 10 15.9 13 25-1 0-1.8-.2-2.5-1-2.5-6.2-5.5-12.2-9-18-.8-2-1.3-4-1.5-6Z"/>
  <path fill="#8e5382" d="M322.5 306.5a20 20 0 0 1-5 9c1-3 2.2-6 3.5-9 .7-1.2 1.2-1.2 1.5 0Z"/>
  <path fill="#995498" d="M317.5 285.5c2 4.7 2.9 9.7 2.5 15-14 27-26.7 54.7-38 83a723.3 723.3 0 0 0-9 60c-1 24.9.6 49.5 5 74a2461.6 2461.6 0 0 0 69 177 1751 1751 0 0 1 23.5 44 215.2 215.2 0 0 1-29-37c2 0 3-1 3-3l-5.5-11c-1-4.8-2.3-9.4-4-14a767.1 767.1 0 0 1-58-131A328.4 328.4 0 0 1 260.5 440 249.3 249.3 0 0 1 298 322.5c5.2-5.5 10.2-11.1 15-17 4-6 5.5-12.7 4.5-20Z"/>
  <path fill="#b91d91" d="M469.5 271.5c12 8.8 23 18.8 33 30 2.2.7 4.2 1.7 6 3 14.4 17 28.4 34.4 42 52a792.4 792.4 0 0 0-56 83c0 2 1 3 3 3a1450 1450 0 0 0 41-11c0 1.1-.4 2.1-1 3a787.1 787.1 0 0 1-43 38.5A3569.5 3569.5 0 0 1 394 573.5a433 433 0 0 1-49.5 51c-1 0-1.8-.2-2.5-1-9.7-17.4-18.9-35-27.5-53a949.5 949.5 0 0 1 16.5-38 58 58 0 0 0 9.5-23 634.8 634.8 0 0 1-49 2.5c5.1-4.1 10-8.6 14.5-13.5 4.5-5.1 8-10.8 10.5-17a257 257 0 0 0 39 17.5c19.4 6 39 7 59 3 14-5.7 27.7-11.8 41-18.5l16-8c.6-.2 1-.7 1-1.5-7.4-17-16.2-33.2-26.5-48.5a83.4 83.4 0 0 0-68.5-34c9-11.8 18-23.8 26.5-36a900.6 900.6 0 0 0 65.5-84Z"/>
  <path fill="#46c9e2" d="M455.5 262.5c4.6 2.3 8.6 5.3 12 9a25169 25169 0 0 0-98 122.5c-9.3 4.3-18.3 9.1-27 14.5-1-.5-1.2-1.2-.5-2 29.1-40.1 60.1-78.8 93-116a719 719 0 0 0 20.5-28Z"/>
  <path fill="#892077" d="M478.5 255.5c7.8 5.6 15 11.7 22 18.5l29.5 31.5c8.8 13.2 17.8 26.2 27 39-.8 4.6-3 8.6-6.5 12-13.6-17.6-27.6-35-42-52a22.1 22.1 0 0 0-6-3c-10-11.2-21-21.2-33-30l8-11c-.1-1.8.2-3.5 1-5Z"/>
  <path fill="#5c5233" d="M462.5 250.5c-1 4-3 7.3-6 10l1-4c.8-3 2.3-5.7 4.5-8 .5.6.6 1.3.5 2Z"/>
  <path fill="#3b96b0" d="M464.5 245.5c5 3 9.6 6.3 14 10a9.2 9.2 0 0 0-1 5c-4 3.1-7.4 6.8-10 11a40.9 40.9 0 0 0-12-9l1-2c3-2.7 5-6 6-10a6 6 0 0 0 2-5Z"/>
  <path fill="#995498" d="M318.5 238.5c1 1.3 2 1.3 3 0l1 2c4.3 18.5 9.1 36.8 14.5 55 .5 5.4 1.2 10.7 2 16 .5 17.2.6 34.2.5 51-3.3 4.5-6.8 8.8-10.5 13l-.5-2c1.3-3.6 2.1-7.2 2.5-11 .7-12 .7-24 0-36a865 865 0 0 0-12-57c-.5-10.3-.7-20.7-.5-31Z"/>
  <path fill="#dc8bce" d="M386.5 256.5a203 203 0 0 1-18 57 322 322 0 0 1-15 17c-.5 1-1.2 1.2-2 .5a853 853 0 0 0 21.5-58.5c3-18.3 5.3-36.6 7-55 4 12.7 6.2 25.7 6.5 39Z"/>
  <path fill="#fdc92c" d="M453.5 260.5a360 360 0 0 1-14.5 20 1899.6 1899.6 0 0 0-66 77 936.2 936.2 0 0 0-42 60c-10.7 10.7-19 23-25 37a592.7 592.7 0 0 0-18.5 23 324.2 324.2 0 0 1-.5-44c.4-14.6 2.4-29 6-43 6.6-14.1 13.4-28.1 20.5-42 .5 15.7.8 31.3 1 47 1.7 1.2 3.4 1.2 5 0 5.7-5.9 11.2-11.9 16.5-18 .5-1 .6-2 .5-3a108 108 0 0 1 13.5-17c9-14.5 17.4-29.5 25-45a238.7 238.7 0 0 0 18.5-91c0-.4.1-.8.5-1a61 61 0 0 0 11.5 12.5c16.2 9 32.2 18 48 27.5Z"/>
  <path fill="#b99632" d="M387.5 194.5c19 15.2 39.3 28.3 61 39.5a200 200 0 0 1 16 11.5 6 6 0 0 1-2 5c.1-.7 0-1.4-.5-2-2.2 2.3-3.7 5-4.5 8l-4 4c-15.8-9.4-31.8-18.6-48-27.5a61 61 0 0 1-11.5-12.5c-.4.2-.6.6-.5 1-.8-5-1.8-10.2-3-15.5-.2-1.4-.9-2.2-2-2.5-.4-2.7-1-5.4-2-8 .1-.6.5-1 1-1ZM434.5 721.5c7.8 4.4 15.8 8.6 24 12.5 29.6 13 60.3 16 92 9a900.9 900.9 0 0 1 50-18.5c-5 33.2 3.6 62.2 26 87v2c-1 0-1.8.2-2.5 1l-15 21a5851 5851 0 0 0-76 124c-6.3 12-11.5 24.3-15.5 37h-1a77.2 77.2 0 0 0-6-16c4.8-12.8 9.3-25.8 13.5-39 12.4-24.5 25-48.8 38-73a302.2 302.2 0 0 0 20-35c.5-10.4.2-20.7-1-31l-5.5-32c-10.7 2.9-21.4 6-32 9.5a142.6 142.6 0 0 1-89-24.5c-4 23.2-14.3 43.2-30.5 60a5 5 0 0 0-.5 3c-3.7-5-7-10.4-10-16-.2-2 0-4 .5-6 .4-.6.9-.9 1.5-1 2.8 1.3 5.3.7 7.5-2a72.7 72.7 0 0 0 11.5-68v-4Z"/>
  <path fill="#db8bcd" d="M788.5 732.5a19 19 0 0 1 5 3 455.9 455.9 0 0 1 48 40c3 4.8 6 9.4 9.5 14 1 1.3 1.3 2.6 1 4L841.5 783c-16.6-11.6-33-23.6-49-36-8.6-7.6-17-15.6-25-24 7.2 2.6 14.2 5.8 21 9.5Z"/>
  <path fill="#a9a9b0" d="M238.5 726.5h1a25.7 25.7 0 0 1-6 6c0-1.1.4-2.1 1-3l4-3Z"/>
  <path fill="#333" d="M790.5 563.5h1a286.9 286.9 0 0 0 38.5 90 1942 1942 0 0 1 30.5 45c-.3 1.1-1 2-2 2.5a86 86 0 0 1-41-12 735.5 735.5 0 0 0-38.5-22.5 7.7 7.7 0 0 0-1.5 5 118 118 0 0 0 9.5 32c5 11.1 10.4 22.1 16 33 19.3 15 37.8 31 55.5 48 3.3 4.6 7 9 11 13 1.3 2.2 2.3 4.5 3 7a4 4 0 0 1-2 3.5c-13.5.8-26.9 2-40 3.5-.9.1-1.5-.2-2-1 3-.8 6-1.3 9-1.5a133 133 0 0 0-11-2.5c7-1.1 14-1.8 21-2 6.7.3 13.4 0 20-1-.1-.6-.5-1-1-1a145 145 0 0 0-25-27 455.9 455.9 0 0 0-48-40c0-1.3.7-2 2-2.5a7 7 0 0 1-2-2.5c.5 0 .9-.4 1-1a305.6 305.6 0 0 1-19.5-46l-1.5-13.5c-.6-6 2-8.8 8-8l36 22a125 125 0 0 0 33 13c1.8.8 3.4.6 5-.5a414.2 414.2 0 0 1-49.5-80c-8-16.8-13.2-34.5-15.5-53Z"/>
  <path fill="#bc9831" d="M560.5 733.5c-6.7 3.9-14 6.2-22 7 2-1.7 4.3-2.8 7-3.5 4.9-1.7 9.9-2.9 15-3.5Z"/>
  <path fill="#d169c0" d="M265.5 742.5c-12 9.6-24.3 18.8-37 27.5a117.4 117.4 0 0 1-28 22c-5.2 2.9-5.2 5.6 0 8 45 0 87.2 10.2 127 31 18.5 9.7 36.8 19.7 55 30 18.2 13 35.9 26.6 53 41 18 16.4 33.6 34.9 46.5 55.5a585.6 585.6 0 0 0 25.5 50v3c-1.3 1.3-1.3 2.6 0 4-.5.8-1.1 1.1-2 1-2.6-2.8-5.1-5.8-7.5-9l-24-40a383.2 383.2 0 0 0-70.5-76.5c-18.2-13.6-36.5-27-55-40a191 191 0 0 0-45-19 69.7 69.7 0 0 1-12-6c-40.4-15-82-20.6-125-17 5.8-7.5 12-14.6 18.5-21.5 8.4-8 17.2-15.6 26.5-22.5 7.9-8.7 15.9-17.2 24-25.5a44 44 0 0 1 30 4Z"/>
  <path fill="#46c9e3" d="M271.5 743.5a63 63 0 0 1 14 2.5 351.1 351.1 0 0 1 61 26 324 324 0 0 1 19 15 489.9 489.9 0 0 1 63.5 92.5c6.3 8.4 12.5 17 18.5 25.5-.6.4-.9.9-1 1.5a934.6 934.6 0 0 0-64-50.5 2164.3 2164.3 0 0 0-78-41 317.3 317.3 0 0 0-100-20 249.4 249.4 0 0 0 36-29c10.8-7 21.1-14.5 31-22.5Z"/>
  <path fill="#fec92c" d="M510.5 980.5a871.2 871.2 0 0 0-34.5-71c-17-30.7-34.5-61-52.5-91-.1-1 0-2 .5-3a112.7 112.7 0 0 0 30.5-60c26.9 18 56.5 26.2 89 24.5 10.6-3.5 21.3-6.6 32-9.5l5.5 32c1.2 10.3 1.5 20.6 1 31a302.2 302.2 0 0 1-20 35c-13 24.2-25.6 48.5-38 73a889.7 889.7 0 0 1-13.5 39Z"/>
  <path fill="#895680" d="M218.5 749.5a40.4 40.4 0 0 1-13 13c3-3.2 5.8-6.5 8.5-10a6.9 6.9 0 0 1 4.5-3Z"/>
  <path fill="#302e2c" d="M434.5 725.5a72.7 72.7 0 0 1-11.5 68c-2.2 2.7-4.7 3.3-7.5 2a80.5 80.5 0 0 0 15.5-25c3-14.8 4.3-29.8 3.5-45Z"/>
  <path fill="#bf6fb1" d="M858.5 784.5c4.8 3.4 8.5 7.8 11 13-4-4-7.7-8.4-11-13Z"/>
  <path fill="#824c79" d="M866.5 802.5c.5 0 .9.4 1 1-6.6 1-13.3 1.3-20 1l19-2Z"/>
  <path fill="#1b1b1b" d="M826.5 806.5c3.6.7 7.3 1.5 11 2.5-3 .2-6 .7-9 1.5.5.8 1.1 1.1 2 1 24.1 12 48.4 23.5 73 34.5 14 8 27.5 16.9 40.5 26.5.7 1.2.6 2.2-.5 3-1.7.7-3.3.4-5-1-3-2.2-6.4-3.9-10-5 0-.7-.3-1-1-1 0-1-.2-1.8-1-2.5l-7-3.5-3 2c0-.7-.3-1-1-1 .4-.7 1-1.2 2-1.5-3-2-6-3.8-9-5.5-24.8-11.8-49.5-24-74-37l-14-8a7 7 0 0 1-1-4c2.2-.9 4.5-1.2 7-1Z"/>
  <path fill="#9a5499" d="m820.5 811.5 14 8a260 260 0 0 0-33 8.5 801.7 801.7 0 0 0-71 33 344 344 0 0 0-63 54c-10.8 8.5-20.6 18-29.5 28.5a1114 1114 0 0 0-64.5 84h-110a245.2 245.2 0 0 0-49-59.5 592.2 592.2 0 0 0-116-76 728.2 728.2 0 0 0-57-21 340.4 340.4 0 0 1-32-14 236 236 0 0 0-31.5-7.5 13 13 0 0 1-5.5 1c37.7-10.4 76.2-17 115.5-20 4.7-.2 9.2.6 13.5 2.5 9.6 4.2 19.3 8.2 29 12 42 23.8 80 53.3 113.5 88.5 19.3 23.3 36.6 48 52 74 3.5 3.2 6.7 6.7 9.5 10.5.7.7 1.3.7 2 0a7 7 0 0 1-2-2.5c.9.1 1.5-.2 2-1-1.3-1.4-1.3-2.7 0-4 1.2 1.2 2.6 2.4 4 3.5 6.1 2 9.5-.2 10-6.5l4-9c-.7 4.6-1 9.3-1 14h8c-1 1.2-1 2.6-.5 4 5.2-9 10.8-17.7 17-26 6-12.7 13-24.7 21-36 18.5-17.2 36.3-35 53.5-53.5 32-27.2 67.6-48.5 107-64 29.6-10 59.6-18.5 90-25.5Z"/>
  <path fill="#d26ac1" d="M834.5 819.5c24.5 13 49.2 25.2 74 37-21.2-9.4-42.5-18.6-64-27.5a4.7 4.7 0 0 0-5 .5c15.1 11.3 30.1 22.8 45 34.5 6 2.3 11.7 5.2 17 8.5a358.2 358.2 0 0 0-92.5 95c-10.7 19-19.2 39-25.5 60h-210c20.1-29 41.6-57 64.5-84 8.9-10.5 18.7-20 29.5-28.5a344 344 0 0 1 63-54 801.7 801.7 0 0 1 71-33 260 260 0 0 1 33-8.5Z"/>
  <path fill="#6c6c6b" d="M280.5 827.5c-9.5 1.6-19.1 2.6-29 3 9.4-1.8 19.1-2.8 29-3Z"/>
  <path fill="#dc8cce" d="M908.5 856.5c3 1.7 6 3.6 9 5.5-1 .3-1.6.8-2 1.5-5 2.5-9.6 5.5-14 9-5.3-3.3-11-6.2-17-8.5a2154.2 2154.2 0 0 0-45-34.5 4.7 4.7 0 0 1 5-.5c21.5 8.9 42.8 18 64 27.5Z"/>
  <path fill="#2b2b2b" d="M819.5 807.5a7 7 0 0 0 1 4c-30.4 7-60.4 15.5-90 25.5a377.7 377.7 0 0 0-107 64c-17.2 18.5-35 36.3-53.5 53.5-8 11.3-15 23.3-21 36-6.2 8.3-11.8 17-17 26-.6-1.4-.4-2.8.5-4l21.5-41c4-7 8.3-13.6 13-20a499 499 0 0 0 45.5-46.5c35-31.7 74.6-56 119-73l69-21a316 316 0 0 1 19-3.5Z"/>
  <path fill="#d269c1" d="M463.5 1027.5h-206a1043.7 1043.7 0 0 1-64.5-79 730.4 730.4 0 0 0-34-53l-19.5-35c0-1 .5-1.7 1.5-2 10.3-3.4 20.8-6 31.5-8a13 13 0 0 0 5.5-1 236 236 0 0 1 31.5 7.5c10.4 5.2 21.1 9.9 32 14a728.2 728.2 0 0 1 57 21 592.2 592.2 0 0 1 116 76c19.6 17.4 36 37.2 49 59.5Z"/>
  <path fill="#2e2c2d" d="M759.5 854.5h3a61 61 0 0 1-.5 11 673 673 0 0 1-12.5 44.5 3.5 3.5 0 0 0 3 3c6.4 1.8 12.7 3.8 19 6 3.7 2.6 4.9 6.1 3.5 10.5a656.7 656.7 0 0 1-41 65c-8.5 9.8-11.2 8.8-8-3 3.5-11 7.2-22 11-33 1.8-7.2 3-14.6 3.5-22a200 200 0 0 0-23-8.5 5.9 5.9 0 0 1-.5-5.5 476.7 476.7 0 0 1 36-62c2-2.2 4.2-4.2 6.5-6Z"/>
  <path fill="#61b3c4" d="M135.5 855.5a12.8 12.8 0 0 1-6 3c1.2-2.5 3.2-3.5 6-3Z"/>
  <path fill="#47c8e2" d="M139.5 860.5c2.9 8.8 6 17.5 9.5 26a1206 1206 0 0 1 35 56c17.7 27 37.7 52.4 60 76l5.5 9h-18a515.4 515.4 0 0 0-42.5-52 572.9 572.9 0 0 1-59-109c-.7-1.6-.6-3.1.5-4.5 2.9-2 5.9-2.4 9-1.5Z"/>
  <path fill="#100f13" d="M915.5 863.5c.7 0 1 .3 1 1a679 679 0 0 0-77.5 68c-21.8 25-38 53.3-48.5 85-1.8 2.3-2.8 5-3 8v2h-4c6.3-21 14.8-41 25.5-60 24.9-37.4 55.7-69 92.5-95 4.4-3.5 9-6.5 14-9Z"/>
  <path fill="#d169c0" d="M225.5 1027.5h-13c-16.8-24-34.7-47.3-53.5-70-13.9-23.4-27.5-47-41-71-3.2-5-5.2-10.3-6-16 4.6-2.7 9.5-5 14.5-7 3.5 7.6 6.3 15.6 8.5 24a633.9 633.9 0 0 0 51 91 394.4 394.4 0 0 1 39.5 49Z"/>
  <path fill="#0f1215" d="M927.5 868.5c.7 0 1 .3 1 1-3.3 4-7 7.7-11 11-4.1 2.2-8.1 4.7-12 7.5l-43 37a235.6 235.6 0 0 0-55.5 77.5 158 158 0 0 0-8.5 25h-4a206.6 206.6 0 0 1 45.5-84 549.7 549.7 0 0 1 87.5-75Z"/>
  <path fill="#f9f129" d="M755.5 863.5c1.1 2.5 1.3 5.1.5 8a414.4 414.4 0 0 0-11.5 38.5c.5 2 1.5 3.6 3 5 7.5 2.7 14.8 5.7 22 9 1 .7 1.7 1.7 2 3-13.9 21.6-27.9 43-42 64.5l-1-1.5c6-15.1 11.9-30.3 17.5-45.5 1.2-4.7.4-8.8-2.5-12.5l-14-4c-3.1-.9-5.8-2.4-8-4.5 3.2-7.5 6.7-14.8 10.5-22 8.1-12.6 16-25.2 23.5-38Z"/>
  <path fill="#d98acb" d="M928.5 869.5c3.6 1.1 7 2.8 10 5 .1.7 0 1.4-.5 2-3.6 2.9-7.1 5.9-10.5 9-3-2.3-6.3-4-10-5 4-3.3 7.7-7 11-11Z"/>
  <path fill="#2c2c2b" d="M660.5 691.5c2 .2 4 .7 6 1.5 11 5.8 22 11.3 33 16.5l81 52.5c8.4 6.4 16.3 13.6 23.5 21.5 2.8 3 3.1 6.4 1 10-29 9.6-58.2 19-87.5 28.5a310.6 310.6 0 0 0-110 67c-22.6 25.2-44.4 51-65.5 77.5-6.8 10-12.3 20.6-16.5 32l-4 9c2.4-16 8.2-30.7 17.5-44 17-20.1 33.6-40.5 50-61 7-8.2 14.5-15.9 22.5-23a331.3 331.3 0 0 1 107-62.5 864 864 0 0 0 65-22c5.8-1.7 11.6-3.2 17.5-4.5.7-1.3.7-2.7 0-4a286.4 286.4 0 0 0-30.5-26.5 5661.5 5661.5 0 0 1-74-46.5c-10.4-5.7-21-11.2-32-16.5-2.7-.9-4-2.7-4-5.5Z"/>
  <path fill="#4acae3" d="M927.5 868.5a549.7 549.7 0 0 0-87.5 75 206.6 206.6 0 0 0-45.5 84h-7v-2c2-2.2 3-4.9 3-8 10.5-31.7 26.7-60 48.5-85a679 679 0 0 1 80.5-70l7 3.5c.8.7 1 1.5 1 2.5Z"/>
  <path fill="#d26ac1" d="M917.5 880.5c3.7 1 7 2.7 10 5a846.8 846.8 0 0 0-65.5 64l-32 42a209.6 209.6 0 0 0-16.5 35v1h-15a158 158 0 0 1 8.5-25 235.6 235.6 0 0 1 55.5-77.5l43-37c3.9-2.8 7.9-5.3 12-7.5Z"/>
  <path fill="#2c2b2b" d="M413.5 802.5c3 5.6 6.3 11 10 16 18 30 35.5 60.3 52.5 91 12.6 23.1 24 46.8 34.5 71a77.2 77.2 0 0 1 6 16c-1.9.2-3.4-.5-4.5-2a903.7 903.7 0 0 0-39-81c-22.2-39-43.7-78-64.5-117l5 6Z"/>
  <path fill="#2c2c2c" d="M938.5 874.5c1.7 1.4 3.3 1.7 5 1-2.7 4.2-6 8-10 11.5a475.5 475.5 0 0 0-33 30.5 177.5 177.5 0 0 1 50.5 88c.4 5.2.9 10.4 1.5 15.5.3 4.3-1.7 6.2-6 5.5h-133c4.4-12.1 9.9-23.8 16.5-35l32-42a846.8 846.8 0 0 1 76-73c.5-.6.6-1.3.5-2Z"/>
  <path fill="#2c2b2b" d="M626.5 813.5c-15.7 26.6-31.8 53-48.5 79l-21 38a240.4 240.4 0 0 0-37 71c-1 .8-2.2 1.2-3.5 1a12 12 0 0 1 1-6c4-12.7 9.2-25 15.5-37a5851 5851 0 0 1 76-124l15-21c.7-.8 1.5-1 2.5-1Z"/>
  <path fill="#302c2e" d="m139.5 860.5 19.5 35c12 17.2 23.4 34.8 34 53 20.2 27.4 41.7 53.7 64.5 79h-8l-5.5-9a545.3 545.3 0 0 1-60-76 1206 1206 0 0 0-35-56c-3.4-8.5-6.6-17.2-9.5-26Z"/>
  <path fill="#5d5d5c" d="M914.5 943.5a141 141 0 0 1 33 70.5c0 1.1-.4 2.1-1 3-2.5.9-4.8 2-7 3.5-3.7-14.3-7.2-28.6-10.5-43a154 154 0 0 0-14.5-34ZM127.5 967.5c1 .8 1.2 1.8.5 3-9 17.6-16 36-21 55-3.4 1-6.9 1.3-10.5 1 2.3-7.6 5.5-15 9.5-22 7.7-12 14.8-24.4 21.5-37Z"/>
  <path fill="#9569a3" d="M790.5 1017.5c0 3.1-1 5.8-3 8 .2-3 1.2-5.7 3-8Z"/>
  <path fill="#9a9a98" d="M946.5 1026.5v1h-133v-1h133Z" opacity=".9"/>
</svg>
