<svg width="24" height="24" viewBox="0 0 24 24" fill="none" xmlns="http://www.w3.org/2000/svg">
  <rect width="24" height="24" fill="#4AD9BD"/>
  <path fill-rule="evenodd" clip-rule="evenodd" d="M12.9197 15.887V15.9779C12.9173 16.0602 12.9128 16.1424 12.9061 16.2245L12.8931 16.3517C12.86 16.6456 12.7947 16.9351 12.6984 17.2148L12.6958 17.2161C12.466 17.8944 12.0634 18.501 11.5276 18.9762L11.4407 19.0541H8.08215C8.04775 19.0541 8.014 19.056 7.98026 19.0606L8.61951 18.4479H11.2038C11.602 18.0714 11.9065 17.6069 12.0929 17.0915C12.1137 17.0351 12.1331 16.9792 12.1513 16.9228V16.9215C12.218 16.7108 12.2637 16.4941 12.2876 16.2744C12.3006 16.1524 12.3084 16.0304 12.309 15.9058V15.887L12.3077 15.7961C12.3032 15.6182 12.2847 15.4409 12.2526 15.2659C12.2441 15.2082 12.2324 15.151 12.2175 15.0946C12.1993 15.0095 12.1766 14.9254 12.1494 14.8428C12.1352 14.7983 12.1201 14.7542 12.1039 14.7104C12.0968 14.6877 12.0884 14.6662 12.0799 14.6442C11.8154 13.9589 11.3447 13.3727 10.7328 12.9666C10.1208 12.5604 9.3978 12.3542 8.66364 12.3766L8.65975 12.3727C8.49878 12.3772 8.33832 12.3928 8.17949 12.4194C7.99939 12.2544 7.82091 12.0876 7.64408 11.9191C7.78296 11.8801 7.92314 11.849 8.06592 11.8243C8.06379 11.8231 8.06183 11.8215 8.06008 11.8198L8.18209 11.8068L8.18858 11.8061C9.06542 11.6818 9.95905 11.8408 10.7392 12.2599C11.5194 12.679 12.1453 13.3363 12.5258 14.136L12.5602 14.2119C12.5946 14.2879 12.627 14.3645 12.6562 14.4417V14.443C12.6961 14.5473 12.7311 14.6535 12.7614 14.761C12.8194 14.9577 12.8609 15.159 12.8853 15.3626C12.8899 15.3977 12.8944 15.4321 12.8977 15.4664C12.9119 15.6047 12.9191 15.7455 12.9191 15.887H12.9197ZM10.7216 17.5186V17.7113H10.1115V17.5186L10.1102 17.4511L10.1083 17.4043V17.3959L10.1018 17.3102C10.1018 17.2921 10.0992 17.2739 10.0973 17.2557C10.096 17.2401 10.0934 17.2246 10.0908 17.2083C10.0884 17.1875 10.0856 17.1667 10.0823 17.146C10.0799 17.1245 10.0767 17.1031 10.0726 17.0818L10.0648 17.0396C10.0602 17.0149 10.0553 16.9902 10.0499 16.9656C10.0447 16.9429 10.0401 16.9202 10.0337 16.8975L10.0161 16.8293C10.0104 16.8068 10.0039 16.7846 9.99667 16.7625C9.99018 16.7398 9.98369 16.7171 9.97525 16.6956L9.9733 16.6898C9.94481 16.6017 9.91211 16.5151 9.87531 16.4302C9.86687 16.4088 9.85649 16.3874 9.8474 16.3653L9.80846 16.2835C9.79548 16.2576 9.7825 16.2297 9.76822 16.2031C9.73047 16.126 9.68888 16.0508 9.64362 15.9779C9.53714 15.8003 9.42101 15.6287 9.29576 15.4639C8.78046 14.787 8.08604 14.1509 7.4033 13.5247C7.39262 13.5146 7.3818 13.5046 7.37085 13.4948L7.17616 13.3157C6.60764 12.7933 6.08066 12.2909 5.68997 11.775L5.68737 11.7717C5.48193 11.501 5.28898 11.221 5.10912 10.9326L4.97024 10.7087C4.97321 10.7093 4.97606 10.7104 4.97868 10.7119C4.88912 10.5601 4.81513 10.4199 4.75153 10.2959C4.92676 10.3433 5.09485 10.4076 5.2863 10.479C5.39273 10.5198 5.50436 10.5614 5.62377 10.6036C5.77109 10.8417 5.95346 11.1111 6.17801 11.4077C6.24615 11.4966 6.31884 11.5868 6.39542 11.6763C6.54729 11.8516 6.71537 12.0294 6.89514 12.2085C7.04441 12.3571 7.20017 12.5058 7.36371 12.6583C7.51104 12.7959 7.6629 12.9354 7.81736 13.0769L7.98415 13.2294C8.67987 13.8693 9.40544 14.554 9.93242 15.3094C9.96487 15.3561 9.99732 15.4028 10.0272 15.4502C10.0745 15.5216 10.1193 15.5917 10.1615 15.6644C10.1829 15.7001 10.2043 15.7358 10.2245 15.7721C10.2724 15.8561 10.3172 15.9418 10.3588 16.0291C10.3737 16.059 10.3867 16.0882 10.401 16.118C10.4295 16.181 10.4568 16.2452 10.4821 16.3088L10.5126 16.3893C10.5191 16.4101 10.5275 16.4295 10.5347 16.451L10.5554 16.512L10.5743 16.5717C10.5872 16.6113 10.5989 16.6522 10.61 16.6924L10.6255 16.754C10.632 16.7768 10.6372 16.7995 10.6424 16.8235C10.647 16.8449 10.6521 16.8663 10.6554 16.8871C10.6676 16.9474 10.6784 17.008 10.6878 17.0688L10.6995 17.1545L10.7008 17.1623L10.7106 17.2551L10.717 17.3492C10.719 17.379 10.7203 17.4082 10.7203 17.4387L10.7216 17.5186ZM11.2453 7.58706C12.9371 7.91065 14.5199 8.65574 15.8473 9.75339C15.737 9.92862 15.6357 10.1084 15.5449 10.2921C15.4525 10.2141 15.3588 10.1377 15.2639 10.063L15.2632 10.0643L15.1594 9.98443C13.9353 9.0498 12.5042 8.42362 10.987 8.15882V8.15623C10.9122 8.14239 10.8371 8.13006 10.7618 8.11923V8.11793C10.7251 7.88252 10.6296 7.66018 10.4841 7.47154C10.3495 7.29639 10.1764 7.15459 9.97823 7.05712C9.78003 6.95966 9.56205 6.90915 9.34119 6.90952C8.6247 6.90952 8.03023 7.43065 7.9212 8.11144V8.11534C7.29233 8.2064 6.67406 8.35967 6.07547 8.57288H6.07417C5.86003 8.64906 5.64876 8.73306 5.44076 8.82468L5.43362 8.82793L5.43167 8.82858C5.30817 8.87865 5.18788 8.9363 5.07148 9.00121C5.23957 9.04534 5.39598 9.09856 5.54525 9.15242C5.62053 9.17838 5.69321 9.20694 5.7659 9.2342C6.22798 9.40813 6.66475 9.57427 7.37215 9.57427C7.9848 9.57427 8.48971 9.44836 8.84536 9.20954C8.66213 9.01746 8.55074 8.76807 8.52995 8.50343C8.526 8.46352 8.52362 8.42347 8.52281 8.38337V8.37948C8.52128 8.34921 8.52106 8.3189 8.52216 8.28862L8.53125 8.19776L8.53449 8.18997C8.56503 8.01211 8.6576 7.85082 8.79578 7.73474C8.93396 7.61866 9.1088 7.5553 9.28927 7.55591C9.48928 7.55537 9.68146 7.63356 9.82428 7.77359C9.9671 7.91361 10.0491 8.10422 10.0525 8.30419C10.0551 8.33729 10.0557 8.37234 10.0557 8.40803C10.0557 8.77601 9.83052 9.1057 9.61831 9.33479C9.57483 9.38276 9.52936 9.42888 9.48202 9.47303V9.47627L9.42361 9.52754L9.37688 9.56778C9.36307 9.57976 9.34901 9.59144 9.3347 9.60282L9.28797 9.63917L9.24059 9.67356C9.20584 9.69895 9.17012 9.72298 9.13351 9.7456C9.08371 9.77751 9.03238 9.80696 8.9797 9.83386L8.93103 9.85917C8.91156 9.86891 8.89209 9.87864 8.87262 9.88708C8.81323 9.91515 8.7526 9.94048 8.6909 9.96301C8.65385 9.97726 8.61641 9.99046 8.57862 10.0026C8.48605 10.0342 8.3918 10.0606 8.29631 10.0818C7.99301 10.1496 7.68294 10.1825 7.37215 10.1798C6.86127 10.182 6.354 10.0941 5.87363 9.92018C5.76499 9.88146 5.65682 9.84144 5.54914 9.80012L5.34146 9.72224H5.33887L5.31745 9.7125C5.08397 9.61984 4.85346 9.51984 4.62628 9.41267C4.53493 9.36932 4.44385 9.32541 4.35305 9.28092C4.23464 9.22255 4.11779 9.16109 4.0026 9.09661L4 9.09596L4.00584 9.08947L4.13239 8.95967C4.14862 8.9428 4.17782 8.9123 4.21352 8.87725C4.27542 8.81529 4.3411 8.7572 4.41016 8.70332C4.51478 8.6283 4.62308 8.55856 4.73466 8.49435C4.74582 8.48678 4.75754 8.48005 4.7697 8.47423H4.77035C4.89906 8.39838 5.03336 8.33242 5.17208 8.27694C5.18051 8.27239 5.18895 8.2698 5.19804 8.2659C5.91663 7.94993 6.66954 7.71864 7.44159 7.57668C7.596 7.1998 7.85912 6.87743 8.19743 6.65066C8.53574 6.42389 8.93391 6.30299 9.34119 6.30336C10.2043 6.30336 10.9442 6.83618 11.2453 7.58706ZM12.5861 4.90154L13.0054 5.25394C12.9168 5.35731 12.8133 5.44698 12.6984 5.52003L12.6965 5.52133L11.5542 6.61552C11.4404 6.47249 11.3123 6.34137 11.172 6.22418L11.6477 5.76859C11.2936 5.71763 10.972 5.53444 10.7475 5.25589C10.5041 5.29177 10.2555 5.26404 10.0259 5.17541C9.89613 5.12481 9.77471 5.05502 9.66568 4.96839V5.59661C9.48295 5.58066 9.29912 5.58197 9.11664 5.6005V3.78138H9.11729V3.7697L9.3983 3.78268H9.66633V3.79566C9.6611 3.92195 9.68463 4.04777 9.73512 4.16364L9.73772 4.16234C9.74352 4.17905 9.75002 4.1955 9.75719 4.21166L9.77666 4.24801L9.77341 4.24931C9.86557 4.44011 10.0265 4.58938 10.2271 4.66726C10.3114 4.701 10.3984 4.71917 10.4867 4.72566C10.4545 4.5974 10.4414 4.46511 10.4477 4.33303C10.4541 4.18009 10.4864 4.02934 10.5431 3.88717L10.5464 3.88068C10.6234 3.68662 10.7432 3.51247 10.8969 3.37121C11.0507 3.22995 11.2343 3.12524 11.4342 3.0649L11.6438 3L11.7535 3.18951C11.8582 3.36941 11.9205 3.57081 11.9357 3.7784C11.9508 3.986 11.9185 4.19432 11.8411 4.38754L11.8385 4.39403C11.7332 4.66173 11.5461 4.88933 11.3037 5.04432C11.3719 5.10013 11.4485 5.14556 11.5341 5.17801C11.7476 5.26238 11.9839 5.25589 12.1909 5.16373V5.15984C12.2009 5.15691 12.2107 5.15322 12.2201 5.14881L12.2396 5.13972L12.2409 5.14167C12.2733 5.12869 12.3058 5.11571 12.3337 5.10078C12.4336 5.04886 12.5173 4.98331 12.5868 4.90154H12.5861ZM11.0156 4.57899C10.9782 4.41514 10.9915 4.24378 11.0539 4.08771L11.0571 4.08122C11.1195 3.9238 11.2278 3.7888 11.368 3.69377C11.405 3.85667 11.3926 4.028 11.329 4.18765L11.3271 4.19414C11.2652 4.35132 11.1564 4.48567 11.0156 4.57899ZM20.0625 12.6167C20.0625 12.6583 20.0625 12.7011 20.0606 12.7426C20.0588 12.8575 20.0523 12.9723 20.0411 13.0866C20.0274 13.2389 20.0068 13.3905 19.9794 13.5409C19.971 13.5837 19.9632 13.6259 19.9535 13.6687C19.9351 13.7607 19.9137 13.8521 19.8892 13.9426C19.8625 14.0483 19.8316 14.1529 19.7964 14.2561C19.7873 14.282 19.7789 14.3093 19.7685 14.3353C19.6308 14.7274 19.446 15.1014 19.2182 15.4489C19.2162 15.4541 19.2123 15.458 19.2097 15.4626L19.2071 15.4658L18.8164 16.0583L18.6555 15.3672C18.6425 15.31 18.6276 15.2536 18.614 15.1965L18.575 15.0504L18.5685 15.0271C18.5219 14.8551 18.4701 14.6846 18.4134 14.5157L18.379 14.4118C18.3551 14.3434 18.3305 14.2753 18.305 14.2074L18.2661 14.1062L18.2122 13.9705C18.1923 13.9216 18.1718 13.8729 18.1506 13.8245C18.0702 13.6339 17.9829 13.4462 17.889 13.2618L17.8306 13.1463C17.6898 12.8777 17.536 12.6161 17.3698 12.3623V12.3604C17.286 12.2313 17.1988 12.1045 17.1083 11.9801C17.1732 11.7484 17.2556 11.5225 17.3601 11.3025C17.4458 11.4116 17.5288 11.5219 17.6093 11.6335L17.6119 11.6316L17.6898 11.7458L17.7034 11.7666L17.7819 11.8821C17.8618 11.9995 17.939 12.119 18.0136 12.239L18.087 12.3604C18.111 12.4 18.135 12.4402 18.1584 12.4817C18.229 12.6034 18.2972 12.7265 18.3628 12.851V12.8523C18.3933 12.9088 18.4225 12.9659 18.4511 13.023L18.479 13.0788C18.5206 13.1608 18.56 13.2439 18.5971 13.328C18.6146 13.3637 18.6308 13.3994 18.6458 13.4351L18.6769 13.5052C18.6996 13.5558 18.7223 13.6071 18.7431 13.659L18.7496 13.6746C18.8054 13.8057 18.8573 13.9394 18.9054 14.0744C18.9567 14.2126 19.0043 14.3522 19.0481 14.493C19.2386 14.0725 19.3633 13.6254 19.4181 13.1671C19.4695 12.7432 19.4614 12.3141 19.394 11.8925L19.3778 11.7958L19.3609 11.7068C19.3491 11.6491 19.3363 11.5916 19.3227 11.5342C19.3089 11.4772 19.2937 11.4205 19.2772 11.3642C19.0498 10.5651 18.6089 9.84308 18.002 9.27573C17.4828 9.72504 17.0572 10.2722 16.7494 10.8859C16.5965 11.1938 16.4745 11.5162 16.3853 11.8483C16.3736 11.8944 16.3613 11.9405 16.3509 11.9866L16.3496 11.995C16.3381 12.0408 16.3279 12.0869 16.3191 12.1332C16.2855 12.2993 16.2602 12.467 16.2432 12.6356C16.2297 12.7517 16.2219 12.8684 16.2198 12.9854L16.2179 13.0425C16.2172 13.0814 16.2159 13.1197 16.2159 13.1586V13.1619C16.2159 13.208 16.2172 13.2547 16.2185 13.3014C16.2205 13.3858 16.225 13.4702 16.2315 13.5545C16.2903 15.0326 16.8733 16.4415 17.8761 17.5289C18.2138 17.8956 18.5932 18.2217 19.0066 18.5005L19.8308 19.0541H12.799C12.7601 19.0541 12.7224 19.0567 12.6854 19.0625L13.3266 18.4479H17.9474C17.7643 18.2866 17.5899 18.1157 17.425 17.9359C16.3312 16.7492 15.6927 15.2136 15.6228 13.6012C15.6139 13.4998 15.6089 13.3981 15.6078 13.2962C15.6063 13.2515 15.6057 13.2067 15.6059 13.1619V13.1586C15.6059 13.1035 15.6059 13.049 15.6085 12.9951C15.6094 12.9551 15.6109 12.915 15.613 12.875L15.6169 12.8082V12.8017L15.6273 12.6635C15.6502 12.3907 15.6929 12.12 15.7552 11.8535C15.7642 11.8172 15.772 11.7821 15.7824 11.7464C15.7908 11.7107 15.8006 11.6757 15.8103 11.6407C15.8181 11.6095 15.8278 11.5777 15.8369 11.5459L15.8512 11.5011C15.8583 11.4732 15.8674 11.4453 15.8772 11.4167L15.8895 11.3798C15.9753 11.1188 16.0798 10.8644 16.2023 10.6185C16.5883 9.84604 17.1417 9.16938 17.8222 8.63778L17.8228 8.63648L18.0175 8.48461L18.2083 8.64427C19.081 9.37766 19.6888 10.3772 19.9385 11.4894L19.9671 11.6277C19.9762 11.6737 19.984 11.7198 19.9924 11.7666C20.0002 11.8126 20.0067 11.8587 20.0132 11.9054C20.0197 11.9528 20.0262 11.9995 20.0313 12.0469C20.0359 12.0943 20.0411 12.1417 20.0443 12.1884C20.0482 12.2351 20.0521 12.2825 20.0541 12.3292V12.3331C20.0567 12.3701 20.058 12.4078 20.0593 12.4448L20.0612 12.4993L20.0625 12.6167ZM9.13611 8.28797L9.14 8.2672C9.15032 8.23584 9.17034 8.20856 9.19717 8.18931C9.224 8.17006 9.25625 8.15984 9.28927 8.16012C9.36844 8.16012 9.43529 8.21853 9.44373 8.29641L9.44503 8.31523L9.44567 8.33275C9.44697 8.35676 9.44762 8.38272 9.44762 8.40868C9.4477 8.42128 9.44684 8.43386 9.44503 8.44632C9.43205 8.54562 9.37688 8.66244 9.28537 8.78639C9.227 8.72468 9.18466 8.64958 9.16207 8.56768C9.14709 8.51567 9.13817 8.4621 9.13546 8.40803C9.13371 8.38536 9.13284 8.36263 9.13286 8.33989L9.13611 8.28797Z" fill="white"/>
</svg>
