<svg width="32" height="32" viewBox="0 0 32 32" fill="currentColor" xmlns="http://www.w3.org/2000/svg">
  <g clip-path="url(#clip0_142_361)">
    <g clip-path="url(#clip1_142_361)">
      <path d="M0 0V32H32V0H0ZM9.365 5.333H11.542C13.172 5.333 13.73 5.369 13.766 5.484C13.792 5.573 13.808 7.307 13.808 9.349L13.798 13.057L14.428 12.494C15.308 11.718 16.048 11.447 17.449 11.395C18.371 11.369 18.746 11.405 19.392 11.635C20.809 12.109 21.809 13.083 22.33 14.52C22.533 15.083 22.559 15.671 22.596 20.234L22.638 25.333H18.185V21.172C18.185 17.073 18.175 17.021 17.899 16.521C17.508 15.86 17.086 15.557 16.42 15.485C15.285 15.36 14.498 15.745 14.05 16.673C13.836 17.1 13.81 17.548 13.8 21.147C13.784 23.345 13.758 25.189 13.758 25.236C13.748 25.299 12.758 25.335 11.555 25.335H9.373V15.335L9.365 5.333Z" />
    </g>
  </g>
  <defs>
    <clipPath id="clip0_142_361">
      <rect width="32" height="32" rx="16" fill="white"/>
    </clipPath>
    <clipPath id="clip1_142_361">
      <rect width="32" height="32" fill="white"/>
    </clipPath>
  </defs>
</svg>
