<svg width="20" height="20" viewBox="0 0 20 20" fill="none" xmlns="http://www.w3.org/2000/svg">
<g clip-path="url(#clip0_70_137604)">
<rect width="20" height="20" fill="black"/>
<g clip-path="url(#clip1_70_137604)">
<path d="M12.0326 9.22859C12.0196 9.23922 12.0061 9.24985 11.9929 9.26027C11.2938 9.7787 10.5634 10.2531 9.85214 10.7546C8.6209 11.6332 7.43825 12.5878 6.36385 13.6535C6.36233 13.6548 6.36103 13.6564 6.35951 13.6577C5.61157 14.3783 4.9029 15.1394 4.23804 15.9373C5.83782 13.2878 8.14953 11.0718 10.8693 9.58564C9.96884 9.43141 9.30528 9.58564 7.30723 9.99259C8.89183 8.79823 9.19682 8.43402 9.74107 7.22664C10.0424 7.26656 10.343 7.31124 10.6428 7.36113C10.2242 8.18825 9.52242 8.78716 8.74823 9.27762L8.42329 9.48912C8.79877 9.3479 9.2081 9.19649 9.59877 9.11059C10.3983 8.92577 11.2665 8.90734 12.0326 9.22859Z" fill="url(#paint0_linear_70_137604)"/>
<path d="M16.8153 7.5889C15.6671 7.87133 14.6686 8.66872 14.1287 9.71666C13.7239 10.524 13.0654 11.1924 12.2534 11.5956C11.8849 11.7787 11.4884 11.8555 11.101 11.9854C12.1532 11.4637 12.9944 10.624 13.335 9.46656C13.3545 9.40321 13.3927 9.27523 13.4107 9.21146C13.8229 7.89888 15.2797 7.14942 16.5827 7.50647C16.6608 7.5299 16.7385 7.55745 16.8153 7.5889Z" fill="url(#paint1_linear_70_137604)"/>
<path d="M16.8244 7.58626C15.4112 6.95611 13.668 7.81793 13.2908 9.31554C13.2552 9.4329 13.2151 9.57932 13.1693 9.69233C13.1435 9.765 13.1021 9.86825 13.0689 9.93637L13.0142 10.0565L12.9522 10.173C12.4953 11.0385 11.6982 11.6789 10.8259 12.0984L10.5836 12.2103C8.7474 12.9607 7.12961 14.2205 5.95109 15.8114C6.44786 14.9187 7.07214 14.0973 7.79731 13.3769C8.28712 12.8903 8.82297 12.4498 9.39664 12.0646C8.47191 12.3479 7.59643 12.7463 6.79577 13.2505C7.76736 12.365 8.80922 11.5563 9.88428 10.8008C10.6005 10.3049 11.3387 9.83897 12.0392 9.3201C12.0823 9.28734 12.13 9.24656 12.1702 9.20556L12.1183 9.18257C11.3242 8.82726 10.4153 8.83832 9.57994 9.02877C9.40727 9.06782 9.23634 9.11446 9.06736 9.1676C9.17039 9.09624 9.27213 9.0227 9.37191 8.94678C9.93872 8.52552 10.4227 7.98517 10.7359 7.34916L10.76 7.30144C10.1435 7.19949 9.52397 7.11554 8.90207 7.05546C7.85369 6.95307 6.77495 6.9112 5.7205 6.92639C4.96736 6.94092 4.19816 6.98084 3.45044 7.05611C6.51573 6.03268 9.7576 5.54092 12.989 5.59841C12.9348 6.08626 12.7366 6.55524 12.4251 6.9355C13.8689 6.29342 15.6324 6.55264 16.8244 7.58626Z" fill="url(#paint2_linear_70_137604)"/>
<path d="M12.1703 9.20564C12.1302 9.24664 12.0824 9.28742 12.0393 9.32017C11.3388 9.83905 10.6007 10.305 9.8844 10.8009C8.80935 11.5564 7.76748 12.3651 6.7959 13.2505C6.65013 13.3831 6.50609 13.5174 6.36379 13.6536C7.4382 12.5879 8.62084 11.6332 9.85208 10.7547C10.5634 10.2531 11.2937 9.77874 11.9929 9.26031C12.0061 9.24989 12.0195 9.23926 12.0326 9.22863C11.2664 8.90738 10.3983 8.92581 9.59872 9.11063C9.20804 9.19653 8.79872 9.34794 8.42323 9.48916L8.74818 9.27766C9.52236 8.7872 10.2241 8.18829 10.6428 7.36117C10.343 7.31128 10.0423 7.2666 9.74102 7.22668C9.45945 7.18916 9.17746 7.15553 8.89503 7.12582C7.6998 6.99675 6.46943 6.95076 5.2664 6.96963C4.66054 6.98004 4.05512 7.0102 3.45056 7.05618C4.19828 6.98091 4.96748 6.941 5.72063 6.92647C6.77507 6.91128 7.85382 6.95315 8.90219 7.05553C9.5241 7.11562 10.1436 7.19957 10.7601 7.30152L10.736 7.34924C10.4228 7.98525 9.93885 8.5256 9.37204 8.94686C9.27225 9.02278 9.17052 9.09631 9.06748 9.16768C9.23646 9.11454 9.40739 9.0679 9.58006 9.02885C10.4154 8.8384 11.3243 8.82733 12.1185 9.18265L12.1703 9.20564Z" fill="#FDF851"/>
<path d="M16.8245 7.58628C16.8217 7.58519 16.8187 7.58411 16.8158 7.58303C16.7388 7.55331 16.6612 7.52793 16.5829 7.50645C15.2798 7.1494 13.823 7.89886 13.4109 9.21144C13.3929 9.27522 13.3547 9.4032 13.3352 9.46654C12.9946 10.624 12.1534 11.4637 11.1011 11.9854C11.0128 12.0292 10.9228 12.0709 10.8315 12.1104L10.5837 12.2104L10.826 12.0984C11.6983 11.6789 12.4955 11.0386 12.9523 10.173L13.0143 10.0566L13.069 9.93639C13.1022 9.86827 13.1436 9.76502 13.1694 9.69235C13.2152 9.57934 13.2553 9.43292 13.2909 9.31556C13.6681 7.81795 15.4113 6.95613 16.8245 7.58628Z" fill="#FDF851"/>
</g>
</g>
<rect x="0.5" y="0.5" width="19" height="19" rx="9.5" stroke="#2B2D38"/>
<defs>
<linearGradient id="paint0_linear_70_137604" x1="15.274" y1="-8.76289" x2="23.8032" y2="6.51845" gradientUnits="userSpaceOnUse">
<stop offset="0.1875" stop-color="#A4560E"/>
<stop offset="0.567256" stop-color="#E07716"/>
<stop offset="0.863872" stop-color="#FFC401"/>
</linearGradient>
<linearGradient id="paint1_linear_70_137604" x1="19.1916" y1="-0.967178" x2="22.8106" y2="8.09776" gradientUnits="userSpaceOnUse">
<stop offset="0.1875" stop-color="#A4560E"/>
<stop offset="0.567256" stop-color="#E07716"/>
<stop offset="0.863872" stop-color="#FFC401"/>
</linearGradient>
<linearGradient id="paint2_linear_70_137604" x1="12.457" y1="7.24743" x2="3.45041" y2="23.8132" gradientUnits="userSpaceOnUse">
<stop stop-color="#FFE619"/>
<stop offset="0.440758" stop-color="#FEB226"/>
<stop offset="1" stop-color="#FE9F19"/>
</linearGradient>
<clipPath id="clip0_70_137604">
<rect width="20" height="20" rx="10" fill="white"/>
</clipPath>
<clipPath id="clip1_70_137604">
<rect width="14.0564" height="14.0564" fill="white" transform="translate(3.125 3.75)"/>
</clipPath>
</defs>
</svg>
